<?xml version="1.0" encoding="utf-8" standalone="no"?>
<!DOCTYPE svg PUBLIC "-//W3C//DTD SVG 1.1//EN"
  "http://www.w3.org/Graphics/SVG/1.1/DTD/svg11.dtd">
<svg xmlns:xlink="http://www.w3.org/1999/xlink" width="505.760937pt" height="303.93225pt" viewBox="0 0 505.760937 303.93225" xmlns="http://www.w3.org/2000/svg" version="1.1">
 <metadata>
  <rdf:RDF xmlns:dc="http://purl.org/dc/elements/1.1/" xmlns:cc="http://creativecommons.org/ns#" xmlns:rdf="http://www.w3.org/1999/02/22-rdf-syntax-ns#">
   <cc:Work>
    <dc:type rdf:resource="http://purl.org/dc/dcmitype/StillImage"/>
    <dc:date>2026-06-14T05:43:13.325598</dc:date>
    <dc:format>image/svg+xml</dc:format>
    <dc:creator>
     <cc:Agent>
      <dc:title>Matplotlib v3.10.8, https://matplotlib.org/</dc:title>
     </cc:Agent>
    </dc:creator>
   </cc:Work>
  </rdf:RDF>
 </metadata>
 <defs>
  <style type="text/css">*{stroke-linejoin: round; stroke-linecap: butt}</style>
 </defs>
 <g id="figure_1">
  <g id="patch_1">
   <path d="M 0 303.93225 
L 505.760937 303.93225 
L 505.760937 0 
L 0 0 
z
" style="fill: #ffffff"/>
  </g>
  <g id="axes_1">
   <g id="patch_2">
    <path d="M 52.160938 266.376 
L 498.560937 266.376 
L 498.560937 22.44 
L 52.160938 22.44 
z
" style="fill: #ffffff"/>
   </g>
   <g id="matplotlib.axis_1">
    <g id="xtick_1">
     <g id="line2d_1">
      <path d="M 72.451847 266.376 
L 72.451847 22.44 
" clip-path="url(#p5fe28e61fc)" style="fill: none; stroke: #b0b0b0; stroke-opacity: 0.25; stroke-width: 0.8; stroke-linecap: square"/>
     </g>
     <g id="line2d_2">
      <defs>
       <path id="m9ca6f671c1" d="M 0 0 
L 0 3.5 
" style="stroke: #000000; stroke-width: 0.8"/>
      </defs>
      <g>
       <use xlink:href="#m9ca6f671c1" x="72.451847" y="266.376" style="stroke: #000000; stroke-width: 0.8"/>
      </g>
     </g>
     <g id="text_1">
      <!-- 0.00 -->
      <g transform="translate(61.319034 280.974437) scale(0.1 -0.1)">
       <defs>
        <path id="DejaVuSans-30" d="M 2034 4250 
Q 1547 4250 1301 3770 
Q 1056 3291 1056 2328 
Q 1056 1369 1301 889 
Q 1547 409 2034 409 
Q 2525 409 2770 889 
Q 3016 1369 3016 2328 
Q 3016 3291 2770 3770 
Q 2525 4250 2034 4250 
z
M 2034 4750 
Q 2819 4750 3233 4129 
Q 3647 3509 3647 2328 
Q 3647 1150 3233 529 
Q 2819 -91 2034 -91 
Q 1250 -91 836 529 
Q 422 1150 422 2328 
Q 422 3509 836 4129 
Q 1250 4750 2034 4750 
z
" transform="scale(0.015625)"/>
        <path id="DejaVuSans-2e" d="M 684 794 
L 1344 794 
L 1344 0 
L 684 0 
L 684 794 
z
" transform="scale(0.015625)"/>
       </defs>
       <use xlink:href="#DejaVuSans-30"/>
       <use xlink:href="#DejaVuSans-2e" transform="translate(63.623047 0)"/>
       <use xlink:href="#DejaVuSans-30" transform="translate(95.410156 0)"/>
       <use xlink:href="#DejaVuSans-30" transform="translate(159.033203 0)"/>
      </g>
     </g>
    </g>
    <g id="xtick_2">
     <g id="line2d_3">
      <path d="M 173.906392 266.376 
L 173.906392 22.44 
" clip-path="url(#p5fe28e61fc)" style="fill: none; stroke: #b0b0b0; stroke-opacity: 0.25; stroke-width: 0.8; stroke-linecap: square"/>
     </g>
     <g id="line2d_4">
      <g>
       <use xlink:href="#m9ca6f671c1" x="173.906392" y="266.376" style="stroke: #000000; stroke-width: 0.8"/>
      </g>
     </g>
     <g id="text_2">
      <!-- 0.25 -->
      <g transform="translate(162.77358 280.974437) scale(0.1 -0.1)">
       <defs>
        <path id="DejaVuSans-32" d="M 1228 531 
L 3431 531 
L 3431 0 
L 469 0 
L 469 531 
Q 828 903 1448 1529 
Q 2069 2156 2228 2338 
Q 2531 2678 2651 2914 
Q 2772 3150 2772 3378 
Q 2772 3750 2511 3984 
Q 2250 4219 1831 4219 
Q 1534 4219 1204 4116 
Q 875 4013 500 3803 
L 500 4441 
Q 881 4594 1212 4672 
Q 1544 4750 1819 4750 
Q 2544 4750 2975 4387 
Q 3406 4025 3406 3419 
Q 3406 3131 3298 2873 
Q 3191 2616 2906 2266 
Q 2828 2175 2409 1742 
Q 1991 1309 1228 531 
z
" transform="scale(0.015625)"/>
        <path id="DejaVuSans-35" d="M 691 4666 
L 3169 4666 
L 3169 4134 
L 1269 4134 
L 1269 2991 
Q 1406 3038 1543 3061 
Q 1681 3084 1819 3084 
Q 2600 3084 3056 2656 
Q 3513 2228 3513 1497 
Q 3513 744 3044 326 
Q 2575 -91 1722 -91 
Q 1428 -91 1123 -41 
Q 819 9 494 109 
L 494 744 
Q 775 591 1075 516 
Q 1375 441 1709 441 
Q 2250 441 2565 725 
Q 2881 1009 2881 1497 
Q 2881 1984 2565 2268 
Q 2250 2553 1709 2553 
Q 1456 2553 1204 2497 
Q 953 2441 691 2322 
L 691 4666 
z
" transform="scale(0.015625)"/>
       </defs>
       <use xlink:href="#DejaVuSans-30"/>
       <use xlink:href="#DejaVuSans-2e" transform="translate(63.623047 0)"/>
       <use xlink:href="#DejaVuSans-32" transform="translate(95.410156 0)"/>
       <use xlink:href="#DejaVuSans-35" transform="translate(159.033203 0)"/>
      </g>
     </g>
    </g>
    <g id="xtick_3">
     <g id="line2d_5">
      <path d="M 275.360937 266.376 
L 275.360937 22.44 
" clip-path="url(#p5fe28e61fc)" style="fill: none; stroke: #b0b0b0; stroke-opacity: 0.25; stroke-width: 0.8; stroke-linecap: square"/>
     </g>
     <g id="line2d_6">
      <g>
       <use xlink:href="#m9ca6f671c1" x="275.360937" y="266.376" style="stroke: #000000; stroke-width: 0.8"/>
      </g>
     </g>
     <g id="text_3">
      <!-- 0.50 -->
      <g transform="translate(264.228125 280.974437) scale(0.1 -0.1)">
       <use xlink:href="#DejaVuSans-30"/>
       <use xlink:href="#DejaVuSans-2e" transform="translate(63.623047 0)"/>
       <use xlink:href="#DejaVuSans-35" transform="translate(95.410156 0)"/>
       <use xlink:href="#DejaVuSans-30" transform="translate(159.033203 0)"/>
      </g>
     </g>
    </g>
    <g id="xtick_4">
     <g id="line2d_7">
      <path d="M 376.815483 266.376 
L 376.815483 22.44 
" clip-path="url(#p5fe28e61fc)" style="fill: none; stroke: #b0b0b0; stroke-opacity: 0.25; stroke-width: 0.8; stroke-linecap: square"/>
     </g>
     <g id="line2d_8">
      <g>
       <use xlink:href="#m9ca6f671c1" x="376.815483" y="266.376" style="stroke: #000000; stroke-width: 0.8"/>
      </g>
     </g>
     <g id="text_4">
      <!-- 0.75 -->
      <g transform="translate(365.68267 280.974437) scale(0.1 -0.1)">
       <defs>
        <path id="DejaVuSans-37" d="M 525 4666 
L 3525 4666 
L 3525 4397 
L 1831 0 
L 1172 0 
L 2766 4134 
L 525 4134 
L 525 4666 
z
" transform="scale(0.015625)"/>
       </defs>
       <use xlink:href="#DejaVuSans-30"/>
       <use xlink:href="#DejaVuSans-2e" transform="translate(63.623047 0)"/>
       <use xlink:href="#DejaVuSans-37" transform="translate(95.410156 0)"/>
       <use xlink:href="#DejaVuSans-35" transform="translate(159.033203 0)"/>
      </g>
     </g>
    </g>
    <g id="xtick_5">
     <g id="line2d_9">
      <path d="M 478.270028 266.376 
L 478.270028 22.44 
" clip-path="url(#p5fe28e61fc)" style="fill: none; stroke: #b0b0b0; stroke-opacity: 0.25; stroke-width: 0.8; stroke-linecap: square"/>
     </g>
     <g id="line2d_10">
      <g>
       <use xlink:href="#m9ca6f671c1" x="478.270028" y="266.376" style="stroke: #000000; stroke-width: 0.8"/>
      </g>
     </g>
     <g id="text_5">
      <!-- 1.00 -->
      <g transform="translate(467.137216 280.974437) scale(0.1 -0.1)">
       <defs>
        <path id="DejaVuSans-31" d="M 794 531 
L 1825 531 
L 1825 4091 
L 703 3866 
L 703 4441 
L 1819 4666 
L 2450 4666 
L 2450 531 
L 3481 531 
L 3481 0 
L 794 0 
L 794 531 
z
" transform="scale(0.015625)"/>
       </defs>
       <use xlink:href="#DejaVuSans-31"/>
       <use xlink:href="#DejaVuSans-2e" transform="translate(63.623047 0)"/>
       <use xlink:href="#DejaVuSans-30" transform="translate(95.410156 0)"/>
       <use xlink:href="#DejaVuSans-30" transform="translate(159.033203 0)"/>
      </g>
     </g>
    </g>
    <g id="text_6">
     <!-- $\theta/\pi$ -->
     <g transform="translate(267.560937 294.652562) scale(0.1 -0.1)">
      <defs>
       <path id="DejaVuSans-Oblique-3b8" d="M 2913 2219 
L 925 2219 
Q 791 1284 928 888 
Q 1100 400 1566 400 
Q 2034 400 2391 891 
Q 2703 1322 2913 2219 
z
M 3009 2750 
Q 3094 3638 2984 3950 
Q 2813 4444 2353 4444 
Q 1875 4444 1525 3956 
Q 1250 3563 1034 2750 
L 3009 2750 
z
M 2444 4913 
Q 3194 4913 3494 4250 
Q 3794 3591 3566 2422 
Q 3341 1256 2781 594 
Q 2225 -72 1475 -72 
Q 722 -72 425 594 
Q 128 1256 353 2422 
Q 581 3591 1134 4250 
Q 1691 4913 2444 4913 
z
" transform="scale(0.015625)"/>
       <path id="DejaVuSans-2f" d="M 1625 4666 
L 2156 4666 
L 531 -594 
L 0 -594 
L 1625 4666 
z
" transform="scale(0.015625)"/>
       <path id="DejaVuSans-Oblique-3c0" d="M 584 3500 
L 3938 3500 
L 3825 2925 
L 3384 2925 
L 2966 775 
Q 2922 550 2981 450 
Q 3038 353 3209 353 
Q 3256 353 3325 363 
Q 3397 369 3419 372 
L 3338 -44 
Q 3222 -84 3103 -103 
Q 2981 -122 2866 -122 
Q 2491 -122 2388 81 
Q 2284 288 2391 838 
L 2797 2925 
L 1506 2925 
L 938 0 
L 350 0 
L 919 2925 
L 472 2925 
L 584 3500 
z
" transform="scale(0.015625)"/>
      </defs>
      <use xlink:href="#DejaVuSans-Oblique-3b8" transform="translate(0 0.234375)"/>
      <use xlink:href="#DejaVuSans-2f" transform="translate(61.181641 0.234375)"/>
      <use xlink:href="#DejaVuSans-Oblique-3c0" transform="translate(94.873047 0.234375)"/>
     </g>
    </g>
   </g>
   <g id="matplotlib.axis_2">
    <g id="ytick_1">
     <g id="line2d_11">
      <path d="M 52.160938 250.46713 
L 498.560937 250.46713 
" clip-path="url(#p5fe28e61fc)" style="fill: none; stroke: #b0b0b0; stroke-opacity: 0.25; stroke-width: 0.8; stroke-linecap: square"/>
     </g>
     <g id="line2d_12">
      <defs>
       <path id="m1674d68516" d="M 0 0 
L -3.5 0 
" style="stroke: #000000; stroke-width: 0.8"/>
      </defs>
      <g>
       <use xlink:href="#m1674d68516" x="52.160938" y="250.46713" style="stroke: #000000; stroke-width: 0.8"/>
      </g>
     </g>
     <g id="text_7">
      <!-- −1.0 -->
      <g transform="translate(20.878125 254.266349) scale(0.1 -0.1)">
       <defs>
        <path id="DejaVuSans-2212" d="M 678 2272 
L 4684 2272 
L 4684 1741 
L 678 1741 
L 678 2272 
z
" transform="scale(0.015625)"/>
       </defs>
       <use xlink:href="#DejaVuSans-2212"/>
       <use xlink:href="#DejaVuSans-31" transform="translate(83.789062 0)"/>
       <use xlink:href="#DejaVuSans-2e" transform="translate(147.412109 0)"/>
       <use xlink:href="#DejaVuSans-30" transform="translate(179.199219 0)"/>
      </g>
     </g>
    </g>
    <g id="ytick_2">
     <g id="line2d_13">
      <path d="M 52.160938 197.437565 
L 498.560937 197.437565 
" clip-path="url(#p5fe28e61fc)" style="fill: none; stroke: #b0b0b0; stroke-opacity: 0.25; stroke-width: 0.8; stroke-linecap: square"/>
     </g>
     <g id="line2d_14">
      <g>
       <use xlink:href="#m1674d68516" x="52.160938" y="197.437565" style="stroke: #000000; stroke-width: 0.8"/>
      </g>
     </g>
     <g id="text_8">
      <!-- −0.5 -->
      <g transform="translate(20.878125 201.236784) scale(0.1 -0.1)">
       <use xlink:href="#DejaVuSans-2212"/>
       <use xlink:href="#DejaVuSans-30" transform="translate(83.789062 0)"/>
       <use xlink:href="#DejaVuSans-2e" transform="translate(147.412109 0)"/>
       <use xlink:href="#DejaVuSans-35" transform="translate(179.199219 0)"/>
      </g>
     </g>
    </g>
    <g id="ytick_3">
     <g id="line2d_15">
      <path d="M 52.160938 144.408 
L 498.560937 144.408 
" clip-path="url(#p5fe28e61fc)" style="fill: none; stroke: #b0b0b0; stroke-opacity: 0.25; stroke-width: 0.8; stroke-linecap: square"/>
     </g>
     <g id="line2d_16">
      <g>
       <use xlink:href="#m1674d68516" x="52.160938" y="144.408" style="stroke: #000000; stroke-width: 0.8"/>
      </g>
     </g>
     <g id="text_9">
      <!-- 0.0 -->
      <g transform="translate(29.257812 148.207219) scale(0.1 -0.1)">
       <use xlink:href="#DejaVuSans-30"/>
       <use xlink:href="#DejaVuSans-2e" transform="translate(63.623047 0)"/>
       <use xlink:href="#DejaVuSans-30" transform="translate(95.410156 0)"/>
      </g>
     </g>
    </g>
    <g id="ytick_4">
     <g id="line2d_17">
      <path d="M 52.160938 91.378435 
L 498.560937 91.378435 
" clip-path="url(#p5fe28e61fc)" style="fill: none; stroke: #b0b0b0; stroke-opacity: 0.25; stroke-width: 0.8; stroke-linecap: square"/>
     </g>
     <g id="line2d_18">
      <g>
       <use xlink:href="#m1674d68516" x="52.160938" y="91.378435" style="stroke: #000000; stroke-width: 0.8"/>
      </g>
     </g>
     <g id="text_10">
      <!-- 0.5 -->
      <g transform="translate(29.257812 95.177654) scale(0.1 -0.1)">
       <use xlink:href="#DejaVuSans-30"/>
       <use xlink:href="#DejaVuSans-2e" transform="translate(63.623047 0)"/>
       <use xlink:href="#DejaVuSans-35" transform="translate(95.410156 0)"/>
      </g>
     </g>
    </g>
    <g id="ytick_5">
     <g id="line2d_19">
      <path d="M 52.160938 38.34887 
L 498.560937 38.34887 
" clip-path="url(#p5fe28e61fc)" style="fill: none; stroke: #b0b0b0; stroke-opacity: 0.25; stroke-width: 0.8; stroke-linecap: square"/>
     </g>
     <g id="line2d_20">
      <g>
       <use xlink:href="#m1674d68516" x="52.160938" y="38.34887" style="stroke: #000000; stroke-width: 0.8"/>
      </g>
     </g>
     <g id="text_11">
      <!-- 1.0 -->
      <g transform="translate(29.257812 42.148088) scale(0.1 -0.1)">
       <use xlink:href="#DejaVuSans-31"/>
       <use xlink:href="#DejaVuSans-2e" transform="translate(63.623047 0)"/>
       <use xlink:href="#DejaVuSans-30" transform="translate(95.410156 0)"/>
      </g>
     </g>
    </g>
    <g id="text_12">
     <!-- $P_\ell(\cos\theta)$ -->
     <g transform="translate(14.798437 165.208) rotate(-90) scale(0.1 -0.1)">
      <defs>
       <path id="DejaVuSans-Oblique-50" d="M 1081 4666 
L 2541 4666 
Q 3178 4666 3512 4369 
Q 3847 4072 3847 3500 
Q 3847 2731 3353 2303 
Q 2859 1875 1966 1875 
L 1172 1875 
L 806 0 
L 172 0 
L 1081 4666 
z
M 1613 4147 
L 1275 2394 
L 2069 2394 
Q 2606 2394 2893 2669 
Q 3181 2944 3181 3456 
Q 3181 3784 2986 3965 
Q 2791 4147 2438 4147 
L 1613 4147 
z
" transform="scale(0.015625)"/>
       <path id="DejaVuSans-Oblique-2113" d="M 950 838 
Q 1078 213 1350 213 
Q 1531 213 1766 572 
L 2181 572 
Q 1994 253 1775 88 
Q 1538 -91 1319 -91 
Q 831 -91 634 344 
L 400 0 
L -88 0 
Q 250 459 500 888 
Q 469 1131 469 1397 
Q 469 1872 566 2347 
Q 931 4131 1256 4497 
Q 1481 4750 1866 4750 
Q 2256 4750 2256 4209 
Q 2253 3966 2197 3675 
Q 1972 2484 950 838 
z
M 947 1656 
Q 1531 2744 1709 3613 
Q 1803 4072 1803 4191 
Q 1803 4406 1725 4406 
Q 1384 4134 1081 2516 
Q 997 2063 947 1656 
z
" transform="scale(0.015625)"/>
       <path id="DejaVuSans-28" d="M 1984 4856 
Q 1566 4138 1362 3434 
Q 1159 2731 1159 2009 
Q 1159 1288 1364 580 
Q 1569 -128 1984 -844 
L 1484 -844 
Q 1016 -109 783 600 
Q 550 1309 550 2009 
Q 550 2706 781 3412 
Q 1013 4119 1484 4856 
L 1984 4856 
z
" transform="scale(0.015625)"/>
       <path id="DejaVuSans-63" d="M 3122 3366 
L 3122 2828 
Q 2878 2963 2633 3030 
Q 2388 3097 2138 3097 
Q 1578 3097 1268 2742 
Q 959 2388 959 1747 
Q 959 1106 1268 751 
Q 1578 397 2138 397 
Q 2388 397 2633 464 
Q 2878 531 3122 666 
L 3122 134 
Q 2881 22 2623 -34 
Q 2366 -91 2075 -91 
Q 1284 -91 818 406 
Q 353 903 353 1747 
Q 353 2603 823 3093 
Q 1294 3584 2113 3584 
Q 2378 3584 2631 3529 
Q 2884 3475 3122 3366 
z
" transform="scale(0.015625)"/>
       <path id="DejaVuSans-6f" d="M 1959 3097 
Q 1497 3097 1228 2736 
Q 959 2375 959 1747 
Q 959 1119 1226 758 
Q 1494 397 1959 397 
Q 2419 397 2687 759 
Q 2956 1122 2956 1747 
Q 2956 2369 2687 2733 
Q 2419 3097 1959 3097 
z
M 1959 3584 
Q 2709 3584 3137 3096 
Q 3566 2609 3566 1747 
Q 3566 888 3137 398 
Q 2709 -91 1959 -91 
Q 1206 -91 779 398 
Q 353 888 353 1747 
Q 353 2609 779 3096 
Q 1206 3584 1959 3584 
z
" transform="scale(0.015625)"/>
       <path id="DejaVuSans-73" d="M 2834 3397 
L 2834 2853 
Q 2591 2978 2328 3040 
Q 2066 3103 1784 3103 
Q 1356 3103 1142 2972 
Q 928 2841 928 2578 
Q 928 2378 1081 2264 
Q 1234 2150 1697 2047 
L 1894 2003 
Q 2506 1872 2764 1633 
Q 3022 1394 3022 966 
Q 3022 478 2636 193 
Q 2250 -91 1575 -91 
Q 1294 -91 989 -36 
Q 684 19 347 128 
L 347 722 
Q 666 556 975 473 
Q 1284 391 1588 391 
Q 1994 391 2212 530 
Q 2431 669 2431 922 
Q 2431 1156 2273 1281 
Q 2116 1406 1581 1522 
L 1381 1569 
Q 847 1681 609 1914 
Q 372 2147 372 2553 
Q 372 3047 722 3315 
Q 1072 3584 1716 3584 
Q 2034 3584 2315 3537 
Q 2597 3491 2834 3397 
z
" transform="scale(0.015625)"/>
       <path id="DejaVuSans-29" d="M 513 4856 
L 1013 4856 
Q 1481 4119 1714 3412 
Q 1947 2706 1947 2009 
Q 1947 1309 1714 600 
Q 1481 -109 1013 -844 
L 513 -844 
Q 928 -128 1133 580 
Q 1338 1288 1338 2009 
Q 1338 2731 1133 3434 
Q 928 4138 513 4856 
z
" transform="scale(0.015625)"/>
      </defs>
      <use xlink:href="#DejaVuSans-Oblique-50" transform="translate(0 0.234375)"/>
      <use xlink:href="#DejaVuSans-Oblique-2113" transform="translate(60.302734 -16.171875) scale(0.7)"/>
      <use xlink:href="#DejaVuSans-28" transform="translate(91.953125 0.234375)"/>
      <use xlink:href="#DejaVuSans-63" transform="translate(130.966797 0.234375)"/>
      <use xlink:href="#DejaVuSans-6f" transform="translate(185.947266 0.234375)"/>
      <use xlink:href="#DejaVuSans-73" transform="translate(247.128906 0.234375)"/>
      <use xlink:href="#DejaVuSans-Oblique-3b8" transform="translate(315.464192 0.234375)"/>
      <use xlink:href="#DejaVuSans-29" transform="translate(376.645833 0.234375)"/>
     </g>
    </g>
   </g>
   <g id="line2d_21">
    <path d="M 72.451847 38.34887 
L 478.270028 38.34887 
L 478.270028 38.34887 
" clip-path="url(#p5fe28e61fc)" style="fill: none; stroke: #1f77b4; stroke-width: 1.5; stroke-linecap: square"/>
   </g>
   <g id="line2d_22">
    <path d="M 72.451847 38.34887 
L 78.546738 38.466903 
L 84.641629 38.820742 
L 90.736521 39.409597 
L 96.831412 40.23216 
L 102.926303 41.286598 
L 109.021195 42.570564 
L 115.116086 44.081201 
L 121.210977 45.815147 
L 127.305869 47.768542 
L 133.908668 50.127307 
L 140.511467 52.732348 
L 147.114266 55.576859 
L 153.717064 58.653411 
L 160.827771 62.21689 
L 167.938478 66.029357 
L 175.557092 70.377306 
L 183.175706 74.982695 
L 191.302228 80.160805 
L 199.936657 85.940576 
L 209.078994 92.344386 
L 218.729239 99.386101 
L 229.395299 107.459598 
L 241.077174 116.588818 
L 255.298587 128.002069 
L 276.630707 145.450519 
L 301.010272 165.329123 
L 314.723777 176.228778 
L 326.405652 185.235744 
L 336.563805 192.799196 
L 346.214049 199.70814 
L 354.848479 205.629449 
L 363.482908 211.277329 
L 371.60943 216.320595 
L 379.228044 220.79062 
L 386.846658 224.995027 
L 393.957365 228.666582 
L 401.068071 232.082887 
L 407.67087 235.017557 
L 414.273669 237.715542 
L 420.876468 240.169793 
L 427.479267 242.3739 
L 433.574159 244.181448 
L 439.66905 245.76692 
L 445.763941 247.126786 
L 451.858833 248.25802 
L 457.953724 249.158103 
L 464.048615 249.825032 
L 470.143507 250.257323 
L 476.238398 250.454013 
L 478.270028 250.46713 
L 478.270028 250.46713 
" clip-path="url(#p5fe28e61fc)" style="fill: none; stroke: #ff7f0e; stroke-width: 1.5; stroke-linecap: square"/>
   </g>
   <g id="line2d_23">
    <path d="M 72.451847 38.34887 
L 76.0072 38.469354 
L 79.562553 38.830443 
L 83.117906 39.431043 
L 86.67326 40.269334 
L 90.228613 41.342776 
L 93.783966 42.648118 
L 97.33932 44.181406 
L 100.894673 45.937994 
L 104.957934 48.212096 
L 109.021195 50.761885 
L 113.084456 53.577275 
L 117.147716 56.647126 
L 121.718885 60.389709 
L 126.290053 64.420207 
L 131.36913 69.211625 
L 136.448206 74.303932 
L 142.035189 80.215383 
L 148.130081 86.983989 
L 155.240787 95.223944 
L 163.875217 105.588769 
L 181.144076 126.788259 
L 191.810135 139.661561 
L 199.42875 148.514025 
L 206.031548 155.846209 
L 211.618532 161.743785 
L 217.205516 167.31345 
L 222.284592 172.057132 
L 226.855761 176.041008 
L 231.426929 179.733743 
L 235.49019 182.756778 
L 239.553451 185.523185 
L 243.616712 188.022019 
L 247.679973 190.243394 
L 251.235326 191.952557 
L 254.790679 193.437367 
L 258.346033 194.693326 
L 261.901386 195.716628 
L 265.456739 196.504174 
L 269.012092 197.053579 
L 272.567446 197.363177 
L 276.122799 197.432031 
L 279.678152 197.259933 
L 283.233505 196.847403 
L 286.788859 196.195692 
L 290.344212 195.306773 
L 293.899565 194.18334 
L 297.454919 192.828796 
L 301.010272 191.247244 
L 304.565625 189.443476 
L 308.628886 187.116964 
L 312.692147 184.516573 
L 316.755408 181.652592 
L 320.818669 178.536352 
L 325.389837 174.744442 
L 329.961006 170.667883 
L 335.040082 165.829397 
L 340.119158 160.694627 
L 345.706142 154.742103 
L 351.801033 147.935768 
L 358.91174 139.661561 
L 368.054077 128.650406 
L 397.512718 92.837226 
L 404.623425 84.694197 
L 410.718316 78.030791 
L 416.3053 72.232877 
L 421.384376 67.257249 
L 426.463452 62.594589 
L 431.034621 58.689646 
L 435.605789 55.081129 
L 439.66905 52.137052 
L 443.732311 49.453135 
L 447.795572 47.039995 
L 451.858833 44.907181 
L 455.414186 43.277585 
L 458.969539 41.874027 
L 462.524892 40.70076 
L 466.080246 39.761337 
L 469.635599 39.058605 
L 473.190952 38.594692 
L 476.746306 38.371004 
L 478.270028 38.34887 
L 478.270028 38.34887 
" clip-path="url(#p5fe28e61fc)" style="fill: none; stroke: #2ca02c; stroke-width: 1.5; stroke-linecap: square"/>
   </g>
   <g id="line2d_24">
    <path d="M 72.451847 38.34887 
L 74.991385 38.471811 
L 77.530923 38.84023 
L 80.070461 39.452917 
L 82.609999 40.307861 
L 85.149537 41.402254 
L 87.689075 42.732505 
L 90.228613 44.294248 
L 92.768151 46.08236 
L 95.815597 48.518596 
L 98.863042 51.260828 
L 101.910488 54.296124 
L 105.465841 58.188553 
L 109.021195 62.435422 
L 112.576548 67.009556 
L 116.639809 72.60029 
L 121.210977 79.296993 
L 126.290053 87.160476 
L 132.384945 97.044639 
L 141.019374 111.541905 
L 154.224972 133.716369 
L 160.319863 143.500078 
L 165.39894 151.254269 
L 169.970108 157.838356 
L 174.033369 163.322459 
L 178.09663 168.416049 
L 181.651983 172.522462 
L 185.207336 176.277491 
L 188.254782 179.200754 
L 191.302228 181.839299 
L 194.349673 184.183207 
L 197.397119 186.224094 
L 200.444565 187.955152 
L 202.984103 189.157223 
L 205.523641 190.138348 
L 208.063179 190.897175 
L 210.602717 191.433149 
L 213.142255 191.746514 
L 215.681793 191.838312 
L 218.221331 191.710375 
L 220.760869 191.365324 
L 223.300407 190.806551 
L 225.839945 190.038214 
L 228.379483 189.065217 
L 231.426929 187.635451 
L 234.474375 185.930204 
L 237.52182 183.961965 
L 240.569266 181.744573 
L 244.124619 178.862944 
L 247.679973 175.688861 
L 251.743234 171.739343 
L 256.314402 166.939413 
L 261.393478 161.243109 
L 267.48837 154.037678 
L 277.646522 141.594767 
L 286.788859 130.534983 
L 292.375842 124.114269 
L 296.947011 119.166978 
L 301.010272 115.061477 
L 305.073533 111.279159 
L 308.628886 108.26888 
L 312.184239 105.566203 
L 315.231685 103.513311 
L 318.279131 101.718944 
L 321.326576 100.196049 
L 324.374022 98.956183 
L 326.91356 98.146498 
L 329.453098 97.545455 
L 331.992636 97.157363 
L 334.532174 96.985769 
L 337.071712 97.033448 
L 339.61125 97.302392 
L 342.150788 97.793799 
L 344.690327 98.508074 
L 347.229865 99.444822 
L 349.769403 100.60285 
L 352.308941 101.980171 
L 355.356386 103.91846 
L 358.403832 106.162215 
L 361.451278 108.703575 
L 364.498723 111.533127 
L 367.546169 114.639955 
L 371.101522 118.598458 
L 374.656876 122.895453 
L 378.720136 128.189315 
L 382.783397 133.853175 
L 387.354566 140.612846 
L 392.433642 148.52655 
L 398.528533 158.44895 
L 407.67087 173.829086 
L 419.352745 193.44564 
L 425.447637 203.259259 
L 430.526713 211.041087 
L 435.097881 217.647385 
L 439.161142 223.145066 
L 442.716496 227.628592 
L 446.271849 231.776871 
L 449.827202 235.563349 
L 452.874648 238.50248 
L 455.922093 241.14408 
L 458.969539 243.475691 
L 462.016985 245.486307 
L 464.556523 246.909721 
L 467.096061 248.098932 
L 469.635599 249.050037 
L 472.175137 249.759913 
L 474.714675 250.226229 
L 477.254213 250.447455 
L 478.270028 250.46713 
L 478.270028 250.46713 
" clip-path="url(#p5fe28e61fc)" style="fill: none; stroke: #d62728; stroke-width: 1.5; stroke-linecap: square"/>
   </g>
   <g id="line2d_25">
    <path d="M 72.451847 38.34887 
L 74.483477 38.480003 
L 76.515107 38.872934 
L 78.546738 39.526254 
L 80.578368 40.43762 
L 82.609999 41.603768 
L 84.641629 43.020518 
L 86.67326 44.6828 
L 89.212798 47.096785 
L 91.752336 49.871569 
L 94.291874 52.991665 
L 96.831412 56.439682 
L 99.878858 60.983007 
L 102.926303 65.934449 
L 106.481657 72.174039 
L 110.544917 79.832202 
L 115.116086 88.990241 
L 120.70307 100.733739 
L 139.495651 140.733103 
L 144.06682 149.673579 
L 148.130081 157.100125 
L 151.685434 163.118096 
L 154.73288 167.873533 
L 157.780325 172.222762 
L 160.827771 176.13713 
L 163.367309 179.048999 
L 165.906847 181.629622 
L 168.446385 183.869024 
L 170.985923 185.759374 
L 173.017554 187.016459 
L 175.049184 188.044606 
L 177.080815 188.842839 
L 179.112445 189.411092 
L 181.144076 189.750203 
L 183.175706 189.86191 
L 185.207336 189.748838 
L 187.238967 189.414489 
L 189.270597 188.863222 
L 191.302228 188.100237 
L 193.333858 187.131545 
L 195.873396 185.641839 
L 198.412934 183.856339 
L 200.952472 181.791733 
L 203.49201 179.466348 
L 206.539456 176.359693 
L 209.586902 172.94305 
L 213.142255 168.617878 
L 217.205516 163.309073 
L 222.284592 156.277027 
L 241.077174 129.802943 
L 245.140435 124.669543 
L 248.695788 120.525032 
L 251.743234 117.276374 
L 254.790679 114.342955 
L 257.838125 111.754377 
L 260.377663 109.879566 
L 262.917201 108.275488 
L 265.456739 106.953331 
L 267.996277 105.922305 
L 270.027908 105.311992 
L 272.059538 104.895356 
L 274.091168 104.67425 
L 276.122799 104.64966 
L 278.154429 104.821695 
L 280.18606 105.189589 
L 282.21769 105.751704 
L 284.249321 106.505537 
L 286.788859 107.712234 
L 289.328397 109.204777 
L 291.867935 110.972761 
L 294.407473 113.003846 
L 297.454919 115.768329 
L 300.502364 118.863279 
L 303.54981 122.257424 
L 307.105163 126.549372 
L 311.168424 131.819279 
L 316.2475 138.812868 
L 324.88193 151.196987 
L 331.992636 161.237659 
L 336.563805 167.323668 
L 340.627066 172.346206 
L 344.182419 176.359693 
L 347.229865 179.466348 
L 350.27731 182.226126 
L 352.816848 184.236325 
L 355.356386 185.963947 
L 357.895924 187.392644 
L 359.927555 188.310517 
L 361.959185 189.021105 
L 363.990816 189.518597 
L 366.022446 189.798002 
L 368.054077 189.855174 
L 370.085707 189.686828 
L 372.117338 189.290559 
L 374.148968 188.664854 
L 376.180598 187.809101 
L 378.212229 186.723593 
L 380.243859 185.409531 
L 382.27549 183.869024 
L 384.815028 181.629622 
L 387.354566 179.048999 
L 389.894104 176.13713 
L 392.433642 172.906072 
L 395.481088 168.627435 
L 398.528533 163.937547 
L 401.575979 158.868212 
L 405.131332 152.521745 
L 409.194593 144.774645 
L 413.765762 135.549999 
L 419.860653 122.671502 
L 436.113697 87.949013 
L 440.684865 78.847571 
L 444.748126 71.254472 
L 448.303479 65.082508 
L 451.350925 60.196421 
L 454.398371 55.724741 
L 456.937909 52.340829 
L 459.477447 49.288463 
L 462.016985 46.584663 
L 464.556523 44.244521 
L 466.588153 42.643099 
L 468.619784 41.288558 
L 470.651414 40.18575 
L 472.683045 39.338625 
L 474.714675 38.750219 
L 476.746306 38.422642 
L 478.270028 38.34887 
L 478.270028 38.34887 
" clip-path="url(#p5fe28e61fc)" style="fill: none; stroke: #9467bd; stroke-width: 1.5; stroke-linecap: square"/>
   </g>
   <g id="patch_3">
    <path d="M 52.160938 266.376 
L 52.160938 22.44 
" style="fill: none; stroke: #000000; stroke-width: 0.8; stroke-linejoin: miter; stroke-linecap: square"/>
   </g>
   <g id="patch_4">
    <path d="M 498.560937 266.376 
L 498.560937 22.44 
" style="fill: none; stroke: #000000; stroke-width: 0.8; stroke-linejoin: miter; stroke-linecap: square"/>
   </g>
   <g id="patch_5">
    <path d="M 52.160938 266.376 
L 498.560937 266.376 
" style="fill: none; stroke: #000000; stroke-width: 0.8; stroke-linejoin: miter; stroke-linecap: square"/>
   </g>
   <g id="patch_6">
    <path d="M 52.160938 22.44 
L 498.560937 22.44 
" style="fill: none; stroke: #000000; stroke-width: 0.8; stroke-linejoin: miter; stroke-linecap: square"/>
   </g>
   <g id="text_13">
    <!-- Soluciones polares axiales $\Theta_\ell(\theta)=P_\ell(\cos\theta)$ -->
    <g transform="translate(146.900937 16.44) scale(0.12 -0.12)">
     <defs>
      <path id="DejaVuSans-53" d="M 3425 4513 
L 3425 3897 
Q 3066 4069 2747 4153 
Q 2428 4238 2131 4238 
Q 1616 4238 1336 4038 
Q 1056 3838 1056 3469 
Q 1056 3159 1242 3001 
Q 1428 2844 1947 2747 
L 2328 2669 
Q 3034 2534 3370 2195 
Q 3706 1856 3706 1288 
Q 3706 609 3251 259 
Q 2797 -91 1919 -91 
Q 1588 -91 1214 -16 
Q 841 59 441 206 
L 441 856 
Q 825 641 1194 531 
Q 1563 422 1919 422 
Q 2459 422 2753 634 
Q 3047 847 3047 1241 
Q 3047 1584 2836 1778 
Q 2625 1972 2144 2069 
L 1759 2144 
Q 1053 2284 737 2584 
Q 422 2884 422 3419 
Q 422 4038 858 4394 
Q 1294 4750 2059 4750 
Q 2388 4750 2728 4690 
Q 3069 4631 3425 4513 
z
" transform="scale(0.015625)"/>
      <path id="DejaVuSans-6c" d="M 603 4863 
L 1178 4863 
L 1178 0 
L 603 0 
L 603 4863 
z
" transform="scale(0.015625)"/>
      <path id="DejaVuSans-75" d="M 544 1381 
L 544 3500 
L 1119 3500 
L 1119 1403 
Q 1119 906 1312 657 
Q 1506 409 1894 409 
Q 2359 409 2629 706 
Q 2900 1003 2900 1516 
L 2900 3500 
L 3475 3500 
L 3475 0 
L 2900 0 
L 2900 538 
Q 2691 219 2414 64 
Q 2138 -91 1772 -91 
Q 1169 -91 856 284 
Q 544 659 544 1381 
z
M 1991 3584 
L 1991 3584 
z
" transform="scale(0.015625)"/>
      <path id="DejaVuSans-69" d="M 603 3500 
L 1178 3500 
L 1178 0 
L 603 0 
L 603 3500 
z
M 603 4863 
L 1178 4863 
L 1178 4134 
L 603 4134 
L 603 4863 
z
" transform="scale(0.015625)"/>
      <path id="DejaVuSans-6e" d="M 3513 2113 
L 3513 0 
L 2938 0 
L 2938 2094 
Q 2938 2591 2744 2837 
Q 2550 3084 2163 3084 
Q 1697 3084 1428 2787 
Q 1159 2491 1159 1978 
L 1159 0 
L 581 0 
L 581 3500 
L 1159 3500 
L 1159 2956 
Q 1366 3272 1645 3428 
Q 1925 3584 2291 3584 
Q 2894 3584 3203 3211 
Q 3513 2838 3513 2113 
z
" transform="scale(0.015625)"/>
      <path id="DejaVuSans-65" d="M 3597 1894 
L 3597 1613 
L 953 1613 
Q 991 1019 1311 708 
Q 1631 397 2203 397 
Q 2534 397 2845 478 
Q 3156 559 3463 722 
L 3463 178 
Q 3153 47 2828 -22 
Q 2503 -91 2169 -91 
Q 1331 -91 842 396 
Q 353 884 353 1716 
Q 353 2575 817 3079 
Q 1281 3584 2069 3584 
Q 2775 3584 3186 3129 
Q 3597 2675 3597 1894 
z
M 3022 2063 
Q 3016 2534 2758 2815 
Q 2500 3097 2075 3097 
Q 1594 3097 1305 2825 
Q 1016 2553 972 2059 
L 3022 2063 
z
" transform="scale(0.015625)"/>
      <path id="DejaVuSans-20" transform="scale(0.015625)"/>
      <path id="DejaVuSans-70" d="M 1159 525 
L 1159 -1331 
L 581 -1331 
L 581 3500 
L 1159 3500 
L 1159 2969 
Q 1341 3281 1617 3432 
Q 1894 3584 2278 3584 
Q 2916 3584 3314 3078 
Q 3713 2572 3713 1747 
Q 3713 922 3314 415 
Q 2916 -91 2278 -91 
Q 1894 -91 1617 61 
Q 1341 213 1159 525 
z
M 3116 1747 
Q 3116 2381 2855 2742 
Q 2594 3103 2138 3103 
Q 1681 3103 1420 2742 
Q 1159 2381 1159 1747 
Q 1159 1113 1420 752 
Q 1681 391 2138 391 
Q 2594 391 2855 752 
Q 3116 1113 3116 1747 
z
" transform="scale(0.015625)"/>
      <path id="DejaVuSans-61" d="M 2194 1759 
Q 1497 1759 1228 1600 
Q 959 1441 959 1056 
Q 959 750 1161 570 
Q 1363 391 1709 391 
Q 2188 391 2477 730 
Q 2766 1069 2766 1631 
L 2766 1759 
L 2194 1759 
z
M 3341 1997 
L 3341 0 
L 2766 0 
L 2766 531 
Q 2569 213 2275 61 
Q 1981 -91 1556 -91 
Q 1019 -91 701 211 
Q 384 513 384 1019 
Q 384 1609 779 1909 
Q 1175 2209 1959 2209 
L 2766 2209 
L 2766 2266 
Q 2766 2663 2505 2880 
Q 2244 3097 1772 3097 
Q 1472 3097 1187 3025 
Q 903 2953 641 2809 
L 641 3341 
Q 956 3463 1253 3523 
Q 1550 3584 1831 3584 
Q 2591 3584 2966 3190 
Q 3341 2797 3341 1997 
z
" transform="scale(0.015625)"/>
      <path id="DejaVuSans-72" d="M 2631 2963 
Q 2534 3019 2420 3045 
Q 2306 3072 2169 3072 
Q 1681 3072 1420 2755 
Q 1159 2438 1159 1844 
L 1159 0 
L 581 0 
L 581 3500 
L 1159 3500 
L 1159 2956 
Q 1341 3275 1631 3429 
Q 1922 3584 2338 3584 
Q 2397 3584 2469 3576 
Q 2541 3569 2628 3553 
L 2631 2963 
z
" transform="scale(0.015625)"/>
      <path id="DejaVuSans-78" d="M 3513 3500 
L 2247 1797 
L 3578 0 
L 2900 0 
L 1881 1375 
L 863 0 
L 184 0 
L 1544 1831 
L 300 3500 
L 978 3500 
L 1906 2253 
L 2834 3500 
L 3513 3500 
z
" transform="scale(0.015625)"/>
      <path id="DejaVuSans-398" d="M 1416 2750 
L 3622 2750 
L 3622 2219 
L 1416 2219 
L 1416 2750 
z
M 2522 4238 
Q 1834 4238 1431 3725 
Q 1025 3213 1025 2328 
Q 1025 1447 1429 934 
Q 1834 422 2522 422 
Q 3209 422 3613 934 
Q 4013 1447 4013 2328 
Q 4013 3213 3613 3725 
Q 3209 4238 2522 4238 
z
M 2522 4750 
Q 3503 4750 4090 4092 
Q 4678 3434 4678 2328 
Q 4678 1225 4091 569 
Q 3503 -91 2522 -91 
Q 1538 -91 950 566 
Q 359 1222 359 2328 
Q 359 3434 950 4094 
Q 1538 4750 2522 4750 
z
" transform="scale(0.015625)"/>
      <path id="DejaVuSans-3d" d="M 678 2906 
L 4684 2906 
L 4684 2381 
L 678 2381 
L 678 2906 
z
M 678 1631 
L 4684 1631 
L 4684 1100 
L 678 1100 
L 678 1631 
z
" transform="scale(0.015625)"/>
     </defs>
     <use xlink:href="#DejaVuSans-53" transform="translate(0 0.234375)"/>
     <use xlink:href="#DejaVuSans-6f" transform="translate(63.476562 0.234375)"/>
     <use xlink:href="#DejaVuSans-6c" transform="translate(124.658203 0.234375)"/>
     <use xlink:href="#DejaVuSans-75" transform="translate(152.441406 0.234375)"/>
     <use xlink:href="#DejaVuSans-63" transform="translate(215.820312 0.234375)"/>
     <use xlink:href="#DejaVuSans-69" transform="translate(270.800781 0.234375)"/>
     <use xlink:href="#DejaVuSans-6f" transform="translate(298.583984 0.234375)"/>
     <use xlink:href="#DejaVuSans-6e" transform="translate(359.765625 0.234375)"/>
     <use xlink:href="#DejaVuSans-65" transform="translate(423.144531 0.234375)"/>
     <use xlink:href="#DejaVuSans-73" transform="translate(484.667969 0.234375)"/>
     <use xlink:href="#DejaVuSans-20" transform="translate(536.767578 0.234375)"/>
     <use xlink:href="#DejaVuSans-70" transform="translate(568.554688 0.234375)"/>
     <use xlink:href="#DejaVuSans-6f" transform="translate(632.03125 0.234375)"/>
     <use xlink:href="#DejaVuSans-6c" transform="translate(693.212891 0.234375)"/>
     <use xlink:href="#DejaVuSans-61" transform="translate(720.996094 0.234375)"/>
     <use xlink:href="#DejaVuSans-72" transform="translate(782.275391 0.234375)"/>
     <use xlink:href="#DejaVuSans-65" transform="translate(823.388672 0.234375)"/>
     <use xlink:href="#DejaVuSans-73" transform="translate(884.912109 0.234375)"/>
     <use xlink:href="#DejaVuSans-20" transform="translate(937.011719 0.234375)"/>
     <use xlink:href="#DejaVuSans-61" transform="translate(968.798828 0.234375)"/>
     <use xlink:href="#DejaVuSans-78" transform="translate(1030.078125 0.234375)"/>
     <use xlink:href="#DejaVuSans-69" transform="translate(1089.257812 0.234375)"/>
     <use xlink:href="#DejaVuSans-61" transform="translate(1117.041016 0.234375)"/>
     <use xlink:href="#DejaVuSans-6c" transform="translate(1178.320312 0.234375)"/>
     <use xlink:href="#DejaVuSans-65" transform="translate(1206.103516 0.234375)"/>
     <use xlink:href="#DejaVuSans-73" transform="translate(1267.626953 0.234375)"/>
     <use xlink:href="#DejaVuSans-20" transform="translate(1319.726562 0.234375)"/>
     <use xlink:href="#DejaVuSans-398" transform="translate(1351.513672 0.234375)"/>
     <use xlink:href="#DejaVuSans-Oblique-2113" transform="translate(1431.181641 -16.171875) scale(0.7)"/>
     <use xlink:href="#DejaVuSans-28" transform="translate(1462.832031 0.234375)"/>
     <use xlink:href="#DejaVuSans-Oblique-3b8" transform="translate(1501.845703 0.234375)"/>
     <use xlink:href="#DejaVuSans-29" transform="translate(1563.027344 0.234375)"/>
     <use xlink:href="#DejaVuSans-3d" transform="translate(1621.523438 0.234375)"/>
     <use xlink:href="#DejaVuSans-Oblique-50" transform="translate(1724.794922 0.234375)"/>
     <use xlink:href="#DejaVuSans-Oblique-2113" transform="translate(1785.097656 -16.171875) scale(0.7)"/>
     <use xlink:href="#DejaVuSans-28" transform="translate(1816.748047 0.234375)"/>
     <use xlink:href="#DejaVuSans-63" transform="translate(1855.761719 0.234375)"/>
     <use xlink:href="#DejaVuSans-6f" transform="translate(1910.742188 0.234375)"/>
     <use xlink:href="#DejaVuSans-73" transform="translate(1971.923828 0.234375)"/>
     <use xlink:href="#DejaVuSans-Oblique-3b8" transform="translate(2040.259114 0.234375)"/>
     <use xlink:href="#DejaVuSans-29" transform="translate(2101.440754 0.234375)"/>
    </g>
   </g>
   <g id="legend_1">
    <g id="patch_7">
     <path d="M 57.760938 262.376 
L 215.920937 262.376 
Q 217.520937 262.376 217.520937 260.776 
L 217.520937 226.3485 
Q 217.520937 224.7485 215.920937 224.7485 
L 57.760938 224.7485 
Q 56.160938 224.7485 56.160938 226.3485 
L 56.160938 260.776 
Q 56.160938 262.376 57.760938 262.376 
z
" style="fill: #ffffff; opacity: 0.8; stroke: #cccccc; stroke-linejoin: miter"/>
    </g>
    <g id="line2d_26">
     <path d="M 59.360938 231.22725 
L 67.360938 231.22725 
L 75.360938 231.22725 
" style="fill: none; stroke: #1f77b4; stroke-width: 1.5; stroke-linecap: square"/>
    </g>
    <g id="text_14">
     <!-- $\ell=0$, $Q=0$ -->
     <g transform="translate(81.760938 234.02725) scale(0.08 -0.08)">
      <defs>
       <path id="DejaVuSans-2c" d="M 750 794 
L 1409 794 
L 1409 256 
L 897 -744 
L 494 -744 
L 750 256 
L 750 794 
z
" transform="scale(0.015625)"/>
       <path id="DejaVuSans-Oblique-51" d="M 2309 -84 
Q 2275 -88 2237 -89 
Q 2200 -91 2125 -91 
Q 1250 -91 756 411 
Q 263 913 263 1797 
Q 263 2319 452 2844 
Q 641 3369 978 3788 
Q 1369 4269 1858 4509 
Q 2347 4750 2938 4750 
Q 3794 4750 4287 4245 
Q 4781 3741 4781 2869 
Q 4781 1928 4265 1147 
Q 3750 366 2919 44 
L 3553 -825 
L 2847 -825 
L 2309 -84 
z
M 2919 4238 
Q 2400 4238 2003 3986 
Q 1606 3734 1313 3219 
Q 1125 2891 1026 2522 
Q 928 2153 928 1778 
Q 928 1128 1239 775 
Q 1550 422 2119 422 
Q 2631 422 3032 676 
Q 3434 931 3719 1434 
Q 3909 1772 4009 2142 
Q 4109 2513 4109 2881 
Q 4109 3528 3796 3883 
Q 3484 4238 2919 4238 
z
" transform="scale(0.015625)"/>
      </defs>
      <use xlink:href="#DejaVuSans-Oblique-2113" transform="translate(0 0.78125)"/>
      <use xlink:href="#DejaVuSans-3d" transform="translate(60.791016 0.78125)"/>
      <use xlink:href="#DejaVuSans-30" transform="translate(164.0625 0.78125)"/>
      <use xlink:href="#DejaVuSans-2c" transform="translate(227.685547 0.78125)"/>
      <use xlink:href="#DejaVuSans-20" transform="translate(259.472656 0.78125)"/>
      <use xlink:href="#DejaVuSans-Oblique-51" transform="translate(291.259766 0.78125)"/>
      <use xlink:href="#DejaVuSans-3d" transform="translate(389.453125 0.78125)"/>
      <use xlink:href="#DejaVuSans-30" transform="translate(492.724609 0.78125)"/>
     </g>
    </g>
    <g id="line2d_27">
     <path d="M 59.360938 242.96975 
L 67.360938 242.96975 
L 75.360938 242.96975 
" style="fill: none; stroke: #ff7f0e; stroke-width: 1.5; stroke-linecap: square"/>
    </g>
    <g id="text_15">
     <!-- $\ell=1$, $Q=2$ -->
     <g transform="translate(81.760938 245.76975) scale(0.08 -0.08)">
      <use xlink:href="#DejaVuSans-Oblique-2113" transform="translate(0 0.78125)"/>
      <use xlink:href="#DejaVuSans-3d" transform="translate(60.791016 0.78125)"/>
      <use xlink:href="#DejaVuSans-31" transform="translate(164.0625 0.78125)"/>
      <use xlink:href="#DejaVuSans-2c" transform="translate(227.685547 0.78125)"/>
      <use xlink:href="#DejaVuSans-20" transform="translate(259.472656 0.78125)"/>
      <use xlink:href="#DejaVuSans-Oblique-51" transform="translate(291.259766 0.78125)"/>
      <use xlink:href="#DejaVuSans-3d" transform="translate(389.453125 0.78125)"/>
      <use xlink:href="#DejaVuSans-32" transform="translate(492.724609 0.78125)"/>
     </g>
    </g>
    <g id="line2d_28">
     <path d="M 59.360938 254.71225 
L 67.360938 254.71225 
L 75.360938 254.71225 
" style="fill: none; stroke: #2ca02c; stroke-width: 1.5; stroke-linecap: square"/>
    </g>
    <g id="text_16">
     <!-- $\ell=2$, $Q=6$ -->
     <g transform="translate(81.760938 257.51225) scale(0.08 -0.08)">
      <defs>
       <path id="DejaVuSans-36" d="M 2113 2584 
Q 1688 2584 1439 2293 
Q 1191 2003 1191 1497 
Q 1191 994 1439 701 
Q 1688 409 2113 409 
Q 2538 409 2786 701 
Q 3034 994 3034 1497 
Q 3034 2003 2786 2293 
Q 2538 2584 2113 2584 
z
M 3366 4563 
L 3366 3988 
Q 3128 4100 2886 4159 
Q 2644 4219 2406 4219 
Q 1781 4219 1451 3797 
Q 1122 3375 1075 2522 
Q 1259 2794 1537 2939 
Q 1816 3084 2150 3084 
Q 2853 3084 3261 2657 
Q 3669 2231 3669 1497 
Q 3669 778 3244 343 
Q 2819 -91 2113 -91 
Q 1303 -91 875 529 
Q 447 1150 447 2328 
Q 447 3434 972 4092 
Q 1497 4750 2381 4750 
Q 2619 4750 2861 4703 
Q 3103 4656 3366 4563 
z
" transform="scale(0.015625)"/>
      </defs>
      <use xlink:href="#DejaVuSans-Oblique-2113" transform="translate(0 0.78125)"/>
      <use xlink:href="#DejaVuSans-3d" transform="translate(60.791016 0.78125)"/>
      <use xlink:href="#DejaVuSans-32" transform="translate(164.0625 0.78125)"/>
      <use xlink:href="#DejaVuSans-2c" transform="translate(227.685547 0.78125)"/>
      <use xlink:href="#DejaVuSans-20" transform="translate(259.472656 0.78125)"/>
      <use xlink:href="#DejaVuSans-Oblique-51" transform="translate(291.259766 0.78125)"/>
      <use xlink:href="#DejaVuSans-3d" transform="translate(389.453125 0.78125)"/>
      <use xlink:href="#DejaVuSans-36" transform="translate(492.724609 0.78125)"/>
     </g>
    </g>
    <g id="line2d_29">
     <path d="M 142.320938 231.22725 
L 150.320938 231.22725 
L 158.320938 231.22725 
" style="fill: none; stroke: #d62728; stroke-width: 1.5; stroke-linecap: square"/>
    </g>
    <g id="text_17">
     <!-- $\ell=3$, $Q=12$ -->
     <g transform="translate(164.720938 234.02725) scale(0.08 -0.08)">
      <defs>
       <path id="DejaVuSans-33" d="M 2597 2516 
Q 3050 2419 3304 2112 
Q 3559 1806 3559 1356 
Q 3559 666 3084 287 
Q 2609 -91 1734 -91 
Q 1441 -91 1130 -33 
Q 819 25 488 141 
L 488 750 
Q 750 597 1062 519 
Q 1375 441 1716 441 
Q 2309 441 2620 675 
Q 2931 909 2931 1356 
Q 2931 1769 2642 2001 
Q 2353 2234 1838 2234 
L 1294 2234 
L 1294 2753 
L 1863 2753 
Q 2328 2753 2575 2939 
Q 2822 3125 2822 3475 
Q 2822 3834 2567 4026 
Q 2313 4219 1838 4219 
Q 1578 4219 1281 4162 
Q 984 4106 628 3988 
L 628 4550 
Q 988 4650 1302 4700 
Q 1616 4750 1894 4750 
Q 2613 4750 3031 4423 
Q 3450 4097 3450 3541 
Q 3450 3153 3228 2886 
Q 3006 2619 2597 2516 
z
" transform="scale(0.015625)"/>
      </defs>
      <use xlink:href="#DejaVuSans-Oblique-2113" transform="translate(0 0.78125)"/>
      <use xlink:href="#DejaVuSans-3d" transform="translate(60.791016 0.78125)"/>
      <use xlink:href="#DejaVuSans-33" transform="translate(164.0625 0.78125)"/>
      <use xlink:href="#DejaVuSans-2c" transform="translate(227.685547 0.78125)"/>
      <use xlink:href="#DejaVuSans-20" transform="translate(259.472656 0.78125)"/>
      <use xlink:href="#DejaVuSans-Oblique-51" transform="translate(291.259766 0.78125)"/>
      <use xlink:href="#DejaVuSans-3d" transform="translate(389.453125 0.78125)"/>
      <use xlink:href="#DejaVuSans-31" transform="translate(492.724609 0.78125)"/>
      <use xlink:href="#DejaVuSans-32" transform="translate(556.347656 0.78125)"/>
     </g>
    </g>
    <g id="line2d_30">
     <path d="M 142.320938 242.96975 
L 150.320938 242.96975 
L 158.320938 242.96975 
" style="fill: none; stroke: #9467bd; stroke-width: 1.5; stroke-linecap: square"/>
    </g>
    <g id="text_18">
     <!-- $\ell=4$, $Q=20$ -->
     <g transform="translate(164.720938 245.76975) scale(0.08 -0.08)">
      <defs>
       <path id="DejaVuSans-34" d="M 2419 4116 
L 825 1625 
L 2419 1625 
L 2419 4116 
z
M 2253 4666 
L 3047 4666 
L 3047 1625 
L 3713 1625 
L 3713 1100 
L 3047 1100 
L 3047 0 
L 2419 0 
L 2419 1100 
L 313 1100 
L 313 1709 
L 2253 4666 
z
" transform="scale(0.015625)"/>
      </defs>
      <use xlink:href="#DejaVuSans-Oblique-2113" transform="translate(0 0.78125)"/>
      <use xlink:href="#DejaVuSans-3d" transform="translate(60.791016 0.78125)"/>
      <use xlink:href="#DejaVuSans-34" transform="translate(164.0625 0.78125)"/>
      <use xlink:href="#DejaVuSans-2c" transform="translate(227.685547 0.78125)"/>
      <use xlink:href="#DejaVuSans-20" transform="translate(259.472656 0.78125)"/>
      <use xlink:href="#DejaVuSans-Oblique-51" transform="translate(291.259766 0.78125)"/>
      <use xlink:href="#DejaVuSans-3d" transform="translate(389.453125 0.78125)"/>
      <use xlink:href="#DejaVuSans-32" transform="translate(492.724609 0.78125)"/>
      <use xlink:href="#DejaVuSans-30" transform="translate(556.347656 0.78125)"/>
     </g>
    </g>
   </g>
  </g>
 </g>
 <defs>
  <clipPath id="p5fe28e61fc">
   <rect x="52.160938" y="22.44" width="446.4" height="243.936"/>
  </clipPath>
 </defs>
</svg>
