<?xml version="1.0" encoding="utf-8" standalone="no"?>
<!DOCTYPE svg PUBLIC "-//W3C//DTD SVG 1.1//EN"
  "http://www.w3.org/Graphics/SVG/1.1/DTD/svg11.dtd">
<svg xmlns:xlink="http://www.w3.org/1999/xlink" width="505.782812pt" height="305.754125pt" viewBox="0 0 505.782812 305.754125" xmlns="http://www.w3.org/2000/svg" version="1.1">
 <metadata>
  <rdf:RDF xmlns:dc="http://purl.org/dc/elements/1.1/" xmlns:cc="http://creativecommons.org/ns#" xmlns:rdf="http://www.w3.org/1999/02/22-rdf-syntax-ns#">
   <cc:Work>
    <dc:type rdf:resource="http://purl.org/dc/dcmitype/StillImage"/>
    <dc:date>2026-06-14T05:43:12.686097</dc:date>
    <dc:format>image/svg+xml</dc:format>
    <dc:creator>
     <cc:Agent>
      <dc:title>Matplotlib v3.10.8, https://matplotlib.org/</dc:title>
     </cc:Agent>
    </dc:creator>
   </cc:Work>
  </rdf:RDF>
 </metadata>
 <defs>
  <style type="text/css">*{stroke-linejoin: round; stroke-linecap: butt}</style>
 </defs>
 <g id="figure_1">
  <g id="patch_1">
   <path d="M 0 305.754125 
L 505.782812 305.754125 
L 505.782812 0 
L 0 0 
z
" style="fill: #ffffff"/>
  </g>
  <g id="axes_1">
   <g id="patch_2">
    <path d="M 52.182813 268.176 
L 498.582812 268.176 
L 498.582812 24.24 
L 52.182813 24.24 
z
" style="fill: #ffffff"/>
   </g>
   <g id="matplotlib.axis_1">
    <g id="xtick_1">
     <g id="line2d_1">
      <path d="M 72.473722 268.176 
L 72.473722 24.24 
" clip-path="url(#p76aa013482)" style="fill: none; stroke: #b0b0b0; stroke-opacity: 0.25; stroke-width: 0.8; stroke-linecap: square"/>
     </g>
     <g id="line2d_2">
      <defs>
       <path id="m858a7eb63d" d="M 0 0 
L 0 3.5 
" style="stroke: #000000; stroke-width: 0.8"/>
      </defs>
      <g>
       <use xlink:href="#m858a7eb63d" x="72.473722" y="268.176" style="stroke: #000000; stroke-width: 0.8"/>
      </g>
     </g>
     <g id="text_1">
      <!-- 0.0 -->
      <g transform="translate(64.522159 282.774437) scale(0.1 -0.1)">
       <defs>
        <path id="DejaVuSans-30" d="M 2034 4250 
Q 1547 4250 1301 3770 
Q 1056 3291 1056 2328 
Q 1056 1369 1301 889 
Q 1547 409 2034 409 
Q 2525 409 2770 889 
Q 3016 1369 3016 2328 
Q 3016 3291 2770 3770 
Q 2525 4250 2034 4250 
z
M 2034 4750 
Q 2819 4750 3233 4129 
Q 3647 3509 3647 2328 
Q 3647 1150 3233 529 
Q 2819 -91 2034 -91 
Q 1250 -91 836 529 
Q 422 1150 422 2328 
Q 422 3509 836 4129 
Q 1250 4750 2034 4750 
z
" transform="scale(0.015625)"/>
        <path id="DejaVuSans-2e" d="M 684 794 
L 1344 794 
L 1344 0 
L 684 0 
L 684 794 
z
" transform="scale(0.015625)"/>
       </defs>
       <use xlink:href="#DejaVuSans-30"/>
       <use xlink:href="#DejaVuSans-2e" transform="translate(63.623047 0)"/>
       <use xlink:href="#DejaVuSans-30" transform="translate(95.410156 0)"/>
      </g>
     </g>
    </g>
    <g id="xtick_2">
     <g id="line2d_3">
      <path d="M 173.928267 268.176 
L 173.928267 24.24 
" clip-path="url(#p76aa013482)" style="fill: none; stroke: #b0b0b0; stroke-opacity: 0.25; stroke-width: 0.8; stroke-linecap: square"/>
     </g>
     <g id="line2d_4">
      <g>
       <use xlink:href="#m858a7eb63d" x="173.928267" y="268.176" style="stroke: #000000; stroke-width: 0.8"/>
      </g>
     </g>
     <g id="text_2">
      <!-- 0.5 -->
      <g transform="translate(165.976705 282.774437) scale(0.1 -0.1)">
       <defs>
        <path id="DejaVuSans-35" d="M 691 4666 
L 3169 4666 
L 3169 4134 
L 1269 4134 
L 1269 2991 
Q 1406 3038 1543 3061 
Q 1681 3084 1819 3084 
Q 2600 3084 3056 2656 
Q 3513 2228 3513 1497 
Q 3513 744 3044 326 
Q 2575 -91 1722 -91 
Q 1428 -91 1123 -41 
Q 819 9 494 109 
L 494 744 
Q 775 591 1075 516 
Q 1375 441 1709 441 
Q 2250 441 2565 725 
Q 2881 1009 2881 1497 
Q 2881 1984 2565 2268 
Q 2250 2553 1709 2553 
Q 1456 2553 1204 2497 
Q 953 2441 691 2322 
L 691 4666 
z
" transform="scale(0.015625)"/>
       </defs>
       <use xlink:href="#DejaVuSans-30"/>
       <use xlink:href="#DejaVuSans-2e" transform="translate(63.623047 0)"/>
       <use xlink:href="#DejaVuSans-35" transform="translate(95.410156 0)"/>
      </g>
     </g>
    </g>
    <g id="xtick_3">
     <g id="line2d_5">
      <path d="M 275.382812 268.176 
L 275.382812 24.24 
" clip-path="url(#p76aa013482)" style="fill: none; stroke: #b0b0b0; stroke-opacity: 0.25; stroke-width: 0.8; stroke-linecap: square"/>
     </g>
     <g id="line2d_6">
      <g>
       <use xlink:href="#m858a7eb63d" x="275.382812" y="268.176" style="stroke: #000000; stroke-width: 0.8"/>
      </g>
     </g>
     <g id="text_3">
      <!-- 1.0 -->
      <g transform="translate(267.43125 282.774437) scale(0.1 -0.1)">
       <defs>
        <path id="DejaVuSans-31" d="M 794 531 
L 1825 531 
L 1825 4091 
L 703 3866 
L 703 4441 
L 1819 4666 
L 2450 4666 
L 2450 531 
L 3481 531 
L 3481 0 
L 794 0 
L 794 531 
z
" transform="scale(0.015625)"/>
       </defs>
       <use xlink:href="#DejaVuSans-31"/>
       <use xlink:href="#DejaVuSans-2e" transform="translate(63.623047 0)"/>
       <use xlink:href="#DejaVuSans-30" transform="translate(95.410156 0)"/>
      </g>
     </g>
    </g>
    <g id="xtick_4">
     <g id="line2d_7">
      <path d="M 376.837358 268.176 
L 376.837358 24.24 
" clip-path="url(#p76aa013482)" style="fill: none; stroke: #b0b0b0; stroke-opacity: 0.25; stroke-width: 0.8; stroke-linecap: square"/>
     </g>
     <g id="line2d_8">
      <g>
       <use xlink:href="#m858a7eb63d" x="376.837358" y="268.176" style="stroke: #000000; stroke-width: 0.8"/>
      </g>
     </g>
     <g id="text_4">
      <!-- 1.5 -->
      <g transform="translate(368.885795 282.774437) scale(0.1 -0.1)">
       <use xlink:href="#DejaVuSans-31"/>
       <use xlink:href="#DejaVuSans-2e" transform="translate(63.623047 0)"/>
       <use xlink:href="#DejaVuSans-35" transform="translate(95.410156 0)"/>
      </g>
     </g>
    </g>
    <g id="xtick_5">
     <g id="line2d_9">
      <path d="M 478.291903 268.176 
L 478.291903 24.24 
" clip-path="url(#p76aa013482)" style="fill: none; stroke: #b0b0b0; stroke-opacity: 0.25; stroke-width: 0.8; stroke-linecap: square"/>
     </g>
     <g id="line2d_10">
      <g>
       <use xlink:href="#m858a7eb63d" x="478.291903" y="268.176" style="stroke: #000000; stroke-width: 0.8"/>
      </g>
     </g>
     <g id="text_5">
      <!-- 2.0 -->
      <g transform="translate(470.340341 282.774437) scale(0.1 -0.1)">
       <defs>
        <path id="DejaVuSans-32" d="M 1228 531 
L 3431 531 
L 3431 0 
L 469 0 
L 469 531 
Q 828 903 1448 1529 
Q 2069 2156 2228 2338 
Q 2531 2678 2651 2914 
Q 2772 3150 2772 3378 
Q 2772 3750 2511 3984 
Q 2250 4219 1831 4219 
Q 1534 4219 1204 4116 
Q 875 4013 500 3803 
L 500 4441 
Q 881 4594 1212 4672 
Q 1544 4750 1819 4750 
Q 2544 4750 2975 4387 
Q 3406 4025 3406 3419 
Q 3406 3131 3298 2873 
Q 3191 2616 2906 2266 
Q 2828 2175 2409 1742 
Q 1991 1309 1228 531 
z
" transform="scale(0.015625)"/>
       </defs>
       <use xlink:href="#DejaVuSans-32"/>
       <use xlink:href="#DejaVuSans-2e" transform="translate(63.623047 0)"/>
       <use xlink:href="#DejaVuSans-30" transform="translate(95.410156 0)"/>
      </g>
     </g>
    </g>
    <g id="text_6">
     <!-- $\phi/\pi$ -->
     <g transform="translate(267.382812 296.454125) scale(0.1 -0.1)">
      <defs>
       <path id="DejaVuSans-Oblique-3d5" d="M 2991 4863 
L 2738 3572 
Q 3363 3572 3684 3094 
Q 4016 2606 3850 1747 
Q 3681 888 3159 400 
Q 2653 -78 2028 -78 
L 1784 -1331 
L 1213 -1331 
L 1456 -78 
Q 834 -78 509 400 
Q 178 888 347 1747 
Q 513 2606 1034 3094 
Q 1544 3572 2166 3572 
L 2419 4863 
L 2991 4863 
z
M 2128 434 
Q 2481 434 2784 756 
Q 3116 1116 3244 1747 
Q 3369 2372 3169 2738 
Q 2991 3059 2638 3059 
L 2128 434 
z
M 1556 434 
L 2066 3059 
Q 1716 3059 1413 2738 
Q 1072 2372 953 1747 
Q 834 1116 1028 756 
Q 1203 434 1556 434 
z
" transform="scale(0.015625)"/>
       <path id="DejaVuSans-2f" d="M 1625 4666 
L 2156 4666 
L 531 -594 
L 0 -594 
L 1625 4666 
z
" transform="scale(0.015625)"/>
       <path id="DejaVuSans-Oblique-3c0" d="M 584 3500 
L 3938 3500 
L 3825 2925 
L 3384 2925 
L 2966 775 
Q 2922 550 2981 450 
Q 3038 353 3209 353 
Q 3256 353 3325 363 
Q 3397 369 3419 372 
L 3338 -44 
Q 3222 -84 3103 -103 
Q 2981 -122 2866 -122 
Q 2491 -122 2388 81 
Q 2284 288 2391 838 
L 2797 2925 
L 1506 2925 
L 938 0 
L 350 0 
L 919 2925 
L 472 2925 
L 584 3500 
z
" transform="scale(0.015625)"/>
      </defs>
      <use xlink:href="#DejaVuSans-Oblique-3d5" transform="translate(0 0.015625)"/>
      <use xlink:href="#DejaVuSans-2f" transform="translate(65.966797 0.015625)"/>
      <use xlink:href="#DejaVuSans-Oblique-3c0" transform="translate(99.658203 0.015625)"/>
     </g>
    </g>
   </g>
   <g id="matplotlib.axis_2">
    <g id="ytick_1">
     <g id="line2d_11">
      <path d="M 52.182813 252.26713 
L 498.582812 252.26713 
" clip-path="url(#p76aa013482)" style="fill: none; stroke: #b0b0b0; stroke-opacity: 0.25; stroke-width: 0.8; stroke-linecap: square"/>
     </g>
     <g id="line2d_12">
      <defs>
       <path id="ma299a5a693" d="M 0 0 
L -3.5 0 
" style="stroke: #000000; stroke-width: 0.8"/>
      </defs>
      <g>
       <use xlink:href="#ma299a5a693" x="52.182813" y="252.26713" style="stroke: #000000; stroke-width: 0.8"/>
      </g>
     </g>
     <g id="text_7">
      <!-- −1.0 -->
      <g transform="translate(20.9 256.066349) scale(0.1 -0.1)">
       <defs>
        <path id="DejaVuSans-2212" d="M 678 2272 
L 4684 2272 
L 4684 1741 
L 678 1741 
L 678 2272 
z
" transform="scale(0.015625)"/>
       </defs>
       <use xlink:href="#DejaVuSans-2212"/>
       <use xlink:href="#DejaVuSans-31" transform="translate(83.789062 0)"/>
       <use xlink:href="#DejaVuSans-2e" transform="translate(147.412109 0)"/>
       <use xlink:href="#DejaVuSans-30" transform="translate(179.199219 0)"/>
      </g>
     </g>
    </g>
    <g id="ytick_2">
     <g id="line2d_13">
      <path d="M 52.182813 199.237565 
L 498.582812 199.237565 
" clip-path="url(#p76aa013482)" style="fill: none; stroke: #b0b0b0; stroke-opacity: 0.25; stroke-width: 0.8; stroke-linecap: square"/>
     </g>
     <g id="line2d_14">
      <g>
       <use xlink:href="#ma299a5a693" x="52.182813" y="199.237565" style="stroke: #000000; stroke-width: 0.8"/>
      </g>
     </g>
     <g id="text_8">
      <!-- −0.5 -->
      <g transform="translate(20.9 203.036784) scale(0.1 -0.1)">
       <use xlink:href="#DejaVuSans-2212"/>
       <use xlink:href="#DejaVuSans-30" transform="translate(83.789062 0)"/>
       <use xlink:href="#DejaVuSans-2e" transform="translate(147.412109 0)"/>
       <use xlink:href="#DejaVuSans-35" transform="translate(179.199219 0)"/>
      </g>
     </g>
    </g>
    <g id="ytick_3">
     <g id="line2d_15">
      <path d="M 52.182813 146.208 
L 498.582812 146.208 
" clip-path="url(#p76aa013482)" style="fill: none; stroke: #b0b0b0; stroke-opacity: 0.25; stroke-width: 0.8; stroke-linecap: square"/>
     </g>
     <g id="line2d_16">
      <g>
       <use xlink:href="#ma299a5a693" x="52.182813" y="146.208" style="stroke: #000000; stroke-width: 0.8"/>
      </g>
     </g>
     <g id="text_9">
      <!-- 0.0 -->
      <g transform="translate(29.279688 150.007219) scale(0.1 -0.1)">
       <use xlink:href="#DejaVuSans-30"/>
       <use xlink:href="#DejaVuSans-2e" transform="translate(63.623047 0)"/>
       <use xlink:href="#DejaVuSans-30" transform="translate(95.410156 0)"/>
      </g>
     </g>
    </g>
    <g id="ytick_4">
     <g id="line2d_17">
      <path d="M 52.182813 93.178435 
L 498.582812 93.178435 
" clip-path="url(#p76aa013482)" style="fill: none; stroke: #b0b0b0; stroke-opacity: 0.25; stroke-width: 0.8; stroke-linecap: square"/>
     </g>
     <g id="line2d_18">
      <g>
       <use xlink:href="#ma299a5a693" x="52.182813" y="93.178435" style="stroke: #000000; stroke-width: 0.8"/>
      </g>
     </g>
     <g id="text_10">
      <!-- 0.5 -->
      <g transform="translate(29.279688 96.977654) scale(0.1 -0.1)">
       <use xlink:href="#DejaVuSans-30"/>
       <use xlink:href="#DejaVuSans-2e" transform="translate(63.623047 0)"/>
       <use xlink:href="#DejaVuSans-35" transform="translate(95.410156 0)"/>
      </g>
     </g>
    </g>
    <g id="ytick_5">
     <g id="line2d_19">
      <path d="M 52.182813 40.14887 
L 498.582812 40.14887 
" clip-path="url(#p76aa013482)" style="fill: none; stroke: #b0b0b0; stroke-opacity: 0.25; stroke-width: 0.8; stroke-linecap: square"/>
     </g>
     <g id="line2d_20">
      <g>
       <use xlink:href="#ma299a5a693" x="52.182813" y="40.14887" style="stroke: #000000; stroke-width: 0.8"/>
      </g>
     </g>
     <g id="text_11">
      <!-- 1.0 -->
      <g transform="translate(29.279688 43.948088) scale(0.1 -0.1)">
       <use xlink:href="#DejaVuSans-31"/>
       <use xlink:href="#DejaVuSans-2e" transform="translate(63.623047 0)"/>
       <use xlink:href="#DejaVuSans-30" transform="translate(95.410156 0)"/>
      </g>
     </g>
    </g>
    <g id="text_12">
     <!-- $\mathrm{Re}\,\Phi_m(\phi)$ -->
     <g transform="translate(14.8 168.308) rotate(-90) scale(0.1 -0.1)">
      <defs>
       <path id="DejaVuSans-52" d="M 2841 2188 
Q 3044 2119 3236 1894 
Q 3428 1669 3622 1275 
L 4263 0 
L 3584 0 
L 2988 1197 
Q 2756 1666 2539 1819 
Q 2322 1972 1947 1972 
L 1259 1972 
L 1259 0 
L 628 0 
L 628 4666 
L 2053 4666 
Q 2853 4666 3247 4331 
Q 3641 3997 3641 3322 
Q 3641 2881 3436 2590 
Q 3231 2300 2841 2188 
z
M 1259 4147 
L 1259 2491 
L 2053 2491 
Q 2509 2491 2742 2702 
Q 2975 2913 2975 3322 
Q 2975 3731 2742 3939 
Q 2509 4147 2053 4147 
L 1259 4147 
z
" transform="scale(0.015625)"/>
       <path id="DejaVuSans-65" d="M 3597 1894 
L 3597 1613 
L 953 1613 
Q 991 1019 1311 708 
Q 1631 397 2203 397 
Q 2534 397 2845 478 
Q 3156 559 3463 722 
L 3463 178 
Q 3153 47 2828 -22 
Q 2503 -91 2169 -91 
Q 1331 -91 842 396 
Q 353 884 353 1716 
Q 353 2575 817 3079 
Q 1281 3584 2069 3584 
Q 2775 3584 3186 3129 
Q 3597 2675 3597 1894 
z
M 3022 2063 
Q 3016 2534 2758 2815 
Q 2500 3097 2075 3097 
Q 1594 3097 1305 2825 
Q 1016 2553 972 2059 
L 3022 2063 
z
" transform="scale(0.015625)"/>
       <path id="DejaVuSans-3a6" d="M 2206 3644 
Q 1738 3578 1431 3306 
Q 1025 2947 1025 2328 
Q 1025 1713 1431 1353 
Q 1738 1081 2206 1016 
L 2206 3644 
z
M 2838 1016 
Q 3306 1081 3613 1353 
Q 4013 1713 4013 2328 
Q 4013 2947 3613 3306 
Q 3306 3578 2838 3644 
L 2838 1016 
z
M 2206 494 
Q 1444 563 950 981 
Q 359 1481 359 2328 
Q 359 3175 950 3678 
Q 1441 4100 2206 4169 
L 2206 4666 
L 2838 4666 
L 2838 4169 
Q 3600 4097 4091 3678 
Q 4678 3175 4678 2328 
Q 4678 1484 4091 981 
Q 3600 563 2838 491 
L 2838 0 
L 2206 0 
L 2206 494 
z
" transform="scale(0.015625)"/>
       <path id="DejaVuSans-Oblique-6d" d="M 5747 2113 
L 5338 0 
L 4763 0 
L 5166 2094 
Q 5191 2228 5203 2325 
Q 5216 2422 5216 2491 
Q 5216 2772 5059 2928 
Q 4903 3084 4622 3084 
Q 4203 3084 3875 2770 
Q 3547 2456 3450 1953 
L 3066 0 
L 2491 0 
L 2900 2094 
Q 2925 2209 2937 2307 
Q 2950 2406 2950 2484 
Q 2950 2769 2794 2926 
Q 2638 3084 2363 3084 
Q 1938 3084 1609 2770 
Q 1281 2456 1184 1953 
L 800 0 
L 225 0 
L 909 3500 
L 1484 3500 
L 1375 2956 
Q 1609 3263 1923 3423 
Q 2238 3584 2597 3584 
Q 2978 3584 3223 3384 
Q 3469 3184 3519 2828 
Q 3781 3197 4126 3390 
Q 4472 3584 4856 3584 
Q 5306 3584 5551 3325 
Q 5797 3066 5797 2591 
Q 5797 2488 5784 2364 
Q 5772 2241 5747 2113 
z
" transform="scale(0.015625)"/>
       <path id="DejaVuSans-28" d="M 1984 4856 
Q 1566 4138 1362 3434 
Q 1159 2731 1159 2009 
Q 1159 1288 1364 580 
Q 1569 -128 1984 -844 
L 1484 -844 
Q 1016 -109 783 600 
Q 550 1309 550 2009 
Q 550 2706 781 3412 
Q 1013 4119 1484 4856 
L 1984 4856 
z
" transform="scale(0.015625)"/>
       <path id="DejaVuSans-29" d="M 513 4856 
L 1013 4856 
Q 1481 4119 1714 3412 
Q 1947 2706 1947 2009 
Q 1947 1309 1714 600 
Q 1481 -109 1013 -844 
L 513 -844 
Q 928 -128 1133 580 
Q 1338 1288 1338 2009 
Q 1338 2731 1133 3434 
Q 928 4138 513 4856 
z
" transform="scale(0.015625)"/>
      </defs>
      <use xlink:href="#DejaVuSans-52" transform="translate(0 0.015625)"/>
      <use xlink:href="#DejaVuSans-65" transform="translate(69.482422 0.015625)"/>
      <use xlink:href="#DejaVuSans-3a6" transform="translate(147.241536 0.015625)"/>
      <use xlink:href="#DejaVuSans-Oblique-6d" transform="translate(226.909504 -16.390625) scale(0.7)"/>
      <use xlink:href="#DejaVuSans-28" transform="translate(297.832356 0.015625)"/>
      <use xlink:href="#DejaVuSans-Oblique-3d5" transform="translate(336.846028 0.015625)"/>
      <use xlink:href="#DejaVuSans-29" transform="translate(402.812825 0.015625)"/>
     </g>
    </g>
   </g>
   <g id="line2d_21">
    <path d="M 72.473722 40.14887 
L 478.291903 40.14887 
L 478.291903 40.14887 
" clip-path="url(#p76aa013482)" style="fill: none; stroke: #1f77b4; stroke-width: 1.5; stroke-linecap: square"/>
   </g>
   <g id="line2d_22">
    <path d="M 72.473722 40.14887 
L 75.521167 40.266903 
L 78.568613 40.620742 
L 81.616059 41.209597 
L 84.663504 42.03216 
L 87.71095 43.086598 
L 90.758396 44.370564 
L 93.805841 45.881201 
L 96.853287 47.615147 
L 100.40864 49.915144 
L 103.963994 52.506849 
L 107.519347 55.382409 
L 111.0747 58.533113 
L 115.137961 62.458549 
L 119.201222 66.715333 
L 123.264483 71.286624 
L 127.835651 76.782695 
L 132.40682 82.626372 
L 137.485896 89.491392 
L 143.07288 97.446102 
L 149.167771 106.537703 
L 156.278478 117.58486 
L 164.912907 131.45201 
L 194.879456 180.011515 
L 201.482255 190.094062 
L 207.577146 198.99662 
L 213.16413 206.746516 
L 218.243206 213.400496 
L 222.814375 219.035116 
L 227.385543 224.305097 
L 231.448804 228.662034 
L 235.512065 232.692747 
L 239.575326 236.38129 
L 243.130679 239.316572 
L 246.686032 241.969793 
L 250.241386 244.332916 
L 253.796739 246.398782 
L 256.844185 247.928164 
L 259.89163 249.231136 
L 262.939076 250.304798 
L 265.986522 251.14676 
L 269.033967 251.755149 
L 272.081413 252.128609 
L 275.128859 252.266311 
L 278.176304 252.167946 
L 281.22375 251.833735 
L 284.271196 251.264422 
L 287.318641 250.461272 
L 290.366087 249.426075 
L 293.413533 248.161134 
L 296.460978 246.669264 
L 299.508424 244.953787 
L 303.063777 242.674903 
L 306.619131 240.103784 
L 310.174484 237.248221 
L 313.729837 234.116863 
L 317.793098 230.212666 
L 321.856359 225.976111 
L 325.91962 221.423959 
L 330.490788 215.948023 
L 335.061957 210.122906 
L 340.141033 203.276546 
L 345.728017 195.339847 
L 351.822908 186.264734 
L 358.425707 176.033744 
L 366.552229 163.025799 
L 380.773642 139.748276 
L 392.455517 120.810816 
L 400.074131 108.868994 
L 406.67693 98.933378 
L 412.263914 90.90786 
L 417.34299 83.969262 
L 422.422066 77.415348 
L 426.993235 71.879262 
L 431.564403 66.715333 
L 435.627664 62.458549 
L 439.690925 58.533113 
L 443.246278 55.382409 
L 446.801631 52.506849 
L 450.356985 49.915144 
L 453.912338 47.615147 
L 457.467691 45.613824 
L 460.515137 44.140745 
L 463.562583 42.894849 
L 466.610028 41.878908 
L 469.657474 41.095183 
L 472.70492 40.54542 
L 475.752365 40.230842 
L 478.291903 40.14887 
L 478.291903 40.14887 
" clip-path="url(#p76aa013482)" style="fill: none; stroke: #ff7f0e; stroke-width: 1.5; stroke-linecap: square"/>
   </g>
   <g id="line2d_23">
    <path d="M 72.473722 40.14887 
L 73.997444 40.266903 
L 75.521167 40.620742 
L 77.04489 41.209597 
L 78.568613 42.03216 
L 80.092336 43.086598 
L 81.616059 44.370564 
L 83.647689 46.434552 
L 85.679319 48.893285 
L 87.71095 51.737037 
L 89.74258 54.954557 
L 91.774211 58.533113 
L 94.313749 63.492317 
L 96.853287 68.962768 
L 99.392825 74.910653 
L 102.440271 82.626372 
L 105.995624 92.338006 
L 109.550977 102.701915 
L 114.122146 116.782671 
L 120.217037 136.422098 
L 132.914727 177.63073 
L 137.485896 191.607127 
L 141.549157 203.276546 
L 145.10451 212.753127 
L 148.151956 220.238694 
L 150.691494 225.976111 
L 153.231032 231.2205 
L 155.77057 235.939447 
L 157.8022 239.316572 
L 159.833831 242.32532 
L 161.865461 244.953787 
L 163.897092 247.191573 
L 165.928722 249.029826 
L 167.452445 250.141886 
L 168.976168 251.022609 
L 170.499891 251.670035 
L 172.023614 252.082722 
L 173.547336 252.259752 
L 175.071059 252.200731 
L 176.594782 251.90579 
L 178.118505 251.375587 
L 179.642228 250.6113 
L 181.165951 249.614631 
L 182.689673 248.387798 
L 184.213396 246.933533 
L 186.245027 244.646395 
L 188.276657 241.969793 
L 190.308288 238.914317 
L 192.339918 235.492055 
L 194.879456 230.719196 
L 197.418994 225.423993 
L 199.958532 219.639175 
L 203.005978 212.101644 
L 206.053423 203.977771 
L 209.608777 193.855552 
L 213.672038 181.588334 
L 218.751114 165.49132 
L 229.417174 130.626558 
L 235.512065 111.221066 
L 240.083233 97.446102 
L 243.638587 87.393103 
L 246.686032 79.338671 
L 249.733478 71.879262 
L 252.273016 66.165678 
L 254.812554 60.946817 
L 257.352092 56.254936 
L 259.383723 52.900458 
L 261.415353 49.915144 
L 263.446984 47.310806 
L 265.478614 45.097747 
L 267.510245 43.284723 
L 269.033967 42.191854 
L 270.55769 41.330505 
L 272.081413 40.702593 
L 273.605136 40.309516 
L 275.128859 40.152149 
L 276.652582 40.230842 
L 278.176304 40.54542 
L 279.700027 41.095183 
L 281.22375 41.878908 
L 282.747473 42.894849 
L 284.271196 44.140745 
L 286.302826 46.154783 
L 288.334457 48.564674 
L 290.366087 51.360883 
L 292.397717 54.532348 
L 294.429348 58.06652 
L 296.968886 62.97286 
L 299.508424 68.393656 
L 302.047962 74.295405 
L 305.095408 81.960805 
L 308.142853 90.197894 
L 311.698207 100.432347 
L 315.761468 112.800012 
L 320.840544 128.978594 
L 338.109403 184.71533 
L 342.172663 196.811989 
L 345.728017 206.746516 
L 348.775462 214.682729 
L 351.822908 222.009633 
L 354.362446 227.602731 
L 356.901984 232.692747 
L 359.441522 237.248221 
L 361.473153 240.488693 
L 363.504783 243.356151 
L 365.536414 245.839249 
L 367.568044 247.928164 
L 369.091767 249.231136 
L 370.61549 250.304798 
L 372.139213 251.14676 
L 373.662935 251.755149 
L 375.186658 252.128609 
L 376.710381 252.266311 
L 378.234104 252.167946 
L 379.757827 251.833735 
L 381.28155 251.264422 
L 382.805272 250.461272 
L 384.328995 249.426075 
L 385.852718 248.161134 
L 387.884349 246.122105 
L 389.915979 243.687774 
L 391.947609 240.867772 
L 393.97924 237.673255 
L 396.01087 234.116863 
L 398.550408 229.184053 
L 401.089946 223.738387 
L 403.629484 217.813525 
L 406.67693 210.122906 
L 410.232283 200.436793 
L 413.787637 190.094062 
L 418.358805 176.033744 
L 423.945789 158.068055 
L 437.659294 113.592608 
L 442.230463 99.681424 
L 445.785816 89.491392 
L 449.34117 79.988103 
L 452.388615 72.476496 
L 454.928153 66.715333 
L 457.467691 61.445497 
L 460.007229 56.699557 
L 462.03886 53.299838 
L 464.07049 50.267702 
L 466.102121 47.615147 
L 468.133751 45.352667 
L 470.165382 43.489214 
L 471.689104 42.35798 
L 473.212827 41.457897 
L 474.73655 40.790968 
L 476.260273 40.358677 
L 477.783996 40.161987 
L 478.291903 40.14887 
L 478.291903 40.14887 
" clip-path="url(#p76aa013482)" style="fill: none; stroke: #2ca02c; stroke-width: 1.5; stroke-linecap: square"/>
   </g>
   <g id="line2d_24">
    <path d="M 72.473722 40.14887 
L 73.489537 40.266903 
L 74.505352 40.620742 
L 75.521167 41.209597 
L 76.536982 42.03216 
L 77.552798 43.086598 
L 79.076521 45.097747 
L 80.600243 47.615147 
L 82.123966 50.626192 
L 83.647689 54.115808 
L 85.171412 58.06652 
L 87.203042 64.01689 
L 89.234673 70.69862 
L 91.774211 79.988103 
L 94.313749 90.197894 
L 97.361195 103.463881 
L 100.916548 120.001846 
L 106.503532 147.250519 
L 113.106331 179.219945 
L 116.661684 195.339847 
L 119.709129 208.108597 
L 122.248668 217.813525 
L 124.280298 224.866977 
L 126.311928 231.2205 
L 128.343559 236.817557 
L 129.867282 240.488693 
L 131.391005 243.687774 
L 132.914727 246.398782 
L 134.43845 248.608144 
L 135.962173 250.304798 
L 136.977988 251.14676 
L 137.993804 251.755149 
L 139.009619 252.128609 
L 140.025434 252.266311 
L 141.041249 252.167946 
L 142.057064 251.833735 
L 143.07288 251.264422 
L 144.088695 250.461272 
L 145.10451 249.426075 
L 146.628233 247.443369 
L 148.151956 244.953787 
L 149.675679 241.969793 
L 151.199401 238.506328 
L 152.723124 234.580734 
L 154.754755 228.662034 
L 156.786385 222.009633 
L 159.325923 212.753127 
L 161.865461 202.571793 
L 164.912907 189.333436 
L 168.46826 172.818034 
L 174.055244 145.582482 
L 180.658043 113.592608 
L 184.213396 97.446102 
L 187.260842 84.646501 
L 189.80038 74.910653 
L 191.83201 67.829357 
L 193.863641 61.445497 
L 195.895271 55.815878 
L 197.418994 52.119034 
L 198.942717 48.893285 
L 200.46644 46.154783 
L 201.990163 43.917238 
L 203.513885 42.191854 
L 204.529701 41.330505 
L 205.545516 40.702593 
L 206.561331 40.309516 
L 207.577146 40.152149 
L 208.592962 40.230842 
L 209.608777 40.54542 
L 210.624592 41.095183 
L 211.640407 41.878908 
L 212.656222 42.894849 
L 213.672038 44.140745 
L 215.195761 46.434552 
L 216.719483 49.227915 
L 218.243206 52.506849 
L 219.766929 56.254936 
L 221.798559 61.949418 
L 223.83019 68.393656 
L 225.86182 75.530309 
L 228.401358 85.327547 
L 230.940896 95.970887 
L 233.988342 109.650774 
L 238.051603 128.978594 
L 250.241386 187.804229 
L 253.288831 201.151872 
L 255.828369 211.446085 
L 258.367908 220.833634 
L 260.399538 227.602731 
L 262.431168 233.647555 
L 264.462799 238.914317 
L 265.986522 242.32532 
L 267.510245 245.255072 
L 269.033967 247.688904 
L 270.55769 249.614631 
L 271.573505 250.6113 
L 272.589321 251.375587 
L 273.605136 251.90579 
L 274.620951 252.200731 
L 275.636766 252.259752 
L 276.652582 252.082722 
L 277.668397 251.670035 
L 278.684212 251.022609 
L 279.700027 250.141886 
L 280.715842 249.029826 
L 282.239565 246.933533 
L 283.763288 244.332916 
L 285.287011 241.240996 
L 286.810734 237.673255 
L 288.842364 232.207306 
L 290.873995 225.976111 
L 292.905625 219.035116 
L 295.445163 209.455367 
L 297.984701 198.99662 
L 301.032147 185.491246 
L 305.095408 166.310843 
L 318.301006 102.701915 
L 321.348451 89.491392 
L 323.887989 79.338671 
L 326.427527 70.115285 
L 328.459158 63.492317 
L 330.490788 57.605377 
L 332.522419 52.506849 
L 334.046142 49.227915 
L 335.569864 46.434552 
L 337.093587 44.140745 
L 338.61731 42.35798 
L 339.633125 41.457897 
L 340.648941 40.790968 
L 341.664756 40.358677 
L 342.680571 40.161987 
L 343.696386 40.201334 
L 344.712202 40.476633 
L 345.728017 40.987269 
L 346.743832 41.732107 
L 347.759647 42.709489 
L 348.775462 43.917238 
L 350.299185 46.154783 
L 351.822908 48.893285 
L 353.346631 52.119034 
L 354.870354 55.815878 
L 356.901984 61.445497 
L 358.933615 67.829357 
L 360.965245 74.910653 
L 363.504783 84.646501 
L 366.044321 95.237917 
L 369.091767 108.868994 
L 373.155028 128.156185 
L 385.34481 187.035744 
L 388.392256 200.436793 
L 390.931794 210.786492 
L 393.471332 220.238694 
L 395.502963 227.065513 
L 397.534593 233.17284 
L 399.566224 238.506328 
L 401.089946 241.969793 
L 402.613669 244.953787 
L 404.137392 247.443369 
L 405.661115 249.426075 
L 406.67693 250.461272 
L 407.692745 251.264422 
L 408.708561 251.833735 
L 409.724376 252.167946 
L 410.740191 252.266311 
L 411.756006 252.128609 
L 412.771821 251.755149 
L 413.787637 251.14676 
L 414.803452 250.304798 
L 415.819267 249.231136 
L 417.34299 247.191573 
L 418.866713 244.646395 
L 420.390436 241.608344 
L 421.914159 238.092633 
L 423.945789 232.692747 
L 425.977419 226.523295 
L 428.00905 219.639175 
L 430.548588 210.122906 
L 433.088126 199.718361 
L 436.135572 186.264734 
L 440.198833 167.129123 
L 453.912338 101.186101 
L 456.959784 88.088953 
L 459.499322 78.052254 
L 462.03886 68.962768 
L 464.07049 62.458549 
L 466.102121 56.699557 
L 468.133751 51.737037 
L 469.657474 48.564674 
L 471.181197 45.881201 
L 472.70492 43.700056 
L 474.228643 42.03216 
L 475.244458 41.209597 
L 476.260273 40.620742 
L 477.276088 40.266903 
L 478.291903 40.14887 
L 478.291903 40.14887 
" clip-path="url(#p76aa013482)" style="fill: none; stroke: #d62728; stroke-width: 1.5; stroke-linecap: square"/>
   </g>
   <g id="line2d_25">
    <path d="M 72.473722 268.176 
L 72.473722 24.24 
" clip-path="url(#p76aa013482)" style="fill: none; stroke-dasharray: 2.96,1.28; stroke-dashoffset: 0; stroke: #1f77b4; stroke-width: 0.8"/>
   </g>
   <g id="line2d_26">
    <path d="M 478.291903 268.176 
L 478.291903 24.24 
" clip-path="url(#p76aa013482)" style="fill: none; stroke-dasharray: 2.96,1.28; stroke-dashoffset: 0; stroke: #1f77b4; stroke-width: 0.8"/>
   </g>
   <g id="patch_3">
    <path d="M 52.182813 268.176 
L 52.182813 24.24 
" style="fill: none; stroke: #000000; stroke-width: 0.8; stroke-linejoin: miter; stroke-linecap: square"/>
   </g>
   <g id="patch_4">
    <path d="M 498.582812 268.176 
L 498.582812 24.24 
" style="fill: none; stroke: #000000; stroke-width: 0.8; stroke-linejoin: miter; stroke-linecap: square"/>
   </g>
   <g id="patch_5">
    <path d="M 52.182813 268.176 
L 498.582812 268.176 
" style="fill: none; stroke: #000000; stroke-width: 0.8; stroke-linejoin: miter; stroke-linecap: square"/>
   </g>
   <g id="patch_6">
    <path d="M 52.182813 24.24 
L 498.582812 24.24 
" style="fill: none; stroke: #000000; stroke-width: 0.8; stroke-linejoin: miter; stroke-linecap: square"/>
   </g>
   <g id="text_13">
    <!-- Los extremos $0$ y $2\pi$ representan el mismo punto angular. -->
    <g transform="translate(76.531903 257.570087) scale(0.09 -0.09)">
     <defs>
      <path id="DejaVuSans-4c" d="M 628 4666 
L 1259 4666 
L 1259 531 
L 3531 531 
L 3531 0 
L 628 0 
L 628 4666 
z
" transform="scale(0.015625)"/>
      <path id="DejaVuSans-6f" d="M 1959 3097 
Q 1497 3097 1228 2736 
Q 959 2375 959 1747 
Q 959 1119 1226 758 
Q 1494 397 1959 397 
Q 2419 397 2687 759 
Q 2956 1122 2956 1747 
Q 2956 2369 2687 2733 
Q 2419 3097 1959 3097 
z
M 1959 3584 
Q 2709 3584 3137 3096 
Q 3566 2609 3566 1747 
Q 3566 888 3137 398 
Q 2709 -91 1959 -91 
Q 1206 -91 779 398 
Q 353 888 353 1747 
Q 353 2609 779 3096 
Q 1206 3584 1959 3584 
z
" transform="scale(0.015625)"/>
      <path id="DejaVuSans-73" d="M 2834 3397 
L 2834 2853 
Q 2591 2978 2328 3040 
Q 2066 3103 1784 3103 
Q 1356 3103 1142 2972 
Q 928 2841 928 2578 
Q 928 2378 1081 2264 
Q 1234 2150 1697 2047 
L 1894 2003 
Q 2506 1872 2764 1633 
Q 3022 1394 3022 966 
Q 3022 478 2636 193 
Q 2250 -91 1575 -91 
Q 1294 -91 989 -36 
Q 684 19 347 128 
L 347 722 
Q 666 556 975 473 
Q 1284 391 1588 391 
Q 1994 391 2212 530 
Q 2431 669 2431 922 
Q 2431 1156 2273 1281 
Q 2116 1406 1581 1522 
L 1381 1569 
Q 847 1681 609 1914 
Q 372 2147 372 2553 
Q 372 3047 722 3315 
Q 1072 3584 1716 3584 
Q 2034 3584 2315 3537 
Q 2597 3491 2834 3397 
z
" transform="scale(0.015625)"/>
      <path id="DejaVuSans-20" transform="scale(0.015625)"/>
      <path id="DejaVuSans-78" d="M 3513 3500 
L 2247 1797 
L 3578 0 
L 2900 0 
L 1881 1375 
L 863 0 
L 184 0 
L 1544 1831 
L 300 3500 
L 978 3500 
L 1906 2253 
L 2834 3500 
L 3513 3500 
z
" transform="scale(0.015625)"/>
      <path id="DejaVuSans-74" d="M 1172 4494 
L 1172 3500 
L 2356 3500 
L 2356 3053 
L 1172 3053 
L 1172 1153 
Q 1172 725 1289 603 
Q 1406 481 1766 481 
L 2356 481 
L 2356 0 
L 1766 0 
Q 1100 0 847 248 
Q 594 497 594 1153 
L 594 3053 
L 172 3053 
L 172 3500 
L 594 3500 
L 594 4494 
L 1172 4494 
z
" transform="scale(0.015625)"/>
      <path id="DejaVuSans-72" d="M 2631 2963 
Q 2534 3019 2420 3045 
Q 2306 3072 2169 3072 
Q 1681 3072 1420 2755 
Q 1159 2438 1159 1844 
L 1159 0 
L 581 0 
L 581 3500 
L 1159 3500 
L 1159 2956 
Q 1341 3275 1631 3429 
Q 1922 3584 2338 3584 
Q 2397 3584 2469 3576 
Q 2541 3569 2628 3553 
L 2631 2963 
z
" transform="scale(0.015625)"/>
      <path id="DejaVuSans-6d" d="M 3328 2828 
Q 3544 3216 3844 3400 
Q 4144 3584 4550 3584 
Q 5097 3584 5394 3201 
Q 5691 2819 5691 2113 
L 5691 0 
L 5113 0 
L 5113 2094 
Q 5113 2597 4934 2840 
Q 4756 3084 4391 3084 
Q 3944 3084 3684 2787 
Q 3425 2491 3425 1978 
L 3425 0 
L 2847 0 
L 2847 2094 
Q 2847 2600 2669 2842 
Q 2491 3084 2119 3084 
Q 1678 3084 1418 2786 
Q 1159 2488 1159 1978 
L 1159 0 
L 581 0 
L 581 3500 
L 1159 3500 
L 1159 2956 
Q 1356 3278 1631 3431 
Q 1906 3584 2284 3584 
Q 2666 3584 2933 3390 
Q 3200 3197 3328 2828 
z
" transform="scale(0.015625)"/>
      <path id="DejaVuSans-79" d="M 2059 -325 
Q 1816 -950 1584 -1140 
Q 1353 -1331 966 -1331 
L 506 -1331 
L 506 -850 
L 844 -850 
Q 1081 -850 1212 -737 
Q 1344 -625 1503 -206 
L 1606 56 
L 191 3500 
L 800 3500 
L 1894 763 
L 2988 3500 
L 3597 3500 
L 2059 -325 
z
" transform="scale(0.015625)"/>
      <path id="DejaVuSans-70" d="M 1159 525 
L 1159 -1331 
L 581 -1331 
L 581 3500 
L 1159 3500 
L 1159 2969 
Q 1341 3281 1617 3432 
Q 1894 3584 2278 3584 
Q 2916 3584 3314 3078 
Q 3713 2572 3713 1747 
Q 3713 922 3314 415 
Q 2916 -91 2278 -91 
Q 1894 -91 1617 61 
Q 1341 213 1159 525 
z
M 3116 1747 
Q 3116 2381 2855 2742 
Q 2594 3103 2138 3103 
Q 1681 3103 1420 2742 
Q 1159 2381 1159 1747 
Q 1159 1113 1420 752 
Q 1681 391 2138 391 
Q 2594 391 2855 752 
Q 3116 1113 3116 1747 
z
" transform="scale(0.015625)"/>
      <path id="DejaVuSans-6e" d="M 3513 2113 
L 3513 0 
L 2938 0 
L 2938 2094 
Q 2938 2591 2744 2837 
Q 2550 3084 2163 3084 
Q 1697 3084 1428 2787 
Q 1159 2491 1159 1978 
L 1159 0 
L 581 0 
L 581 3500 
L 1159 3500 
L 1159 2956 
Q 1366 3272 1645 3428 
Q 1925 3584 2291 3584 
Q 2894 3584 3203 3211 
Q 3513 2838 3513 2113 
z
" transform="scale(0.015625)"/>
      <path id="DejaVuSans-61" d="M 2194 1759 
Q 1497 1759 1228 1600 
Q 959 1441 959 1056 
Q 959 750 1161 570 
Q 1363 391 1709 391 
Q 2188 391 2477 730 
Q 2766 1069 2766 1631 
L 2766 1759 
L 2194 1759 
z
M 3341 1997 
L 3341 0 
L 2766 0 
L 2766 531 
Q 2569 213 2275 61 
Q 1981 -91 1556 -91 
Q 1019 -91 701 211 
Q 384 513 384 1019 
Q 384 1609 779 1909 
Q 1175 2209 1959 2209 
L 2766 2209 
L 2766 2266 
Q 2766 2663 2505 2880 
Q 2244 3097 1772 3097 
Q 1472 3097 1187 3025 
Q 903 2953 641 2809 
L 641 3341 
Q 956 3463 1253 3523 
Q 1550 3584 1831 3584 
Q 2591 3584 2966 3190 
Q 3341 2797 3341 1997 
z
" transform="scale(0.015625)"/>
      <path id="DejaVuSans-6c" d="M 603 4863 
L 1178 4863 
L 1178 0 
L 603 0 
L 603 4863 
z
" transform="scale(0.015625)"/>
      <path id="DejaVuSans-69" d="M 603 3500 
L 1178 3500 
L 1178 0 
L 603 0 
L 603 3500 
z
M 603 4863 
L 1178 4863 
L 1178 4134 
L 603 4134 
L 603 4863 
z
" transform="scale(0.015625)"/>
      <path id="DejaVuSans-75" d="M 544 1381 
L 544 3500 
L 1119 3500 
L 1119 1403 
Q 1119 906 1312 657 
Q 1506 409 1894 409 
Q 2359 409 2629 706 
Q 2900 1003 2900 1516 
L 2900 3500 
L 3475 3500 
L 3475 0 
L 2900 0 
L 2900 538 
Q 2691 219 2414 64 
Q 2138 -91 1772 -91 
Q 1169 -91 856 284 
Q 544 659 544 1381 
z
M 1991 3584 
L 1991 3584 
z
" transform="scale(0.015625)"/>
      <path id="DejaVuSans-67" d="M 2906 1791 
Q 2906 2416 2648 2759 
Q 2391 3103 1925 3103 
Q 1463 3103 1205 2759 
Q 947 2416 947 1791 
Q 947 1169 1205 825 
Q 1463 481 1925 481 
Q 2391 481 2648 825 
Q 2906 1169 2906 1791 
z
M 3481 434 
Q 3481 -459 3084 -895 
Q 2688 -1331 1869 -1331 
Q 1566 -1331 1297 -1286 
Q 1028 -1241 775 -1147 
L 775 -588 
Q 1028 -725 1275 -790 
Q 1522 -856 1778 -856 
Q 2344 -856 2625 -561 
Q 2906 -266 2906 331 
L 2906 616 
Q 2728 306 2450 153 
Q 2172 0 1784 0 
Q 1141 0 747 490 
Q 353 981 353 1791 
Q 353 2603 747 3093 
Q 1141 3584 1784 3584 
Q 2172 3584 2450 3431 
Q 2728 3278 2906 2969 
L 2906 3500 
L 3481 3500 
L 3481 434 
z
" transform="scale(0.015625)"/>
     </defs>
     <use xlink:href="#DejaVuSans-4c" transform="translate(0 0.015625)"/>
     <use xlink:href="#DejaVuSans-6f" transform="translate(55.712891 0.015625)"/>
     <use xlink:href="#DejaVuSans-73" transform="translate(116.894531 0.015625)"/>
     <use xlink:href="#DejaVuSans-20" transform="translate(168.994141 0.015625)"/>
     <use xlink:href="#DejaVuSans-65" transform="translate(200.78125 0.015625)"/>
     <use xlink:href="#DejaVuSans-78" transform="translate(262.304688 0.015625)"/>
     <use xlink:href="#DejaVuSans-74" transform="translate(321.484375 0.015625)"/>
     <use xlink:href="#DejaVuSans-72" transform="translate(360.693359 0.015625)"/>
     <use xlink:href="#DejaVuSans-65" transform="translate(401.806641 0.015625)"/>
     <use xlink:href="#DejaVuSans-6d" transform="translate(463.330078 0.015625)"/>
     <use xlink:href="#DejaVuSans-6f" transform="translate(560.742188 0.015625)"/>
     <use xlink:href="#DejaVuSans-73" transform="translate(621.923828 0.015625)"/>
     <use xlink:href="#DejaVuSans-20" transform="translate(674.023438 0.015625)"/>
     <use xlink:href="#DejaVuSans-30" transform="translate(705.810547 0.015625)"/>
     <use xlink:href="#DejaVuSans-20" transform="translate(769.433594 0.015625)"/>
     <use xlink:href="#DejaVuSans-79" transform="translate(801.220703 0.015625)"/>
     <use xlink:href="#DejaVuSans-20" transform="translate(860.400391 0.015625)"/>
     <use xlink:href="#DejaVuSans-32" transform="translate(892.1875 0.015625)"/>
     <use xlink:href="#DejaVuSans-Oblique-3c0" transform="translate(955.810547 0.015625)"/>
     <use xlink:href="#DejaVuSans-20" transform="translate(1016.015625 0.015625)"/>
     <use xlink:href="#DejaVuSans-72" transform="translate(1047.802734 0.015625)"/>
     <use xlink:href="#DejaVuSans-65" transform="translate(1088.916016 0.015625)"/>
     <use xlink:href="#DejaVuSans-70" transform="translate(1150.439453 0.015625)"/>
     <use xlink:href="#DejaVuSans-72" transform="translate(1213.916016 0.015625)"/>
     <use xlink:href="#DejaVuSans-65" transform="translate(1255.029297 0.015625)"/>
     <use xlink:href="#DejaVuSans-73" transform="translate(1316.552734 0.015625)"/>
     <use xlink:href="#DejaVuSans-65" transform="translate(1368.652344 0.015625)"/>
     <use xlink:href="#DejaVuSans-6e" transform="translate(1430.175781 0.015625)"/>
     <use xlink:href="#DejaVuSans-74" transform="translate(1493.554688 0.015625)"/>
     <use xlink:href="#DejaVuSans-61" transform="translate(1532.763672 0.015625)"/>
     <use xlink:href="#DejaVuSans-6e" transform="translate(1594.042969 0.015625)"/>
     <use xlink:href="#DejaVuSans-20" transform="translate(1657.421875 0.015625)"/>
     <use xlink:href="#DejaVuSans-65" transform="translate(1689.208984 0.015625)"/>
     <use xlink:href="#DejaVuSans-6c" transform="translate(1750.732422 0.015625)"/>
     <use xlink:href="#DejaVuSans-20" transform="translate(1778.515625 0.015625)"/>
     <use xlink:href="#DejaVuSans-6d" transform="translate(1810.302734 0.015625)"/>
     <use xlink:href="#DejaVuSans-69" transform="translate(1907.714844 0.015625)"/>
     <use xlink:href="#DejaVuSans-73" transform="translate(1935.498047 0.015625)"/>
     <use xlink:href="#DejaVuSans-6d" transform="translate(1987.597656 0.015625)"/>
     <use xlink:href="#DejaVuSans-6f" transform="translate(2085.009766 0.015625)"/>
     <use xlink:href="#DejaVuSans-20" transform="translate(2146.191406 0.015625)"/>
     <use xlink:href="#DejaVuSans-70" transform="translate(2177.978516 0.015625)"/>
     <use xlink:href="#DejaVuSans-75" transform="translate(2241.455078 0.015625)"/>
     <use xlink:href="#DejaVuSans-6e" transform="translate(2304.833984 0.015625)"/>
     <use xlink:href="#DejaVuSans-74" transform="translate(2368.212891 0.015625)"/>
     <use xlink:href="#DejaVuSans-6f" transform="translate(2407.421875 0.015625)"/>
     <use xlink:href="#DejaVuSans-20" transform="translate(2468.603516 0.015625)"/>
     <use xlink:href="#DejaVuSans-61" transform="translate(2500.390625 0.015625)"/>
     <use xlink:href="#DejaVuSans-6e" transform="translate(2561.669922 0.015625)"/>
     <use xlink:href="#DejaVuSans-67" transform="translate(2625.048828 0.015625)"/>
     <use xlink:href="#DejaVuSans-75" transform="translate(2688.525391 0.015625)"/>
     <use xlink:href="#DejaVuSans-6c" transform="translate(2751.904297 0.015625)"/>
     <use xlink:href="#DejaVuSans-61" transform="translate(2779.6875 0.015625)"/>
     <use xlink:href="#DejaVuSans-72" transform="translate(2840.966797 0.015625)"/>
     <use xlink:href="#DejaVuSans-2e" transform="translate(2882.080078 0.015625)"/>
    </g>
   </g>
   <g id="text_14">
    <!-- Parte real de $\Phi_m(\phi)=e^{im\phi}$ -->
    <g transform="translate(197.622813 18.24) scale(0.12 -0.12)">
     <defs>
      <path id="DejaVuSans-50" d="M 1259 4147 
L 1259 2394 
L 2053 2394 
Q 2494 2394 2734 2622 
Q 2975 2850 2975 3272 
Q 2975 3691 2734 3919 
Q 2494 4147 2053 4147 
L 1259 4147 
z
M 628 4666 
L 2053 4666 
Q 2838 4666 3239 4311 
Q 3641 3956 3641 3272 
Q 3641 2581 3239 2228 
Q 2838 1875 2053 1875 
L 1259 1875 
L 1259 0 
L 628 0 
L 628 4666 
z
" transform="scale(0.015625)"/>
      <path id="DejaVuSans-64" d="M 2906 2969 
L 2906 4863 
L 3481 4863 
L 3481 0 
L 2906 0 
L 2906 525 
Q 2725 213 2448 61 
Q 2172 -91 1784 -91 
Q 1150 -91 751 415 
Q 353 922 353 1747 
Q 353 2572 751 3078 
Q 1150 3584 1784 3584 
Q 2172 3584 2448 3432 
Q 2725 3281 2906 2969 
z
M 947 1747 
Q 947 1113 1208 752 
Q 1469 391 1925 391 
Q 2381 391 2643 752 
Q 2906 1113 2906 1747 
Q 2906 2381 2643 2742 
Q 2381 3103 1925 3103 
Q 1469 3103 1208 2742 
Q 947 2381 947 1747 
z
" transform="scale(0.015625)"/>
      <path id="DejaVuSans-3d" d="M 678 2906 
L 4684 2906 
L 4684 2381 
L 678 2381 
L 678 2906 
z
M 678 1631 
L 4684 1631 
L 4684 1100 
L 678 1100 
L 678 1631 
z
" transform="scale(0.015625)"/>
      <path id="DejaVuSans-Oblique-65" d="M 3078 2063 
Q 3088 2113 3092 2166 
Q 3097 2219 3097 2272 
Q 3097 2653 2873 2875 
Q 2650 3097 2266 3097 
Q 1838 3097 1509 2826 
Q 1181 2556 1013 2059 
L 3078 2063 
z
M 3578 1613 
L 903 1613 
Q 884 1494 878 1425 
Q 872 1356 872 1306 
Q 872 872 1139 634 
Q 1406 397 1894 397 
Q 2269 397 2603 481 
Q 2938 566 3225 728 
L 3116 159 
Q 2806 34 2476 -28 
Q 2147 -91 1806 -91 
Q 1078 -91 686 257 
Q 294 606 294 1247 
Q 294 1794 489 2264 
Q 684 2734 1063 3103 
Q 1306 3334 1642 3459 
Q 1978 3584 2356 3584 
Q 2950 3584 3301 3228 
Q 3653 2872 3653 2272 
Q 3653 2128 3634 1964 
Q 3616 1800 3578 1613 
z
" transform="scale(0.015625)"/>
      <path id="DejaVuSans-Oblique-69" d="M 1172 4863 
L 1747 4863 
L 1606 4134 
L 1031 4134 
L 1172 4863 
z
M 909 3500 
L 1484 3500 
L 800 0 
L 225 0 
L 909 3500 
z
" transform="scale(0.015625)"/>
     </defs>
     <use xlink:href="#DejaVuSans-50" transform="translate(0 0.529687)"/>
     <use xlink:href="#DejaVuSans-61" transform="translate(60.302734 0.529687)"/>
     <use xlink:href="#DejaVuSans-72" transform="translate(121.582031 0.529687)"/>
     <use xlink:href="#DejaVuSans-74" transform="translate(162.695312 0.529687)"/>
     <use xlink:href="#DejaVuSans-65" transform="translate(201.904297 0.529687)"/>
     <use xlink:href="#DejaVuSans-20" transform="translate(263.427734 0.529687)"/>
     <use xlink:href="#DejaVuSans-72" transform="translate(295.214844 0.529687)"/>
     <use xlink:href="#DejaVuSans-65" transform="translate(336.328125 0.529687)"/>
     <use xlink:href="#DejaVuSans-61" transform="translate(397.851562 0.529687)"/>
     <use xlink:href="#DejaVuSans-6c" transform="translate(459.130859 0.529687)"/>
     <use xlink:href="#DejaVuSans-20" transform="translate(486.914062 0.529687)"/>
     <use xlink:href="#DejaVuSans-64" transform="translate(518.701172 0.529687)"/>
     <use xlink:href="#DejaVuSans-65" transform="translate(582.177734 0.529687)"/>
     <use xlink:href="#DejaVuSans-20" transform="translate(643.701172 0.529687)"/>
     <use xlink:href="#DejaVuSans-3a6" transform="translate(675.488281 0.529687)"/>
     <use xlink:href="#DejaVuSans-Oblique-6d" transform="translate(755.15625 -15.876563) scale(0.7)"/>
     <use xlink:href="#DejaVuSans-28" transform="translate(826.079102 0.529687)"/>
     <use xlink:href="#DejaVuSans-Oblique-3d5" transform="translate(865.092773 0.529687)"/>
     <use xlink:href="#DejaVuSans-29" transform="translate(931.05957 0.529687)"/>
     <use xlink:href="#DejaVuSans-3d" transform="translate(989.555664 0.529687)"/>
     <use xlink:href="#DejaVuSans-Oblique-65" transform="translate(1092.827148 0.529687)"/>
     <use xlink:href="#DejaVuSans-Oblique-69" transform="translate(1159.000482 38.810937) scale(0.7)"/>
     <use xlink:href="#DejaVuSans-Oblique-6d" transform="translate(1178.448724 38.810937) scale(0.7)"/>
     <use xlink:href="#DejaVuSans-Oblique-3d5" transform="translate(1246.637201 38.810937) scale(0.7)"/>
    </g>
   </g>
   <g id="legend_1">
    <g id="patch_7">
     <path d="M 354.782812 61.59625 
L 491.582812 61.59625 
Q 493.582812 61.59625 493.582812 59.59625 
L 493.582812 31.24 
Q 493.582812 29.24 491.582812 29.24 
L 354.782812 29.24 
Q 352.782812 29.24 352.782812 31.24 
L 352.782812 59.59625 
Q 352.782812 61.59625 354.782812 61.59625 
z
" style="fill: #ffffff; opacity: 0.8; stroke: #cccccc; stroke-linejoin: miter"/>
    </g>
    <g id="line2d_27">
     <path d="M 356.782812 37.338437 
L 366.782812 37.338437 
L 376.782812 37.338437 
" style="fill: none; stroke: #1f77b4; stroke-width: 1.5; stroke-linecap: square"/>
    </g>
    <g id="text_15">
     <!-- $m=0$ -->
     <g transform="translate(384.782812 40.838437) scale(0.1 -0.1)">
      <use xlink:href="#DejaVuSans-Oblique-6d" transform="translate(0 0.78125)"/>
      <use xlink:href="#DejaVuSans-3d" transform="translate(116.894531 0.78125)"/>
      <use xlink:href="#DejaVuSans-30" transform="translate(220.166016 0.78125)"/>
     </g>
    </g>
    <g id="line2d_28">
     <path d="M 356.782812 52.016562 
L 366.782812 52.016562 
L 376.782812 52.016562 
" style="fill: none; stroke: #ff7f0e; stroke-width: 1.5; stroke-linecap: square"/>
    </g>
    <g id="text_16">
     <!-- $m=1$ -->
     <g transform="translate(384.782812 55.516562) scale(0.1 -0.1)">
      <use xlink:href="#DejaVuSans-Oblique-6d" transform="translate(0 0.09375)"/>
      <use xlink:href="#DejaVuSans-3d" transform="translate(116.894531 0.09375)"/>
      <use xlink:href="#DejaVuSans-31" transform="translate(220.166016 0.09375)"/>
     </g>
    </g>
    <g id="line2d_29">
     <path d="M 433.182812 37.338437 
L 443.182812 37.338437 
L 453.182812 37.338437 
" style="fill: none; stroke: #2ca02c; stroke-width: 1.5; stroke-linecap: square"/>
    </g>
    <g id="text_17">
     <!-- $m=2$ -->
     <g transform="translate(461.182812 40.838437) scale(0.1 -0.1)">
      <use xlink:href="#DejaVuSans-Oblique-6d" transform="translate(0 0.78125)"/>
      <use xlink:href="#DejaVuSans-3d" transform="translate(116.894531 0.78125)"/>
      <use xlink:href="#DejaVuSans-32" transform="translate(220.166016 0.78125)"/>
     </g>
    </g>
    <g id="line2d_30">
     <path d="M 433.182812 52.016562 
L 443.182812 52.016562 
L 453.182812 52.016562 
" style="fill: none; stroke: #d62728; stroke-width: 1.5; stroke-linecap: square"/>
    </g>
    <g id="text_18">
     <!-- $m=3$ -->
     <g transform="translate(461.182812 55.516562) scale(0.1 -0.1)">
      <defs>
       <path id="DejaVuSans-33" d="M 2597 2516 
Q 3050 2419 3304 2112 
Q 3559 1806 3559 1356 
Q 3559 666 3084 287 
Q 2609 -91 1734 -91 
Q 1441 -91 1130 -33 
Q 819 25 488 141 
L 488 750 
Q 750 597 1062 519 
Q 1375 441 1716 441 
Q 2309 441 2620 675 
Q 2931 909 2931 1356 
Q 2931 1769 2642 2001 
Q 2353 2234 1838 2234 
L 1294 2234 
L 1294 2753 
L 1863 2753 
Q 2328 2753 2575 2939 
Q 2822 3125 2822 3475 
Q 2822 3834 2567 4026 
Q 2313 4219 1838 4219 
Q 1578 4219 1281 4162 
Q 984 4106 628 3988 
L 628 4550 
Q 988 4650 1302 4700 
Q 1616 4750 1894 4750 
Q 2613 4750 3031 4423 
Q 3450 4097 3450 3541 
Q 3450 3153 3228 2886 
Q 3006 2619 2597 2516 
z
" transform="scale(0.015625)"/>
      </defs>
      <use xlink:href="#DejaVuSans-Oblique-6d" transform="translate(0 0.78125)"/>
      <use xlink:href="#DejaVuSans-3d" transform="translate(116.894531 0.78125)"/>
      <use xlink:href="#DejaVuSans-33" transform="translate(220.166016 0.78125)"/>
     </g>
    </g>
   </g>
  </g>
 </g>
 <defs>
  <clipPath id="p76aa013482">
   <rect x="52.182813" y="24.24" width="446.4" height="243.936"/>
  </clipPath>
 </defs>
</svg>
