<?xml version="1.0" encoding="utf-8" standalone="no"?>
<!DOCTYPE svg PUBLIC "-//W3C//DTD SVG 1.1//EN"
  "http://www.w3.org/Graphics/SVG/1.1/DTD/svg11.dtd">
<svg xmlns:xlink="http://www.w3.org/1999/xlink" width="505.332813pt" height="303.81225pt" viewBox="0 0 505.332813 303.81225" xmlns="http://www.w3.org/2000/svg" version="1.1">
 <metadata>
  <rdf:RDF xmlns:dc="http://purl.org/dc/elements/1.1/" xmlns:cc="http://creativecommons.org/ns#" xmlns:rdf="http://www.w3.org/1999/02/22-rdf-syntax-ns#">
   <cc:Work>
    <dc:type rdf:resource="http://purl.org/dc/dcmitype/StillImage"/>
    <dc:date>2026-06-14T05:43:14.018926</dc:date>
    <dc:format>image/svg+xml</dc:format>
    <dc:creator>
     <cc:Agent>
      <dc:title>Matplotlib v3.10.8, https://matplotlib.org/</dc:title>
     </cc:Agent>
    </dc:creator>
   </cc:Work>
  </rdf:RDF>
 </metadata>
 <defs>
  <style type="text/css">*{stroke-linejoin: round; stroke-linecap: butt}</style>
 </defs>
 <g id="figure_1">
  <g id="patch_1">
   <path d="M 0 303.81225 
L 505.332813 303.81225 
L 505.332813 0 
L 0 0 
z
" style="fill: #ffffff"/>
  </g>
  <g id="axes_1">
   <g id="patch_2">
    <path d="M 43.78125 266.256 
L 490.18125 266.256 
L 490.18125 22.32 
L 43.78125 22.32 
z
" style="fill: #ffffff"/>
   </g>
   <g id="matplotlib.axis_1">
    <g id="xtick_1">
     <g id="line2d_1">
      <path d="M 57.308523 266.256 
L 57.308523 22.32 
" clip-path="url(#p87cfe85308)" style="fill: none; stroke: #b0b0b0; stroke-opacity: 0.25; stroke-width: 0.8; stroke-linecap: square"/>
     </g>
     <g id="line2d_2">
      <defs>
       <path id="m346afb0d9a" d="M 0 0 
L 0 3.5 
" style="stroke: #000000; stroke-width: 0.8"/>
      </defs>
      <g>
       <use xlink:href="#m346afb0d9a" x="57.308523" y="266.256" style="stroke: #000000; stroke-width: 0.8"/>
      </g>
     </g>
     <g id="text_1">
      <!-- 0.4 -->
      <g transform="translate(49.35696 280.854437) scale(0.1 -0.1)">
       <defs>
        <path id="DejaVuSans-30" d="M 2034 4250 
Q 1547 4250 1301 3770 
Q 1056 3291 1056 2328 
Q 1056 1369 1301 889 
Q 1547 409 2034 409 
Q 2525 409 2770 889 
Q 3016 1369 3016 2328 
Q 3016 3291 2770 3770 
Q 2525 4250 2034 4250 
z
M 2034 4750 
Q 2819 4750 3233 4129 
Q 3647 3509 3647 2328 
Q 3647 1150 3233 529 
Q 2819 -91 2034 -91 
Q 1250 -91 836 529 
Q 422 1150 422 2328 
Q 422 3509 836 4129 
Q 1250 4750 2034 4750 
z
" transform="scale(0.015625)"/>
        <path id="DejaVuSans-2e" d="M 684 794 
L 1344 794 
L 1344 0 
L 684 0 
L 684 794 
z
" transform="scale(0.015625)"/>
        <path id="DejaVuSans-34" d="M 2419 4116 
L 825 1625 
L 2419 1625 
L 2419 4116 
z
M 2253 4666 
L 3047 4666 
L 3047 1625 
L 3713 1625 
L 3713 1100 
L 3047 1100 
L 3047 0 
L 2419 0 
L 2419 1100 
L 313 1100 
L 313 1709 
L 2253 4666 
z
" transform="scale(0.015625)"/>
       </defs>
       <use xlink:href="#DejaVuSans-30"/>
       <use xlink:href="#DejaVuSans-2e" transform="translate(63.623047 0)"/>
       <use xlink:href="#DejaVuSans-34" transform="translate(95.410156 0)"/>
      </g>
     </g>
    </g>
    <g id="xtick_2">
     <g id="line2d_3">
      <path d="M 111.417614 266.256 
L 111.417614 22.32 
" clip-path="url(#p87cfe85308)" style="fill: none; stroke: #b0b0b0; stroke-opacity: 0.25; stroke-width: 0.8; stroke-linecap: square"/>
     </g>
     <g id="line2d_4">
      <g>
       <use xlink:href="#m346afb0d9a" x="111.417614" y="266.256" style="stroke: #000000; stroke-width: 0.8"/>
      </g>
     </g>
     <g id="text_2">
      <!-- 0.6 -->
      <g transform="translate(103.466051 280.854437) scale(0.1 -0.1)">
       <defs>
        <path id="DejaVuSans-36" d="M 2113 2584 
Q 1688 2584 1439 2293 
Q 1191 2003 1191 1497 
Q 1191 994 1439 701 
Q 1688 409 2113 409 
Q 2538 409 2786 701 
Q 3034 994 3034 1497 
Q 3034 2003 2786 2293 
Q 2538 2584 2113 2584 
z
M 3366 4563 
L 3366 3988 
Q 3128 4100 2886 4159 
Q 2644 4219 2406 4219 
Q 1781 4219 1451 3797 
Q 1122 3375 1075 2522 
Q 1259 2794 1537 2939 
Q 1816 3084 2150 3084 
Q 2853 3084 3261 2657 
Q 3669 2231 3669 1497 
Q 3669 778 3244 343 
Q 2819 -91 2113 -91 
Q 1303 -91 875 529 
Q 447 1150 447 2328 
Q 447 3434 972 4092 
Q 1497 4750 2381 4750 
Q 2619 4750 2861 4703 
Q 3103 4656 3366 4563 
z
" transform="scale(0.015625)"/>
       </defs>
       <use xlink:href="#DejaVuSans-30"/>
       <use xlink:href="#DejaVuSans-2e" transform="translate(63.623047 0)"/>
       <use xlink:href="#DejaVuSans-36" transform="translate(95.410156 0)"/>
      </g>
     </g>
    </g>
    <g id="xtick_3">
     <g id="line2d_5">
      <path d="M 165.526705 266.256 
L 165.526705 22.32 
" clip-path="url(#p87cfe85308)" style="fill: none; stroke: #b0b0b0; stroke-opacity: 0.25; stroke-width: 0.8; stroke-linecap: square"/>
     </g>
     <g id="line2d_6">
      <g>
       <use xlink:href="#m346afb0d9a" x="165.526705" y="266.256" style="stroke: #000000; stroke-width: 0.8"/>
      </g>
     </g>
     <g id="text_3">
      <!-- 0.8 -->
      <g transform="translate(157.575142 280.854437) scale(0.1 -0.1)">
       <defs>
        <path id="DejaVuSans-38" d="M 2034 2216 
Q 1584 2216 1326 1975 
Q 1069 1734 1069 1313 
Q 1069 891 1326 650 
Q 1584 409 2034 409 
Q 2484 409 2743 651 
Q 3003 894 3003 1313 
Q 3003 1734 2745 1975 
Q 2488 2216 2034 2216 
z
M 1403 2484 
Q 997 2584 770 2862 
Q 544 3141 544 3541 
Q 544 4100 942 4425 
Q 1341 4750 2034 4750 
Q 2731 4750 3128 4425 
Q 3525 4100 3525 3541 
Q 3525 3141 3298 2862 
Q 3072 2584 2669 2484 
Q 3125 2378 3379 2068 
Q 3634 1759 3634 1313 
Q 3634 634 3220 271 
Q 2806 -91 2034 -91 
Q 1263 -91 848 271 
Q 434 634 434 1313 
Q 434 1759 690 2068 
Q 947 2378 1403 2484 
z
M 1172 3481 
Q 1172 3119 1398 2916 
Q 1625 2713 2034 2713 
Q 2441 2713 2670 2916 
Q 2900 3119 2900 3481 
Q 2900 3844 2670 4047 
Q 2441 4250 2034 4250 
Q 1625 4250 1398 4047 
Q 1172 3844 1172 3481 
z
" transform="scale(0.015625)"/>
       </defs>
       <use xlink:href="#DejaVuSans-30"/>
       <use xlink:href="#DejaVuSans-2e" transform="translate(63.623047 0)"/>
       <use xlink:href="#DejaVuSans-38" transform="translate(95.410156 0)"/>
      </g>
     </g>
    </g>
    <g id="xtick_4">
     <g id="line2d_7">
      <path d="M 219.635795 266.256 
L 219.635795 22.32 
" clip-path="url(#p87cfe85308)" style="fill: none; stroke: #b0b0b0; stroke-opacity: 0.25; stroke-width: 0.8; stroke-linecap: square"/>
     </g>
     <g id="line2d_8">
      <g>
       <use xlink:href="#m346afb0d9a" x="219.635795" y="266.256" style="stroke: #000000; stroke-width: 0.8"/>
      </g>
     </g>
     <g id="text_4">
      <!-- 1.0 -->
      <g transform="translate(211.684233 280.854437) scale(0.1 -0.1)">
       <defs>
        <path id="DejaVuSans-31" d="M 794 531 
L 1825 531 
L 1825 4091 
L 703 3866 
L 703 4441 
L 1819 4666 
L 2450 4666 
L 2450 531 
L 3481 531 
L 3481 0 
L 794 0 
L 794 531 
z
" transform="scale(0.015625)"/>
       </defs>
       <use xlink:href="#DejaVuSans-31"/>
       <use xlink:href="#DejaVuSans-2e" transform="translate(63.623047 0)"/>
       <use xlink:href="#DejaVuSans-30" transform="translate(95.410156 0)"/>
      </g>
     </g>
    </g>
    <g id="xtick_5">
     <g id="line2d_9">
      <path d="M 273.744886 266.256 
L 273.744886 22.32 
" clip-path="url(#p87cfe85308)" style="fill: none; stroke: #b0b0b0; stroke-opacity: 0.25; stroke-width: 0.8; stroke-linecap: square"/>
     </g>
     <g id="line2d_10">
      <g>
       <use xlink:href="#m346afb0d9a" x="273.744886" y="266.256" style="stroke: #000000; stroke-width: 0.8"/>
      </g>
     </g>
     <g id="text_5">
      <!-- 1.2 -->
      <g transform="translate(265.793324 280.854437) scale(0.1 -0.1)">
       <defs>
        <path id="DejaVuSans-32" d="M 1228 531 
L 3431 531 
L 3431 0 
L 469 0 
L 469 531 
Q 828 903 1448 1529 
Q 2069 2156 2228 2338 
Q 2531 2678 2651 2914 
Q 2772 3150 2772 3378 
Q 2772 3750 2511 3984 
Q 2250 4219 1831 4219 
Q 1534 4219 1204 4116 
Q 875 4013 500 3803 
L 500 4441 
Q 881 4594 1212 4672 
Q 1544 4750 1819 4750 
Q 2544 4750 2975 4387 
Q 3406 4025 3406 3419 
Q 3406 3131 3298 2873 
Q 3191 2616 2906 2266 
Q 2828 2175 2409 1742 
Q 1991 1309 1228 531 
z
" transform="scale(0.015625)"/>
       </defs>
       <use xlink:href="#DejaVuSans-31"/>
       <use xlink:href="#DejaVuSans-2e" transform="translate(63.623047 0)"/>
       <use xlink:href="#DejaVuSans-32" transform="translate(95.410156 0)"/>
      </g>
     </g>
    </g>
    <g id="xtick_6">
     <g id="line2d_11">
      <path d="M 327.853977 266.256 
L 327.853977 22.32 
" clip-path="url(#p87cfe85308)" style="fill: none; stroke: #b0b0b0; stroke-opacity: 0.25; stroke-width: 0.8; stroke-linecap: square"/>
     </g>
     <g id="line2d_12">
      <g>
       <use xlink:href="#m346afb0d9a" x="327.853977" y="266.256" style="stroke: #000000; stroke-width: 0.8"/>
      </g>
     </g>
     <g id="text_6">
      <!-- 1.4 -->
      <g transform="translate(319.902415 280.854437) scale(0.1 -0.1)">
       <use xlink:href="#DejaVuSans-31"/>
       <use xlink:href="#DejaVuSans-2e" transform="translate(63.623047 0)"/>
       <use xlink:href="#DejaVuSans-34" transform="translate(95.410156 0)"/>
      </g>
     </g>
    </g>
    <g id="xtick_7">
     <g id="line2d_13">
      <path d="M 381.963068 266.256 
L 381.963068 22.32 
" clip-path="url(#p87cfe85308)" style="fill: none; stroke: #b0b0b0; stroke-opacity: 0.25; stroke-width: 0.8; stroke-linecap: square"/>
     </g>
     <g id="line2d_14">
      <g>
       <use xlink:href="#m346afb0d9a" x="381.963068" y="266.256" style="stroke: #000000; stroke-width: 0.8"/>
      </g>
     </g>
     <g id="text_7">
      <!-- 1.6 -->
      <g transform="translate(374.011506 280.854437) scale(0.1 -0.1)">
       <use xlink:href="#DejaVuSans-31"/>
       <use xlink:href="#DejaVuSans-2e" transform="translate(63.623047 0)"/>
       <use xlink:href="#DejaVuSans-36" transform="translate(95.410156 0)"/>
      </g>
     </g>
    </g>
    <g id="xtick_8">
     <g id="line2d_15">
      <path d="M 436.072159 266.256 
L 436.072159 22.32 
" clip-path="url(#p87cfe85308)" style="fill: none; stroke: #b0b0b0; stroke-opacity: 0.25; stroke-width: 0.8; stroke-linecap: square"/>
     </g>
     <g id="line2d_16">
      <g>
       <use xlink:href="#m346afb0d9a" x="436.072159" y="266.256" style="stroke: #000000; stroke-width: 0.8"/>
      </g>
     </g>
     <g id="text_8">
      <!-- 1.8 -->
      <g transform="translate(428.120597 280.854437) scale(0.1 -0.1)">
       <use xlink:href="#DejaVuSans-31"/>
       <use xlink:href="#DejaVuSans-2e" transform="translate(63.623047 0)"/>
       <use xlink:href="#DejaVuSans-38" transform="translate(95.410156 0)"/>
      </g>
     </g>
    </g>
    <g id="xtick_9">
     <g id="line2d_17">
      <path d="M 490.18125 266.256 
L 490.18125 22.32 
" clip-path="url(#p87cfe85308)" style="fill: none; stroke: #b0b0b0; stroke-opacity: 0.25; stroke-width: 0.8; stroke-linecap: square"/>
     </g>
     <g id="line2d_18">
      <g>
       <use xlink:href="#m346afb0d9a" x="490.18125" y="266.256" style="stroke: #000000; stroke-width: 0.8"/>
      </g>
     </g>
     <g id="text_9">
      <!-- 2.0 -->
      <g transform="translate(482.229688 280.854437) scale(0.1 -0.1)">
       <use xlink:href="#DejaVuSans-32"/>
       <use xlink:href="#DejaVuSans-2e" transform="translate(63.623047 0)"/>
       <use xlink:href="#DejaVuSans-30" transform="translate(95.410156 0)"/>
      </g>
     </g>
    </g>
    <g id="text_10">
     <!-- $r$ -->
     <g transform="translate(264.88125 294.532562) scale(0.1 -0.1)">
      <defs>
       <path id="DejaVuSans-Oblique-72" d="M 2853 2969 
Q 2766 3016 2653 3041 
Q 2541 3066 2413 3066 
Q 1953 3066 1609 2717 
Q 1266 2369 1153 1784 
L 800 0 
L 225 0 
L 909 3500 
L 1484 3500 
L 1375 2956 
Q 1603 3259 1920 3421 
Q 2238 3584 2597 3584 
Q 2691 3584 2781 3573 
Q 2872 3563 2963 3538 
L 2853 2969 
z
" transform="scale(0.015625)"/>
      </defs>
      <use xlink:href="#DejaVuSans-Oblique-72"/>
     </g>
    </g>
   </g>
   <g id="matplotlib.axis_2">
    <g id="ytick_1">
     <g id="line2d_19">
      <path d="M 43.78125 261.696449 
L 490.18125 261.696449 
" clip-path="url(#p87cfe85308)" style="fill: none; stroke: #b0b0b0; stroke-opacity: 0.25; stroke-width: 0.8; stroke-linecap: square"/>
     </g>
     <g id="line2d_20">
      <defs>
       <path id="me8c6466efa" d="M 0 0 
L -3.5 0 
" style="stroke: #000000; stroke-width: 0.8"/>
      </defs>
      <g>
       <use xlink:href="#me8c6466efa" x="43.78125" y="261.696449" style="stroke: #000000; stroke-width: 0.8"/>
      </g>
     </g>
     <g id="text_11">
      <!-- 0.0 -->
      <g transform="translate(20.878125 265.495667) scale(0.1 -0.1)">
       <use xlink:href="#DejaVuSans-30"/>
       <use xlink:href="#DejaVuSans-2e" transform="translate(63.623047 0)"/>
       <use xlink:href="#DejaVuSans-30" transform="translate(95.410156 0)"/>
      </g>
     </g>
    </g>
    <g id="ytick_2">
     <g id="line2d_21">
      <path d="M 43.78125 216.100935 
L 490.18125 216.100935 
" clip-path="url(#p87cfe85308)" style="fill: none; stroke: #b0b0b0; stroke-opacity: 0.25; stroke-width: 0.8; stroke-linecap: square"/>
     </g>
     <g id="line2d_22">
      <g>
       <use xlink:href="#me8c6466efa" x="43.78125" y="216.100935" style="stroke: #000000; stroke-width: 0.8"/>
      </g>
     </g>
     <g id="text_12">
      <!-- 0.2 -->
      <g transform="translate(20.878125 219.900153) scale(0.1 -0.1)">
       <use xlink:href="#DejaVuSans-30"/>
       <use xlink:href="#DejaVuSans-2e" transform="translate(63.623047 0)"/>
       <use xlink:href="#DejaVuSans-32" transform="translate(95.410156 0)"/>
      </g>
     </g>
    </g>
    <g id="ytick_3">
     <g id="line2d_23">
      <path d="M 43.78125 170.505421 
L 490.18125 170.505421 
" clip-path="url(#p87cfe85308)" style="fill: none; stroke: #b0b0b0; stroke-opacity: 0.25; stroke-width: 0.8; stroke-linecap: square"/>
     </g>
     <g id="line2d_24">
      <g>
       <use xlink:href="#me8c6466efa" x="43.78125" y="170.505421" style="stroke: #000000; stroke-width: 0.8"/>
      </g>
     </g>
     <g id="text_13">
      <!-- 0.4 -->
      <g transform="translate(20.878125 174.304639) scale(0.1 -0.1)">
       <use xlink:href="#DejaVuSans-30"/>
       <use xlink:href="#DejaVuSans-2e" transform="translate(63.623047 0)"/>
       <use xlink:href="#DejaVuSans-34" transform="translate(95.410156 0)"/>
      </g>
     </g>
    </g>
    <g id="ytick_4">
     <g id="line2d_25">
      <path d="M 43.78125 124.909907 
L 490.18125 124.909907 
" clip-path="url(#p87cfe85308)" style="fill: none; stroke: #b0b0b0; stroke-opacity: 0.25; stroke-width: 0.8; stroke-linecap: square"/>
     </g>
     <g id="line2d_26">
      <g>
       <use xlink:href="#me8c6466efa" x="43.78125" y="124.909907" style="stroke: #000000; stroke-width: 0.8"/>
      </g>
     </g>
     <g id="text_14">
      <!-- 0.6 -->
      <g transform="translate(20.878125 128.709125) scale(0.1 -0.1)">
       <use xlink:href="#DejaVuSans-30"/>
       <use xlink:href="#DejaVuSans-2e" transform="translate(63.623047 0)"/>
       <use xlink:href="#DejaVuSans-36" transform="translate(95.410156 0)"/>
      </g>
     </g>
    </g>
    <g id="ytick_5">
     <g id="line2d_27">
      <path d="M 43.78125 79.314393 
L 490.18125 79.314393 
" clip-path="url(#p87cfe85308)" style="fill: none; stroke: #b0b0b0; stroke-opacity: 0.25; stroke-width: 0.8; stroke-linecap: square"/>
     </g>
     <g id="line2d_28">
      <g>
       <use xlink:href="#me8c6466efa" x="43.78125" y="79.314393" style="stroke: #000000; stroke-width: 0.8"/>
      </g>
     </g>
     <g id="text_15">
      <!-- 0.8 -->
      <g transform="translate(20.878125 83.113611) scale(0.1 -0.1)">
       <use xlink:href="#DejaVuSans-30"/>
       <use xlink:href="#DejaVuSans-2e" transform="translate(63.623047 0)"/>
       <use xlink:href="#DejaVuSans-38" transform="translate(95.410156 0)"/>
      </g>
     </g>
    </g>
    <g id="ytick_6">
     <g id="line2d_29">
      <path d="M 43.78125 33.718879 
L 490.18125 33.718879 
" clip-path="url(#p87cfe85308)" style="fill: none; stroke: #b0b0b0; stroke-opacity: 0.25; stroke-width: 0.8; stroke-linecap: square"/>
     </g>
     <g id="line2d_30">
      <g>
       <use xlink:href="#me8c6466efa" x="43.78125" y="33.718879" style="stroke: #000000; stroke-width: 0.8"/>
      </g>
     </g>
     <g id="text_16">
      <!-- 1.0 -->
      <g transform="translate(20.878125 37.518097) scale(0.1 -0.1)">
       <use xlink:href="#DejaVuSans-31"/>
       <use xlink:href="#DejaVuSans-2e" transform="translate(63.623047 0)"/>
       <use xlink:href="#DejaVuSans-30" transform="translate(95.410156 0)"/>
      </g>
     </g>
    </g>
    <g id="text_17">
     <!-- amplitud normalizada -->
     <g transform="translate(14.798438 198.902062) rotate(-90) scale(0.1 -0.1)">
      <defs>
       <path id="DejaVuSans-61" d="M 2194 1759 
Q 1497 1759 1228 1600 
Q 959 1441 959 1056 
Q 959 750 1161 570 
Q 1363 391 1709 391 
Q 2188 391 2477 730 
Q 2766 1069 2766 1631 
L 2766 1759 
L 2194 1759 
z
M 3341 1997 
L 3341 0 
L 2766 0 
L 2766 531 
Q 2569 213 2275 61 
Q 1981 -91 1556 -91 
Q 1019 -91 701 211 
Q 384 513 384 1019 
Q 384 1609 779 1909 
Q 1175 2209 1959 2209 
L 2766 2209 
L 2766 2266 
Q 2766 2663 2505 2880 
Q 2244 3097 1772 3097 
Q 1472 3097 1187 3025 
Q 903 2953 641 2809 
L 641 3341 
Q 956 3463 1253 3523 
Q 1550 3584 1831 3584 
Q 2591 3584 2966 3190 
Q 3341 2797 3341 1997 
z
" transform="scale(0.015625)"/>
       <path id="DejaVuSans-6d" d="M 3328 2828 
Q 3544 3216 3844 3400 
Q 4144 3584 4550 3584 
Q 5097 3584 5394 3201 
Q 5691 2819 5691 2113 
L 5691 0 
L 5113 0 
L 5113 2094 
Q 5113 2597 4934 2840 
Q 4756 3084 4391 3084 
Q 3944 3084 3684 2787 
Q 3425 2491 3425 1978 
L 3425 0 
L 2847 0 
L 2847 2094 
Q 2847 2600 2669 2842 
Q 2491 3084 2119 3084 
Q 1678 3084 1418 2786 
Q 1159 2488 1159 1978 
L 1159 0 
L 581 0 
L 581 3500 
L 1159 3500 
L 1159 2956 
Q 1356 3278 1631 3431 
Q 1906 3584 2284 3584 
Q 2666 3584 2933 3390 
Q 3200 3197 3328 2828 
z
" transform="scale(0.015625)"/>
       <path id="DejaVuSans-70" d="M 1159 525 
L 1159 -1331 
L 581 -1331 
L 581 3500 
L 1159 3500 
L 1159 2969 
Q 1341 3281 1617 3432 
Q 1894 3584 2278 3584 
Q 2916 3584 3314 3078 
Q 3713 2572 3713 1747 
Q 3713 922 3314 415 
Q 2916 -91 2278 -91 
Q 1894 -91 1617 61 
Q 1341 213 1159 525 
z
M 3116 1747 
Q 3116 2381 2855 2742 
Q 2594 3103 2138 3103 
Q 1681 3103 1420 2742 
Q 1159 2381 1159 1747 
Q 1159 1113 1420 752 
Q 1681 391 2138 391 
Q 2594 391 2855 752 
Q 3116 1113 3116 1747 
z
" transform="scale(0.015625)"/>
       <path id="DejaVuSans-6c" d="M 603 4863 
L 1178 4863 
L 1178 0 
L 603 0 
L 603 4863 
z
" transform="scale(0.015625)"/>
       <path id="DejaVuSans-69" d="M 603 3500 
L 1178 3500 
L 1178 0 
L 603 0 
L 603 3500 
z
M 603 4863 
L 1178 4863 
L 1178 4134 
L 603 4134 
L 603 4863 
z
" transform="scale(0.015625)"/>
       <path id="DejaVuSans-74" d="M 1172 4494 
L 1172 3500 
L 2356 3500 
L 2356 3053 
L 1172 3053 
L 1172 1153 
Q 1172 725 1289 603 
Q 1406 481 1766 481 
L 2356 481 
L 2356 0 
L 1766 0 
Q 1100 0 847 248 
Q 594 497 594 1153 
L 594 3053 
L 172 3053 
L 172 3500 
L 594 3500 
L 594 4494 
L 1172 4494 
z
" transform="scale(0.015625)"/>
       <path id="DejaVuSans-75" d="M 544 1381 
L 544 3500 
L 1119 3500 
L 1119 1403 
Q 1119 906 1312 657 
Q 1506 409 1894 409 
Q 2359 409 2629 706 
Q 2900 1003 2900 1516 
L 2900 3500 
L 3475 3500 
L 3475 0 
L 2900 0 
L 2900 538 
Q 2691 219 2414 64 
Q 2138 -91 1772 -91 
Q 1169 -91 856 284 
Q 544 659 544 1381 
z
M 1991 3584 
L 1991 3584 
z
" transform="scale(0.015625)"/>
       <path id="DejaVuSans-64" d="M 2906 2969 
L 2906 4863 
L 3481 4863 
L 3481 0 
L 2906 0 
L 2906 525 
Q 2725 213 2448 61 
Q 2172 -91 1784 -91 
Q 1150 -91 751 415 
Q 353 922 353 1747 
Q 353 2572 751 3078 
Q 1150 3584 1784 3584 
Q 2172 3584 2448 3432 
Q 2725 3281 2906 2969 
z
M 947 1747 
Q 947 1113 1208 752 
Q 1469 391 1925 391 
Q 2381 391 2643 752 
Q 2906 1113 2906 1747 
Q 2906 2381 2643 2742 
Q 2381 3103 1925 3103 
Q 1469 3103 1208 2742 
Q 947 2381 947 1747 
z
" transform="scale(0.015625)"/>
       <path id="DejaVuSans-20" transform="scale(0.015625)"/>
       <path id="DejaVuSans-6e" d="M 3513 2113 
L 3513 0 
L 2938 0 
L 2938 2094 
Q 2938 2591 2744 2837 
Q 2550 3084 2163 3084 
Q 1697 3084 1428 2787 
Q 1159 2491 1159 1978 
L 1159 0 
L 581 0 
L 581 3500 
L 1159 3500 
L 1159 2956 
Q 1366 3272 1645 3428 
Q 1925 3584 2291 3584 
Q 2894 3584 3203 3211 
Q 3513 2838 3513 2113 
z
" transform="scale(0.015625)"/>
       <path id="DejaVuSans-6f" d="M 1959 3097 
Q 1497 3097 1228 2736 
Q 959 2375 959 1747 
Q 959 1119 1226 758 
Q 1494 397 1959 397 
Q 2419 397 2687 759 
Q 2956 1122 2956 1747 
Q 2956 2369 2687 2733 
Q 2419 3097 1959 3097 
z
M 1959 3584 
Q 2709 3584 3137 3096 
Q 3566 2609 3566 1747 
Q 3566 888 3137 398 
Q 2709 -91 1959 -91 
Q 1206 -91 779 398 
Q 353 888 353 1747 
Q 353 2609 779 3096 
Q 1206 3584 1959 3584 
z
" transform="scale(0.015625)"/>
       <path id="DejaVuSans-72" d="M 2631 2963 
Q 2534 3019 2420 3045 
Q 2306 3072 2169 3072 
Q 1681 3072 1420 2755 
Q 1159 2438 1159 1844 
L 1159 0 
L 581 0 
L 581 3500 
L 1159 3500 
L 1159 2956 
Q 1341 3275 1631 3429 
Q 1922 3584 2338 3584 
Q 2397 3584 2469 3576 
Q 2541 3569 2628 3553 
L 2631 2963 
z
" transform="scale(0.015625)"/>
       <path id="DejaVuSans-7a" d="M 353 3500 
L 3084 3500 
L 3084 2975 
L 922 459 
L 3084 459 
L 3084 0 
L 275 0 
L 275 525 
L 2438 3041 
L 353 3041 
L 353 3500 
z
" transform="scale(0.015625)"/>
      </defs>
      <use xlink:href="#DejaVuSans-61"/>
      <use xlink:href="#DejaVuSans-6d" transform="translate(61.279297 0)"/>
      <use xlink:href="#DejaVuSans-70" transform="translate(158.691406 0)"/>
      <use xlink:href="#DejaVuSans-6c" transform="translate(222.167969 0)"/>
      <use xlink:href="#DejaVuSans-69" transform="translate(249.951172 0)"/>
      <use xlink:href="#DejaVuSans-74" transform="translate(277.734375 0)"/>
      <use xlink:href="#DejaVuSans-75" transform="translate(316.943359 0)"/>
      <use xlink:href="#DejaVuSans-64" transform="translate(380.322266 0)"/>
      <use xlink:href="#DejaVuSans-20" transform="translate(443.798828 0)"/>
      <use xlink:href="#DejaVuSans-6e" transform="translate(475.585938 0)"/>
      <use xlink:href="#DejaVuSans-6f" transform="translate(538.964844 0)"/>
      <use xlink:href="#DejaVuSans-72" transform="translate(600.146484 0)"/>
      <use xlink:href="#DejaVuSans-6d" transform="translate(639.509766 0)"/>
      <use xlink:href="#DejaVuSans-61" transform="translate(736.921875 0)"/>
      <use xlink:href="#DejaVuSans-6c" transform="translate(798.201172 0)"/>
      <use xlink:href="#DejaVuSans-69" transform="translate(825.984375 0)"/>
      <use xlink:href="#DejaVuSans-7a" transform="translate(853.767578 0)"/>
      <use xlink:href="#DejaVuSans-61" transform="translate(906.257812 0)"/>
      <use xlink:href="#DejaVuSans-64" transform="translate(967.537109 0)"/>
      <use xlink:href="#DejaVuSans-61" transform="translate(1031.013672 0)"/>
     </g>
    </g>
   </g>
   <g id="line2d_31">
    <path d="M 43.78125 33.718879 
L 490.18125 33.718879 
L 490.18125 33.718879 
" clip-path="url(#p87cfe85308)" style="fill: none; stroke: #1f77b4; stroke-width: 1.5; stroke-linecap: square"/>
   </g>
   <g id="line2d_32">
    <path d="M 43.78125 33.718879 
L 47.50746 42.350429 
L 51.233671 50.352219 
L 54.959881 57.790742 
L 58.686091 64.723452 
L 62.412302 71.200245 
L 66.138512 77.264662 
L 69.864722 82.954872 
L 74.336175 89.336198 
L 78.807627 95.277585 
L 83.27908 100.823013 
L 87.750532 106.010789 
L 92.221985 110.87443 
L 96.693437 115.443396 
L 101.910131 120.435927 
L 107.126826 125.098856 
L 112.34352 129.463781 
L 117.560215 133.558385 
L 123.522152 137.93804 
L 129.484088 142.028202 
L 135.446025 145.856658 
L 142.153203 149.881037 
L 148.860382 153.635183 
L 155.567561 157.145431 
L 163.019981 160.787555 
L 170.472402 164.184467 
L 178.670065 167.666353 
L 186.867727 170.908154 
L 195.810632 174.19897 
L 204.753537 177.259566 
L 214.441684 180.34241 
L 224.875073 183.420167 
L 236.053704 186.469412 
L 247.232335 189.289999 
L 259.156208 192.074457 
L 271.825323 194.807501 
L 285.239681 197.476768 
L 299.39928 200.072548 
L 315.049364 202.707868 
L 331.444689 205.237294 
L 348.585257 207.659707 
L 367.216308 210.067502 
L 387.337844 212.437974 
L 408.949864 214.752975 
L 432.052369 216.998518 
L 456.645357 219.164304 
L 483.474071 221.299629 
L 490.18125 221.800374 
L 490.18125 221.800374 
" clip-path="url(#p87cfe85308)" style="fill: none; stroke-dasharray: 5.55,2.4; stroke-dashoffset: 0; stroke: #ff7f0e; stroke-width: 1.5"/>
   </g>
   <g id="line2d_33">
    <path d="M 43.78125 221.800374 
L 490.18125 33.718879 
L 490.18125 33.718879 
" clip-path="url(#p87cfe85308)" style="fill: none; stroke: #2ca02c; stroke-width: 1.5; stroke-linecap: square"/>
   </g>
   <g id="line2d_34">
    <path d="M 43.78125 33.718879 
L 46.762218 47.422377 
L 49.743187 59.926456 
L 52.724155 71.367114 
L 55.705123 81.861604 
L 58.686091 91.511455 
L 61.66706 100.404934 
L 64.648028 108.619072 
L 67.628996 116.221337 
L 70.609965 123.271025 
L 73.590933 129.82042 
L 76.571901 135.915764 
L 79.552869 141.598079 
L 83.27908 148.175359 
L 87.00529 154.226756 
L 90.7315 159.806875 
L 94.457711 164.963411 
L 98.183921 169.738176 
L 101.910131 174.167947 
L 105.636342 178.285178 
L 109.362552 182.118592 
L 113.834005 186.379754 
L 118.305457 190.3076 
L 122.776909 193.936008 
L 127.248362 197.294659 
L 132.465056 200.906778 
L 137.681751 204.223315 
L 142.898445 207.275661 
L 148.11514 210.091149 
L 154.077076 213.049324 
L 160.039013 215.760245 
L 166.746192 218.54772 
L 173.45337 221.088963 
L 180.905791 223.6579 
L 188.358212 225.990554 
L 196.555874 228.316993 
L 205.498779 230.604777 
L 214.441684 232.665173 
L 224.129831 234.67438 
L 234.56322 236.613477 
L 245.741851 238.468248 
L 257.665724 240.228718 
L 271.080081 241.980185 
L 285.239681 243.606215 
L 300.889764 245.179932 
L 318.030332 246.678963 
L 337.406626 248.140264 
L 358.273404 249.487637 
L 381.375908 250.757711 
L 407.45938 251.967226 
L 437.269063 253.119141 
L 470.804956 254.186401 
L 490.18125 254.714636 
L 490.18125 254.714636 
" clip-path="url(#p87cfe85308)" style="fill: none; stroke-dasharray: 5.55,2.4; stroke-dashoffset: 0; stroke: #d62728; stroke-width: 1.5"/>
   </g>
   <g id="line2d_35">
    <path d="M 43.78125 254.714636 
L 55.705123 252.845568 
L 67.628996 250.75508 
L 79.552869 248.443173 
L 91.476742 245.909846 
L 103.400616 243.155099 
L 115.324489 240.178933 
L 127.248362 236.981347 
L 139.172235 233.562341 
L 151.096108 229.921915 
L 163.019981 226.06007 
L 174.943854 221.976805 
L 187.61297 217.395725 
L 200.282085 212.564683 
L 212.9512 207.48368 
L 225.620315 202.152714 
L 238.28943 196.571786 
L 250.958545 190.740896 
L 263.627661 184.660043 
L 276.296776 178.329229 
L 288.965891 171.748452 
L 301.635006 164.917714 
L 314.304121 157.837013 
L 326.973237 150.50635 
L 339.642352 142.925725 
L 352.311467 135.095138 
L 364.980582 127.014589 
L 378.394939 118.186263 
L 391.809297 109.077703 
L 405.223654 99.688908 
L 418.638011 90.019879 
L 432.052369 80.070616 
L 445.466726 69.841119 
L 458.881083 59.331387 
L 472.29544 48.54142 
L 485.709798 37.47122 
L 490.18125 33.718879 
L 490.18125 33.718879 
" clip-path="url(#p87cfe85308)" style="fill: none; stroke: #9467bd; stroke-width: 1.5; stroke-linecap: square"/>
   </g>
   <g id="line2d_36">
    <path d="M 43.78125 33.718879 
L 46.016976 49.133499 
L 48.252702 63.189188 
L 50.488429 76.032456 
L 52.724155 87.791262 
L 54.959881 98.577693 
L 57.195607 108.490219 
L 59.431333 117.615579 
L 61.66706 126.030386 
L 64.648028 136.260951 
L 67.628996 145.488191 
L 70.609965 153.832148 
L 73.590933 161.396034 
L 76.571901 168.268918 
L 79.552869 174.527942 
L 82.533838 180.240138 
L 85.514806 185.463942 
L 88.495774 190.250456 
L 91.476742 194.644495 
L 94.457711 198.685476 
L 97.438679 202.408159 
L 101.164889 206.660384 
L 104.8911 210.515507 
L 108.61731 214.018821 
L 112.34352 217.20956 
L 116.069731 220.121821 
L 119.795941 222.785334 
L 124.267394 225.689582 
L 128.738846 228.31185 
L 133.210298 230.685548 
L 138.426993 233.178853 
L 143.643687 235.411879 
L 148.860382 237.417722 
L 154.822318 239.467876 
L 160.784255 241.293551 
L 167.491434 243.116156 
L 174.943854 244.895399 
L 183.141517 246.599663 
L 191.33918 248.081003 
L 201.027327 249.592106 
L 211.460716 250.979464 
L 222.639347 252.240359 
L 235.308462 253.441287 
L 249.468061 254.554548 
L 265.863387 255.607079 
L 284.494439 256.566513 
L 306.106459 257.442879 
L 331.444689 258.233717 
L 361.254372 258.932012 
L 397.771233 259.553537 
L 443.231 260.092224 
L 490.18125 260.474631 
L 490.18125 260.474631 
" clip-path="url(#p87cfe85308)" style="fill: none; stroke-dasharray: 5.55,2.4; stroke-dashoffset: 0; stroke: #8c564b; stroke-width: 1.5"/>
   </g>
   <g id="line2d_37">
    <path d="M 43.78125 260.474631 
L 59.431333 259.763181 
L 74.336175 258.869153 
L 88.495774 257.797742 
L 101.910131 256.560505 
L 114.579247 255.174339 
L 127.248362 253.558826 
L 139.172235 251.81311 
L 151.096108 249.834045 
L 162.274739 247.753724 
L 173.45337 245.443383 
L 183.886759 243.068895 
L 194.320148 240.473722 
L 204.753537 237.648056 
L 215.186926 234.582091 
L 224.875073 231.511387 
L 234.56322 228.217179 
L 244.251367 224.691616 
L 253.939514 220.926847 
L 263.627661 216.915019 
L 273.315808 212.648282 
L 282.258712 208.476714 
L 291.201617 204.075079 
L 300.144522 199.437202 
L 309.087427 194.556908 
L 318.030332 189.428021 
L 326.973237 184.044365 
L 335.916141 178.399766 
L 344.859046 172.488047 
L 353.801951 166.303033 
L 362.744856 159.838549 
L 371.687761 153.08842 
L 380.630666 146.046469 
L 389.573571 138.706522 
L 398.516475 131.062402 
L 407.45938 123.107936 
L 416.402285 114.836946 
L 425.34519 106.243258 
L 434.288095 97.320696 
L 443.231 88.063085 
L 452.173904 78.46425 
L 461.116809 68.518014 
L 470.059714 58.218202 
L 479.002619 47.55864 
L 487.945524 36.53315 
L 490.18125 33.718879 
L 490.18125 33.718879 
" clip-path="url(#p87cfe85308)" style="fill: none; stroke: #e377c2; stroke-width: 1.5; stroke-linecap: square"/>
   </g>
   <g id="line2d_38">
    <path d="M 43.78125 33.718879 
L 46.016976 54.036512 
L 48.252702 72.140324 
L 50.488429 88.313571 
L 52.724155 102.798116 
L 54.959881 115.801197 
L 57.195607 127.500977 
L 59.431333 138.051118 
L 61.66706 147.584553 
L 63.902786 156.216623 
L 66.138512 164.047688 
L 68.374238 171.16531 
L 70.609965 177.646084 
L 72.845691 183.557181 
L 75.081417 188.95765 
L 77.317143 193.89952 
L 79.552869 198.428741 
L 82.533838 203.895414 
L 85.514806 208.784199 
L 88.495774 213.166876 
L 91.476742 217.105038 
L 94.457711 220.651706 
L 97.438679 223.852667 
L 100.419647 226.747582 
L 103.400616 229.370901 
L 107.126826 232.31347 
L 110.853036 234.928705 
L 114.579247 237.259345 
L 118.305457 239.341759 
L 122.776909 241.556409 
L 127.248362 243.503473 
L 131.719814 245.220827 
L 136.936509 246.976174 
L 142.153203 248.503851 
L 148.11514 250.015006 
L 154.822318 251.465449 
L 162.274739 252.822772 
L 170.472402 254.065904 
L 179.415307 255.183747 
L 189.103454 256.173317 
L 200.282085 257.092782 
L 213.696442 257.957704 
L 229.346525 258.725436 
L 247.977577 259.399793 
L 270.334839 259.975442 
L 298.654038 260.468953 
L 335.170899 260.871525 
L 385.84736 261.192756 
L 461.862051 261.431337 
L 490.18125 261.482631 
L 490.18125 261.482631 
" clip-path="url(#p87cfe85308)" style="fill: none; stroke-dasharray: 5.55,2.4; stroke-dashoffset: 0; stroke: #7f7f7f; stroke-width: 1.5"/>
   </g>
   <g id="patch_3">
    <path d="M 43.78125 266.256 
L 43.78125 22.32 
" style="fill: none; stroke: #000000; stroke-width: 0.8; stroke-linejoin: miter; stroke-linecap: square"/>
   </g>
   <g id="patch_4">
    <path d="M 490.18125 266.256 
L 490.18125 22.32 
" style="fill: none; stroke: #000000; stroke-width: 0.8; stroke-linejoin: miter; stroke-linecap: square"/>
   </g>
   <g id="patch_5">
    <path d="M 43.78125 266.256 
L 490.18125 266.256 
" style="fill: none; stroke: #000000; stroke-width: 0.8; stroke-linejoin: miter; stroke-linecap: square"/>
   </g>
   <g id="patch_6">
    <path d="M 43.78125 22.32 
L 490.18125 22.32 
" style="fill: none; stroke: #000000; stroke-width: 0.8; stroke-linejoin: miter; stroke-linecap: square"/>
   </g>
   <g id="text_18">
    <!-- Ramas asociadas a $Q=\ell(\ell+1)$. -->
    <g transform="translate(51.897614 248.017794) scale(0.09 -0.09)">
     <defs>
      <path id="DejaVuSans-52" d="M 2841 2188 
Q 3044 2119 3236 1894 
Q 3428 1669 3622 1275 
L 4263 0 
L 3584 0 
L 2988 1197 
Q 2756 1666 2539 1819 
Q 2322 1972 1947 1972 
L 1259 1972 
L 1259 0 
L 628 0 
L 628 4666 
L 2053 4666 
Q 2853 4666 3247 4331 
Q 3641 3997 3641 3322 
Q 3641 2881 3436 2590 
Q 3231 2300 2841 2188 
z
M 1259 4147 
L 1259 2491 
L 2053 2491 
Q 2509 2491 2742 2702 
Q 2975 2913 2975 3322 
Q 2975 3731 2742 3939 
Q 2509 4147 2053 4147 
L 1259 4147 
z
" transform="scale(0.015625)"/>
      <path id="DejaVuSans-73" d="M 2834 3397 
L 2834 2853 
Q 2591 2978 2328 3040 
Q 2066 3103 1784 3103 
Q 1356 3103 1142 2972 
Q 928 2841 928 2578 
Q 928 2378 1081 2264 
Q 1234 2150 1697 2047 
L 1894 2003 
Q 2506 1872 2764 1633 
Q 3022 1394 3022 966 
Q 3022 478 2636 193 
Q 2250 -91 1575 -91 
Q 1294 -91 989 -36 
Q 684 19 347 128 
L 347 722 
Q 666 556 975 473 
Q 1284 391 1588 391 
Q 1994 391 2212 530 
Q 2431 669 2431 922 
Q 2431 1156 2273 1281 
Q 2116 1406 1581 1522 
L 1381 1569 
Q 847 1681 609 1914 
Q 372 2147 372 2553 
Q 372 3047 722 3315 
Q 1072 3584 1716 3584 
Q 2034 3584 2315 3537 
Q 2597 3491 2834 3397 
z
" transform="scale(0.015625)"/>
      <path id="DejaVuSans-63" d="M 3122 3366 
L 3122 2828 
Q 2878 2963 2633 3030 
Q 2388 3097 2138 3097 
Q 1578 3097 1268 2742 
Q 959 2388 959 1747 
Q 959 1106 1268 751 
Q 1578 397 2138 397 
Q 2388 397 2633 464 
Q 2878 531 3122 666 
L 3122 134 
Q 2881 22 2623 -34 
Q 2366 -91 2075 -91 
Q 1284 -91 818 406 
Q 353 903 353 1747 
Q 353 2603 823 3093 
Q 1294 3584 2113 3584 
Q 2378 3584 2631 3529 
Q 2884 3475 3122 3366 
z
" transform="scale(0.015625)"/>
      <path id="DejaVuSans-Oblique-51" d="M 2309 -84 
Q 2275 -88 2237 -89 
Q 2200 -91 2125 -91 
Q 1250 -91 756 411 
Q 263 913 263 1797 
Q 263 2319 452 2844 
Q 641 3369 978 3788 
Q 1369 4269 1858 4509 
Q 2347 4750 2938 4750 
Q 3794 4750 4287 4245 
Q 4781 3741 4781 2869 
Q 4781 1928 4265 1147 
Q 3750 366 2919 44 
L 3553 -825 
L 2847 -825 
L 2309 -84 
z
M 2919 4238 
Q 2400 4238 2003 3986 
Q 1606 3734 1313 3219 
Q 1125 2891 1026 2522 
Q 928 2153 928 1778 
Q 928 1128 1239 775 
Q 1550 422 2119 422 
Q 2631 422 3032 676 
Q 3434 931 3719 1434 
Q 3909 1772 4009 2142 
Q 4109 2513 4109 2881 
Q 4109 3528 3796 3883 
Q 3484 4238 2919 4238 
z
" transform="scale(0.015625)"/>
      <path id="DejaVuSans-3d" d="M 678 2906 
L 4684 2906 
L 4684 2381 
L 678 2381 
L 678 2906 
z
M 678 1631 
L 4684 1631 
L 4684 1100 
L 678 1100 
L 678 1631 
z
" transform="scale(0.015625)"/>
      <path id="DejaVuSans-Oblique-2113" d="M 950 838 
Q 1078 213 1350 213 
Q 1531 213 1766 572 
L 2181 572 
Q 1994 253 1775 88 
Q 1538 -91 1319 -91 
Q 831 -91 634 344 
L 400 0 
L -88 0 
Q 250 459 500 888 
Q 469 1131 469 1397 
Q 469 1872 566 2347 
Q 931 4131 1256 4497 
Q 1481 4750 1866 4750 
Q 2256 4750 2256 4209 
Q 2253 3966 2197 3675 
Q 1972 2484 950 838 
z
M 947 1656 
Q 1531 2744 1709 3613 
Q 1803 4072 1803 4191 
Q 1803 4406 1725 4406 
Q 1384 4134 1081 2516 
Q 997 2063 947 1656 
z
" transform="scale(0.015625)"/>
      <path id="DejaVuSans-28" d="M 1984 4856 
Q 1566 4138 1362 3434 
Q 1159 2731 1159 2009 
Q 1159 1288 1364 580 
Q 1569 -128 1984 -844 
L 1484 -844 
Q 1016 -109 783 600 
Q 550 1309 550 2009 
Q 550 2706 781 3412 
Q 1013 4119 1484 4856 
L 1984 4856 
z
" transform="scale(0.015625)"/>
      <path id="DejaVuSans-2b" d="M 2944 4013 
L 2944 2272 
L 4684 2272 
L 4684 1741 
L 2944 1741 
L 2944 0 
L 2419 0 
L 2419 1741 
L 678 1741 
L 678 2272 
L 2419 2272 
L 2419 4013 
L 2944 4013 
z
" transform="scale(0.015625)"/>
      <path id="DejaVuSans-29" d="M 513 4856 
L 1013 4856 
Q 1481 4119 1714 3412 
Q 1947 2706 1947 2009 
Q 1947 1309 1714 600 
Q 1481 -109 1013 -844 
L 513 -844 
Q 928 -128 1133 580 
Q 1338 1288 1338 2009 
Q 1338 2731 1133 3434 
Q 928 4138 513 4856 
z
" transform="scale(0.015625)"/>
     </defs>
     <use xlink:href="#DejaVuSans-52" transform="translate(0 0.015625)"/>
     <use xlink:href="#DejaVuSans-61" transform="translate(69.482422 0.015625)"/>
     <use xlink:href="#DejaVuSans-6d" transform="translate(130.761719 0.015625)"/>
     <use xlink:href="#DejaVuSans-61" transform="translate(228.173828 0.015625)"/>
     <use xlink:href="#DejaVuSans-73" transform="translate(289.453125 0.015625)"/>
     <use xlink:href="#DejaVuSans-20" transform="translate(341.552734 0.015625)"/>
     <use xlink:href="#DejaVuSans-61" transform="translate(373.339844 0.015625)"/>
     <use xlink:href="#DejaVuSans-73" transform="translate(434.619141 0.015625)"/>
     <use xlink:href="#DejaVuSans-6f" transform="translate(486.71875 0.015625)"/>
     <use xlink:href="#DejaVuSans-63" transform="translate(547.900391 0.015625)"/>
     <use xlink:href="#DejaVuSans-69" transform="translate(602.880859 0.015625)"/>
     <use xlink:href="#DejaVuSans-61" transform="translate(630.664062 0.015625)"/>
     <use xlink:href="#DejaVuSans-64" transform="translate(691.943359 0.015625)"/>
     <use xlink:href="#DejaVuSans-61" transform="translate(755.419922 0.015625)"/>
     <use xlink:href="#DejaVuSans-73" transform="translate(816.699219 0.015625)"/>
     <use xlink:href="#DejaVuSans-20" transform="translate(868.798828 0.015625)"/>
     <use xlink:href="#DejaVuSans-61" transform="translate(900.585938 0.015625)"/>
     <use xlink:href="#DejaVuSans-20" transform="translate(961.865234 0.015625)"/>
     <use xlink:href="#DejaVuSans-Oblique-51" transform="translate(993.652344 0.015625)"/>
     <use xlink:href="#DejaVuSans-3d" transform="translate(1091.845703 0.015625)"/>
     <use xlink:href="#DejaVuSans-Oblique-2113" transform="translate(1195.117188 0.015625)"/>
     <use xlink:href="#DejaVuSans-28" transform="translate(1236.425781 0.015625)"/>
     <use xlink:href="#DejaVuSans-Oblique-2113" transform="translate(1275.439453 0.015625)"/>
     <use xlink:href="#DejaVuSans-2b" transform="translate(1336.230469 0.015625)"/>
     <use xlink:href="#DejaVuSans-31" transform="translate(1439.501953 0.015625)"/>
     <use xlink:href="#DejaVuSans-29" transform="translate(1503.125 0.015625)"/>
     <use xlink:href="#DejaVuSans-2e" transform="translate(1542.138672 0.015625)"/>
    </g>
   </g>
   <g id="text_19">
    <!-- Caso $\alpha=0$: ramas radiales de Laplace -->
    <g transform="translate(152.38125 16.32) scale(0.12 -0.12)">
     <defs>
      <path id="DejaVuSans-43" d="M 4122 4306 
L 4122 3641 
Q 3803 3938 3442 4084 
Q 3081 4231 2675 4231 
Q 1875 4231 1450 3742 
Q 1025 3253 1025 2328 
Q 1025 1406 1450 917 
Q 1875 428 2675 428 
Q 3081 428 3442 575 
Q 3803 722 4122 1019 
L 4122 359 
Q 3791 134 3420 21 
Q 3050 -91 2638 -91 
Q 1578 -91 968 557 
Q 359 1206 359 2328 
Q 359 3453 968 4101 
Q 1578 4750 2638 4750 
Q 3056 4750 3426 4639 
Q 3797 4528 4122 4306 
z
" transform="scale(0.015625)"/>
      <path id="DejaVuSans-Oblique-3b1" d="M 2619 1628 
L 2622 2350 
Q 2625 3088 2069 3091 
Q 1653 3094 1394 2747 
Q 1069 2319 959 1747 
Q 825 1059 994 731 
Q 1169 397 1547 397 
Q 1966 397 2319 1063 
L 2619 1628 
z
M 2166 3578 
Q 3141 3594 3128 2584 
Q 3128 2584 3616 3500 
L 4128 3500 
L 3119 1603 
L 3109 919 
Q 3109 766 3194 638 
Q 3291 488 3391 488 
L 3669 488 
L 3575 0 
L 3228 0 
Q 2934 0 2722 263 
Q 2622 394 2619 669 
Q 2416 334 2066 50 
Q 1900 -81 1453 -78 
Q 722 -72 456 397 
Q 184 884 353 1747 
Q 534 2675 1009 3097 
Q 1544 3569 2166 3578 
z
" transform="scale(0.015625)"/>
      <path id="DejaVuSans-3a" d="M 750 794 
L 1409 794 
L 1409 0 
L 750 0 
L 750 794 
z
M 750 3309 
L 1409 3309 
L 1409 2516 
L 750 2516 
L 750 3309 
z
" transform="scale(0.015625)"/>
      <path id="DejaVuSans-65" d="M 3597 1894 
L 3597 1613 
L 953 1613 
Q 991 1019 1311 708 
Q 1631 397 2203 397 
Q 2534 397 2845 478 
Q 3156 559 3463 722 
L 3463 178 
Q 3153 47 2828 -22 
Q 2503 -91 2169 -91 
Q 1331 -91 842 396 
Q 353 884 353 1716 
Q 353 2575 817 3079 
Q 1281 3584 2069 3584 
Q 2775 3584 3186 3129 
Q 3597 2675 3597 1894 
z
M 3022 2063 
Q 3016 2534 2758 2815 
Q 2500 3097 2075 3097 
Q 1594 3097 1305 2825 
Q 1016 2553 972 2059 
L 3022 2063 
z
" transform="scale(0.015625)"/>
      <path id="DejaVuSans-4c" d="M 628 4666 
L 1259 4666 
L 1259 531 
L 3531 531 
L 3531 0 
L 628 0 
L 628 4666 
z
" transform="scale(0.015625)"/>
     </defs>
     <use xlink:href="#DejaVuSans-43" transform="translate(0 0.015625)"/>
     <use xlink:href="#DejaVuSans-61" transform="translate(69.824219 0.015625)"/>
     <use xlink:href="#DejaVuSans-73" transform="translate(131.103516 0.015625)"/>
     <use xlink:href="#DejaVuSans-6f" transform="translate(183.203125 0.015625)"/>
     <use xlink:href="#DejaVuSans-20" transform="translate(244.384766 0.015625)"/>
     <use xlink:href="#DejaVuSans-Oblique-3b1" transform="translate(276.171875 0.015625)"/>
     <use xlink:href="#DejaVuSans-3d" transform="translate(361.572266 0.015625)"/>
     <use xlink:href="#DejaVuSans-30" transform="translate(464.84375 0.015625)"/>
     <use xlink:href="#DejaVuSans-3a" transform="translate(528.466797 0.015625)"/>
     <use xlink:href="#DejaVuSans-20" transform="translate(562.158203 0.015625)"/>
     <use xlink:href="#DejaVuSans-72" transform="translate(593.945312 0.015625)"/>
     <use xlink:href="#DejaVuSans-61" transform="translate(635.058594 0.015625)"/>
     <use xlink:href="#DejaVuSans-6d" transform="translate(696.337891 0.015625)"/>
     <use xlink:href="#DejaVuSans-61" transform="translate(793.75 0.015625)"/>
     <use xlink:href="#DejaVuSans-73" transform="translate(855.029297 0.015625)"/>
     <use xlink:href="#DejaVuSans-20" transform="translate(907.128906 0.015625)"/>
     <use xlink:href="#DejaVuSans-72" transform="translate(938.916016 0.015625)"/>
     <use xlink:href="#DejaVuSans-61" transform="translate(980.029297 0.015625)"/>
     <use xlink:href="#DejaVuSans-64" transform="translate(1041.308594 0.015625)"/>
     <use xlink:href="#DejaVuSans-69" transform="translate(1104.785156 0.015625)"/>
     <use xlink:href="#DejaVuSans-61" transform="translate(1132.568359 0.015625)"/>
     <use xlink:href="#DejaVuSans-6c" transform="translate(1193.847656 0.015625)"/>
     <use xlink:href="#DejaVuSans-65" transform="translate(1221.630859 0.015625)"/>
     <use xlink:href="#DejaVuSans-73" transform="translate(1283.154297 0.015625)"/>
     <use xlink:href="#DejaVuSans-20" transform="translate(1335.253906 0.015625)"/>
     <use xlink:href="#DejaVuSans-64" transform="translate(1367.041016 0.015625)"/>
     <use xlink:href="#DejaVuSans-65" transform="translate(1430.517578 0.015625)"/>
     <use xlink:href="#DejaVuSans-20" transform="translate(1492.041016 0.015625)"/>
     <use xlink:href="#DejaVuSans-4c" transform="translate(1523.828125 0.015625)"/>
     <use xlink:href="#DejaVuSans-61" transform="translate(1579.541016 0.015625)"/>
     <use xlink:href="#DejaVuSans-70" transform="translate(1640.820312 0.015625)"/>
     <use xlink:href="#DejaVuSans-6c" transform="translate(1704.296875 0.015625)"/>
     <use xlink:href="#DejaVuSans-61" transform="translate(1732.080078 0.015625)"/>
     <use xlink:href="#DejaVuSans-63" transform="translate(1793.359375 0.015625)"/>
     <use xlink:href="#DejaVuSans-65" transform="translate(1848.339844 0.015625)"/>
    </g>
   </g>
   <g id="legend_1">
    <g id="patch_7">
     <path d="M 367.26125 166.723 
L 485.28125 166.723 
Q 486.68125 166.723 486.68125 165.323 
L 486.68125 123.253 
Q 486.68125 121.853 485.28125 121.853 
L 367.26125 121.853 
Q 365.86125 121.853 365.86125 123.253 
L 365.86125 165.323 
Q 365.86125 166.723 367.26125 166.723 
z
" style="fill: #ffffff; opacity: 0.8; stroke: #cccccc; stroke-linejoin: miter"/>
    </g>
    <g id="line2d_39">
     <path d="M 368.66125 127.957219 
L 375.66125 127.957219 
L 382.66125 127.957219 
" style="fill: none; stroke: #1f77b4; stroke-width: 1.5; stroke-linecap: square"/>
    </g>
    <g id="text_20">
     <!-- $r^0$, $\ell=0$ -->
     <g transform="translate(388.26125 130.407219) scale(0.07 -0.07)">
      <defs>
       <path id="DejaVuSans-2c" d="M 750 794 
L 1409 794 
L 1409 256 
L 897 -744 
L 494 -744 
L 750 256 
L 750 794 
z
" transform="scale(0.015625)"/>
      </defs>
      <use xlink:href="#DejaVuSans-Oblique-72" transform="translate(0 0.765625)"/>
      <use xlink:href="#DejaVuSans-30" transform="translate(45.763177 39.046875) scale(0.7)"/>
      <use xlink:href="#DejaVuSans-2c" transform="translate(93.033685 0.765625)"/>
      <use xlink:href="#DejaVuSans-20" transform="translate(124.820794 0.765625)"/>
      <use xlink:href="#DejaVuSans-Oblique-2113" transform="translate(156.607904 0.765625)"/>
      <use xlink:href="#DejaVuSans-3d" transform="translate(217.398919 0.765625)"/>
      <use xlink:href="#DejaVuSans-30" transform="translate(320.670404 0.765625)"/>
     </g>
    </g>
    <g id="line2d_40">
     <path d="M 368.66125 138.597219 
L 375.66125 138.597219 
L 382.66125 138.597219 
" style="fill: none; stroke-dasharray: 5.55,2.4; stroke-dashoffset: 0; stroke: #ff7f0e; stroke-width: 1.5"/>
    </g>
    <g id="text_21">
     <!-- $r^{-1}$, $\ell=0$ -->
     <g transform="translate(388.26125 141.047219) scale(0.07 -0.07)">
      <defs>
       <path id="DejaVuSans-2212" d="M 678 2272 
L 4684 2272 
L 4684 1741 
L 678 1741 
L 678 2272 
z
" transform="scale(0.015625)"/>
      </defs>
      <use xlink:href="#DejaVuSans-Oblique-72" transform="translate(0 0.684375)"/>
      <use xlink:href="#DejaVuSans-2212" transform="translate(45.763177 38.965625) scale(0.7)"/>
      <use xlink:href="#DejaVuSans-31" transform="translate(104.415521 38.965625) scale(0.7)"/>
      <use xlink:href="#DejaVuSans-2c" transform="translate(151.686029 0.684375)"/>
      <use xlink:href="#DejaVuSans-20" transform="translate(183.473138 0.684375)"/>
      <use xlink:href="#DejaVuSans-Oblique-2113" transform="translate(215.260247 0.684375)"/>
      <use xlink:href="#DejaVuSans-3d" transform="translate(276.051263 0.684375)"/>
      <use xlink:href="#DejaVuSans-30" transform="translate(379.322747 0.684375)"/>
     </g>
    </g>
    <g id="line2d_41">
     <path d="M 368.66125 149.237219 
L 375.66125 149.237219 
L 382.66125 149.237219 
" style="fill: none; stroke: #2ca02c; stroke-width: 1.5; stroke-linecap: square"/>
    </g>
    <g id="text_22">
     <!-- $r^1$, $\ell=1$ -->
     <g transform="translate(388.26125 151.687219) scale(0.07 -0.07)">
      <use xlink:href="#DejaVuSans-Oblique-72" transform="translate(0 0.684375)"/>
      <use xlink:href="#DejaVuSans-31" transform="translate(45.763177 38.965625) scale(0.7)"/>
      <use xlink:href="#DejaVuSans-2c" transform="translate(93.033685 0.684375)"/>
      <use xlink:href="#DejaVuSans-20" transform="translate(124.820794 0.684375)"/>
      <use xlink:href="#DejaVuSans-Oblique-2113" transform="translate(156.607904 0.684375)"/>
      <use xlink:href="#DejaVuSans-3d" transform="translate(217.398919 0.684375)"/>
      <use xlink:href="#DejaVuSans-31" transform="translate(320.670404 0.684375)"/>
     </g>
    </g>
    <g id="line2d_42">
     <path d="M 368.66125 159.947219 
L 375.66125 159.947219 
L 382.66125 159.947219 
" style="fill: none; stroke-dasharray: 5.55,2.4; stroke-dashoffset: 0; stroke: #d62728; stroke-width: 1.5"/>
    </g>
    <g id="text_23">
     <!-- $r^{-2}$, $\ell=1$ -->
     <g transform="translate(388.26125 162.397219) scale(0.07 -0.07)">
      <use xlink:href="#DejaVuSans-Oblique-72" transform="translate(0 0.765625)"/>
      <use xlink:href="#DejaVuSans-2212" transform="translate(45.763177 39.046875) scale(0.7)"/>
      <use xlink:href="#DejaVuSans-32" transform="translate(104.415521 39.046875) scale(0.7)"/>
      <use xlink:href="#DejaVuSans-2c" transform="translate(151.686029 0.765625)"/>
      <use xlink:href="#DejaVuSans-20" transform="translate(183.473138 0.765625)"/>
      <use xlink:href="#DejaVuSans-Oblique-2113" transform="translate(215.260247 0.765625)"/>
      <use xlink:href="#DejaVuSans-3d" transform="translate(276.051263 0.765625)"/>
      <use xlink:href="#DejaVuSans-31" transform="translate(379.322747 0.765625)"/>
     </g>
    </g>
    <g id="line2d_43">
     <path d="M 433.27125 127.957219 
L 440.27125 127.957219 
L 447.27125 127.957219 
" style="fill: none; stroke: #9467bd; stroke-width: 1.5; stroke-linecap: square"/>
    </g>
    <g id="text_24">
     <!-- $r^2$, $\ell=2$ -->
     <g transform="translate(452.87125 130.407219) scale(0.07 -0.07)">
      <use xlink:href="#DejaVuSans-Oblique-72" transform="translate(0 0.765625)"/>
      <use xlink:href="#DejaVuSans-32" transform="translate(45.763177 39.046875) scale(0.7)"/>
      <use xlink:href="#DejaVuSans-2c" transform="translate(93.033685 0.765625)"/>
      <use xlink:href="#DejaVuSans-20" transform="translate(124.820794 0.765625)"/>
      <use xlink:href="#DejaVuSans-Oblique-2113" transform="translate(156.607904 0.765625)"/>
      <use xlink:href="#DejaVuSans-3d" transform="translate(217.398919 0.765625)"/>
      <use xlink:href="#DejaVuSans-32" transform="translate(320.670404 0.765625)"/>
     </g>
    </g>
    <g id="line2d_44">
     <path d="M 433.27125 138.667219 
L 440.27125 138.667219 
L 447.27125 138.667219 
" style="fill: none; stroke-dasharray: 5.55,2.4; stroke-dashoffset: 0; stroke: #8c564b; stroke-width: 1.5"/>
    </g>
    <g id="text_25">
     <!-- $r^{-3}$, $\ell=2$ -->
     <g transform="translate(452.87125 141.117219) scale(0.07 -0.07)">
      <defs>
       <path id="DejaVuSans-33" d="M 2597 2516 
Q 3050 2419 3304 2112 
Q 3559 1806 3559 1356 
Q 3559 666 3084 287 
Q 2609 -91 1734 -91 
Q 1441 -91 1130 -33 
Q 819 25 488 141 
L 488 750 
Q 750 597 1062 519 
Q 1375 441 1716 441 
Q 2309 441 2620 675 
Q 2931 909 2931 1356 
Q 2931 1769 2642 2001 
Q 2353 2234 1838 2234 
L 1294 2234 
L 1294 2753 
L 1863 2753 
Q 2328 2753 2575 2939 
Q 2822 3125 2822 3475 
Q 2822 3834 2567 4026 
Q 2313 4219 1838 4219 
Q 1578 4219 1281 4162 
Q 984 4106 628 3988 
L 628 4550 
Q 988 4650 1302 4700 
Q 1616 4750 1894 4750 
Q 2613 4750 3031 4423 
Q 3450 4097 3450 3541 
Q 3450 3153 3228 2886 
Q 3006 2619 2597 2516 
z
" transform="scale(0.015625)"/>
      </defs>
      <use xlink:href="#DejaVuSans-Oblique-72" transform="translate(0 0.765625)"/>
      <use xlink:href="#DejaVuSans-2212" transform="translate(45.763177 39.046875) scale(0.7)"/>
      <use xlink:href="#DejaVuSans-33" transform="translate(104.415521 39.046875) scale(0.7)"/>
      <use xlink:href="#DejaVuSans-2c" transform="translate(151.686029 0.765625)"/>
      <use xlink:href="#DejaVuSans-20" transform="translate(183.473138 0.765625)"/>
      <use xlink:href="#DejaVuSans-Oblique-2113" transform="translate(215.260247 0.765625)"/>
      <use xlink:href="#DejaVuSans-3d" transform="translate(276.051263 0.765625)"/>
      <use xlink:href="#DejaVuSans-32" transform="translate(379.322747 0.765625)"/>
     </g>
    </g>
    <g id="line2d_45">
     <path d="M 433.27125 149.377219 
L 440.27125 149.377219 
L 447.27125 149.377219 
" style="fill: none; stroke: #e377c2; stroke-width: 1.5; stroke-linecap: square"/>
    </g>
    <g id="text_26">
     <!-- $r^3$, $\ell=3$ -->
     <g transform="translate(452.87125 151.827219) scale(0.07 -0.07)">
      <use xlink:href="#DejaVuSans-Oblique-72" transform="translate(0 0.765625)"/>
      <use xlink:href="#DejaVuSans-33" transform="translate(45.763177 39.046875) scale(0.7)"/>
      <use xlink:href="#DejaVuSans-2c" transform="translate(93.033685 0.765625)"/>
      <use xlink:href="#DejaVuSans-20" transform="translate(124.820794 0.765625)"/>
      <use xlink:href="#DejaVuSans-Oblique-2113" transform="translate(156.607904 0.765625)"/>
      <use xlink:href="#DejaVuSans-3d" transform="translate(217.398919 0.765625)"/>
      <use xlink:href="#DejaVuSans-33" transform="translate(320.670404 0.765625)"/>
     </g>
    </g>
    <g id="line2d_46">
     <path d="M 433.27125 160.017219 
L 440.27125 160.017219 
L 447.27125 160.017219 
" style="fill: none; stroke-dasharray: 5.55,2.4; stroke-dashoffset: 0; stroke: #7f7f7f; stroke-width: 1.5"/>
    </g>
    <g id="text_27">
     <!-- $r^{-4}$, $\ell=3$ -->
     <g transform="translate(452.87125 162.467219) scale(0.07 -0.07)">
      <use xlink:href="#DejaVuSans-Oblique-72" transform="translate(0 0.684375)"/>
      <use xlink:href="#DejaVuSans-2212" transform="translate(45.763177 38.965625) scale(0.7)"/>
      <use xlink:href="#DejaVuSans-34" transform="translate(104.415521 38.965625) scale(0.7)"/>
      <use xlink:href="#DejaVuSans-2c" transform="translate(151.686029 0.684375)"/>
      <use xlink:href="#DejaVuSans-20" transform="translate(183.473138 0.684375)"/>
      <use xlink:href="#DejaVuSans-Oblique-2113" transform="translate(215.260247 0.684375)"/>
      <use xlink:href="#DejaVuSans-3d" transform="translate(276.051263 0.684375)"/>
      <use xlink:href="#DejaVuSans-33" transform="translate(379.322747 0.684375)"/>
     </g>
    </g>
   </g>
  </g>
 </g>
 <defs>
  <clipPath id="p87cfe85308">
   <rect x="43.78125" y="22.32" width="446.4" height="243.936"/>
  </clipPath>
 </defs>
</svg>
