<?xml version="1.0" encoding="utf-8" standalone="no"?>
<!DOCTYPE svg PUBLIC "-//W3C//DTD SVG 1.1//EN"
  "http://www.w3.org/Graphics/SVG/1.1/DTD/svg11.dtd">
<svg xmlns:xlink="http://www.w3.org/1999/xlink" width="517.123594pt" height="330.956062pt" viewBox="0 0 517.123594 330.956062" xmlns="http://www.w3.org/2000/svg" version="1.1">
 <metadata>
  <rdf:RDF xmlns:dc="http://purl.org/dc/elements/1.1/" xmlns:cc="http://creativecommons.org/ns#" xmlns:rdf="http://www.w3.org/1999/02/22-rdf-syntax-ns#">
   <cc:Work>
    <dc:type rdf:resource="http://purl.org/dc/dcmitype/StillImage"/>
    <dc:date>2026-06-19T20:58:33.508570</dc:date>
    <dc:format>image/svg+xml</dc:format>
    <dc:creator>
     <cc:Agent>
      <dc:title>Matplotlib v3.10.8, https://matplotlib.org/</dc:title>
     </cc:Agent>
    </dc:creator>
   </cc:Work>
  </rdf:RDF>
 </metadata>
 <defs>
  <style type="text/css">*{stroke-linejoin: round; stroke-linecap: butt}</style>
 </defs>
 <g id="figure_1">
  <g id="patch_1">
   <path d="M 0 330.956062 
L 517.123594 330.956062 
L 517.123594 0 
L 0 0 
z
" style="fill: #ffffff"/>
  </g>
  <g id="axes_1">
   <g id="patch_2">
    <path d="M 56.524844 288.430125 
L 502.924844 288.430125 
L 502.924844 22.318125 
L 56.524844 22.318125 
z
" style="fill: #ffffff"/>
   </g>
   <g id="matplotlib.axis_1">
    <g id="xtick_1">
     <g id="line2d_1">
      <path d="M 56.524844 288.430125 
L 56.524844 22.318125 
" clip-path="url(#p2c1803767c)" style="fill: none; stroke: #b0b0b0; stroke-opacity: 0.25; stroke-width: 0.8; stroke-linecap: square"/>
     </g>
     <g id="line2d_2">
      <defs>
       <path id="mb75cefe619" d="M 0 0 
L 0 3.5 
" style="stroke: #000000; stroke-width: 0.8"/>
      </defs>
      <g>
       <use xlink:href="#mb75cefe619" x="56.524844" y="288.430125" style="stroke: #000000; stroke-width: 0.8"/>
      </g>
     </g>
     <g id="text_1">
      <!-- 0 -->
      <g transform="translate(53.025469 303.788406) scale(0.11 -0.11)">
       <defs>
        <path id="DejaVuSans-30" d="M 2034 4250 
Q 1547 4250 1301 3770 
Q 1056 3291 1056 2328 
Q 1056 1369 1301 889 
Q 1547 409 2034 409 
Q 2525 409 2770 889 
Q 3016 1369 3016 2328 
Q 3016 3291 2770 3770 
Q 2525 4250 2034 4250 
z
M 2034 4750 
Q 2819 4750 3233 4129 
Q 3647 3509 3647 2328 
Q 3647 1150 3233 529 
Q 2819 -91 2034 -91 
Q 1250 -91 836 529 
Q 422 1150 422 2328 
Q 422 3509 836 4129 
Q 1250 4750 2034 4750 
z
" transform="scale(0.015625)"/>
       </defs>
       <use xlink:href="#DejaVuSans-30"/>
      </g>
     </g>
    </g>
    <g id="xtick_2">
     <g id="line2d_3">
      <path d="M 145.804844 288.430125 
L 145.804844 22.318125 
" clip-path="url(#p2c1803767c)" style="fill: none; stroke: #b0b0b0; stroke-opacity: 0.25; stroke-width: 0.8; stroke-linecap: square"/>
     </g>
     <g id="line2d_4">
      <g>
       <use xlink:href="#mb75cefe619" x="145.804844" y="288.430125" style="stroke: #000000; stroke-width: 0.8"/>
      </g>
     </g>
     <g id="text_2">
      <!-- 5 -->
      <g transform="translate(142.305469 303.788406) scale(0.11 -0.11)">
       <defs>
        <path id="DejaVuSans-35" d="M 691 4666 
L 3169 4666 
L 3169 4134 
L 1269 4134 
L 1269 2991 
Q 1406 3038 1543 3061 
Q 1681 3084 1819 3084 
Q 2600 3084 3056 2656 
Q 3513 2228 3513 1497 
Q 3513 744 3044 326 
Q 2575 -91 1722 -91 
Q 1428 -91 1123 -41 
Q 819 9 494 109 
L 494 744 
Q 775 591 1075 516 
Q 1375 441 1709 441 
Q 2250 441 2565 725 
Q 2881 1009 2881 1497 
Q 2881 1984 2565 2268 
Q 2250 2553 1709 2553 
Q 1456 2553 1204 2497 
Q 953 2441 691 2322 
L 691 4666 
z
" transform="scale(0.015625)"/>
       </defs>
       <use xlink:href="#DejaVuSans-35"/>
      </g>
     </g>
    </g>
    <g id="xtick_3">
     <g id="line2d_5">
      <path d="M 235.084844 288.430125 
L 235.084844 22.318125 
" clip-path="url(#p2c1803767c)" style="fill: none; stroke: #b0b0b0; stroke-opacity: 0.25; stroke-width: 0.8; stroke-linecap: square"/>
     </g>
     <g id="line2d_6">
      <g>
       <use xlink:href="#mb75cefe619" x="235.084844" y="288.430125" style="stroke: #000000; stroke-width: 0.8"/>
      </g>
     </g>
     <g id="text_3">
      <!-- 10 -->
      <g transform="translate(228.086094 303.788406) scale(0.11 -0.11)">
       <defs>
        <path id="DejaVuSans-31" d="M 794 531 
L 1825 531 
L 1825 4091 
L 703 3866 
L 703 4441 
L 1819 4666 
L 2450 4666 
L 2450 531 
L 3481 531 
L 3481 0 
L 794 0 
L 794 531 
z
" transform="scale(0.015625)"/>
       </defs>
       <use xlink:href="#DejaVuSans-31"/>
       <use xlink:href="#DejaVuSans-30" transform="translate(63.623047 0)"/>
      </g>
     </g>
    </g>
    <g id="xtick_4">
     <g id="line2d_7">
      <path d="M 324.364844 288.430125 
L 324.364844 22.318125 
" clip-path="url(#p2c1803767c)" style="fill: none; stroke: #b0b0b0; stroke-opacity: 0.25; stroke-width: 0.8; stroke-linecap: square"/>
     </g>
     <g id="line2d_8">
      <g>
       <use xlink:href="#mb75cefe619" x="324.364844" y="288.430125" style="stroke: #000000; stroke-width: 0.8"/>
      </g>
     </g>
     <g id="text_4">
      <!-- 15 -->
      <g transform="translate(317.366094 303.788406) scale(0.11 -0.11)">
       <use xlink:href="#DejaVuSans-31"/>
       <use xlink:href="#DejaVuSans-35" transform="translate(63.623047 0)"/>
      </g>
     </g>
    </g>
    <g id="xtick_5">
     <g id="line2d_9">
      <path d="M 413.644844 288.430125 
L 413.644844 22.318125 
" clip-path="url(#p2c1803767c)" style="fill: none; stroke: #b0b0b0; stroke-opacity: 0.25; stroke-width: 0.8; stroke-linecap: square"/>
     </g>
     <g id="line2d_10">
      <g>
       <use xlink:href="#mb75cefe619" x="413.644844" y="288.430125" style="stroke: #000000; stroke-width: 0.8"/>
      </g>
     </g>
     <g id="text_5">
      <!-- 20 -->
      <g transform="translate(406.646094 303.788406) scale(0.11 -0.11)">
       <defs>
        <path id="DejaVuSans-32" d="M 1228 531 
L 3431 531 
L 3431 0 
L 469 0 
L 469 531 
Q 828 903 1448 1529 
Q 2069 2156 2228 2338 
Q 2531 2678 2651 2914 
Q 2772 3150 2772 3378 
Q 2772 3750 2511 3984 
Q 2250 4219 1831 4219 
Q 1534 4219 1204 4116 
Q 875 4013 500 3803 
L 500 4441 
Q 881 4594 1212 4672 
Q 1544 4750 1819 4750 
Q 2544 4750 2975 4387 
Q 3406 4025 3406 3419 
Q 3406 3131 3298 2873 
Q 3191 2616 2906 2266 
Q 2828 2175 2409 1742 
Q 1991 1309 1228 531 
z
" transform="scale(0.015625)"/>
       </defs>
       <use xlink:href="#DejaVuSans-32"/>
       <use xlink:href="#DejaVuSans-30" transform="translate(63.623047 0)"/>
      </g>
     </g>
    </g>
    <g id="xtick_6">
     <g id="line2d_11">
      <path d="M 502.924844 288.430125 
L 502.924844 22.318125 
" clip-path="url(#p2c1803767c)" style="fill: none; stroke: #b0b0b0; stroke-opacity: 0.25; stroke-width: 0.8; stroke-linecap: square"/>
     </g>
     <g id="line2d_12">
      <g>
       <use xlink:href="#mb75cefe619" x="502.924844" y="288.430125" style="stroke: #000000; stroke-width: 0.8"/>
      </g>
     </g>
     <g id="text_6">
      <!-- 25 -->
      <g transform="translate(495.926094 303.788406) scale(0.11 -0.11)">
       <use xlink:href="#DejaVuSans-32"/>
       <use xlink:href="#DejaVuSans-35" transform="translate(63.623047 0)"/>
      </g>
     </g>
    </g>
    <g id="text_7">
     <!-- $x=\sqrt{\gamma}\,r$ -->
     <g transform="translate(256.624844 321.236062) scale(0.12 -0.12)">
      <defs>
       <path id="DejaVuSans-Oblique-78" d="M 3841 3500 
L 2234 1784 
L 3219 0 
L 2559 0 
L 1819 1388 
L 531 0 
L -166 0 
L 1556 1844 
L 641 3500 
L 1300 3500 
L 1972 2234 
L 3144 3500 
L 3841 3500 
z
" transform="scale(0.015625)"/>
       <path id="DejaVuSans-3d" d="M 678 2906 
L 4684 2906 
L 4684 2381 
L 678 2381 
L 678 2906 
z
M 678 1631 
L 4684 1631 
L 4684 1100 
L 678 1100 
L 678 1631 
z
" transform="scale(0.015625)"/>
       <path id="STIXSizeOneSym-Regular-221a" d="M 6970 9933 
L 3373 -1888 
L 3104 -1888 
L 1626 2918 
Q 1555 3149 1465 3251 
Q 1376 3354 1229 3354 
Q 1011 3354 794 3181 
L 717 3309 
L 1766 4115 
L 1926 4115 
L 3379 -602 
L 3405 -602 
L 6605 9933 
L 6970 9933 
z
" transform="scale(0.015625)"/>
       <path id="DejaVuSans-Oblique-3b3" d="M 1491 2950 
L 1838 788 
L 3456 3500 
L 4066 3500 
L 1972 0 
L 1713 -1331 
L 1138 -1331 
L 1397 0 
L 988 2613 
Q 925 3006 628 3006 
L 475 3006 
L 569 3500 
L 788 3500 
Q 1403 3500 1491 2950 
z
" transform="scale(0.015625)"/>
       <path id="DejaVuSans-Oblique-72" d="M 2853 2969 
Q 2766 3016 2653 3041 
Q 2541 3066 2413 3066 
Q 1953 3066 1609 2717 
Q 1266 2369 1153 1784 
L 800 0 
L 225 0 
L 909 3500 
L 1484 3500 
L 1375 2956 
Q 1603 3259 1920 3421 
Q 2238 3584 2597 3584 
Q 2691 3584 2781 3573 
Q 2872 3563 2963 3538 
L 2853 2969 
z
" transform="scale(0.015625)"/>
      </defs>
      <use xlink:href="#DejaVuSans-Oblique-78" transform="translate(0 0.671875)"/>
      <use xlink:href="#DejaVuSans-3d" transform="translate(78.662109 0.671875)"/>
      <use xlink:href="#STIXSizeOneSym-Regular-221a" transform="translate(181.933594 -3.015625) scale(0.57787)"/>
      <use xlink:href="#DejaVuSans-Oblique-3b3" transform="translate(255.475327 1.0625)"/>
      <use xlink:href="#DejaVuSans-Oblique-72" transform="translate(343.39069 0.671875)"/>
      <path d="M 242.975327 80.5 
L 242.975327 86.75 
L 327.155014 86.75 
L 327.155014 80.5 
L 242.975327 80.5 
z
"/>
     </g>
    </g>
   </g>
   <g id="matplotlib.axis_2">
    <g id="ytick_1">
     <g id="line2d_13">
      <path d="M 56.524844 280.114125 
L 502.924844 280.114125 
" clip-path="url(#p2c1803767c)" style="fill: none; stroke: #b0b0b0; stroke-opacity: 0.25; stroke-width: 0.8; stroke-linecap: square"/>
     </g>
     <g id="line2d_14">
      <defs>
       <path id="m16d3ecde51" d="M 0 0 
L -3.5 0 
" style="stroke: #000000; stroke-width: 0.8"/>
      </defs>
      <g>
       <use xlink:href="#m16d3ecde51" x="56.524844" y="280.114125" style="stroke: #000000; stroke-width: 0.8"/>
      </g>
     </g>
     <g id="text_8">
      <!-- −1.5 -->
      <g transform="translate(22.81375 284.293266) scale(0.11 -0.11)">
       <defs>
        <path id="DejaVuSans-2212" d="M 678 2272 
L 4684 2272 
L 4684 1741 
L 678 1741 
L 678 2272 
z
" transform="scale(0.015625)"/>
        <path id="DejaVuSans-2e" d="M 684 794 
L 1344 794 
L 1344 0 
L 684 0 
L 684 794 
z
" transform="scale(0.015625)"/>
       </defs>
       <use xlink:href="#DejaVuSans-2212"/>
       <use xlink:href="#DejaVuSans-31" transform="translate(83.789062 0)"/>
       <use xlink:href="#DejaVuSans-2e" transform="translate(147.412109 0)"/>
       <use xlink:href="#DejaVuSans-35" transform="translate(179.199219 0)"/>
      </g>
     </g>
    </g>
    <g id="ytick_2">
     <g id="line2d_15">
      <path d="M 56.524844 238.534125 
L 502.924844 238.534125 
" clip-path="url(#p2c1803767c)" style="fill: none; stroke: #b0b0b0; stroke-opacity: 0.25; stroke-width: 0.8; stroke-linecap: square"/>
     </g>
     <g id="line2d_16">
      <g>
       <use xlink:href="#m16d3ecde51" x="56.524844" y="238.534125" style="stroke: #000000; stroke-width: 0.8"/>
      </g>
     </g>
     <g id="text_9">
      <!-- −1.0 -->
      <g transform="translate(22.81375 242.713266) scale(0.11 -0.11)">
       <use xlink:href="#DejaVuSans-2212"/>
       <use xlink:href="#DejaVuSans-31" transform="translate(83.789062 0)"/>
       <use xlink:href="#DejaVuSans-2e" transform="translate(147.412109 0)"/>
       <use xlink:href="#DejaVuSans-30" transform="translate(179.199219 0)"/>
      </g>
     </g>
    </g>
    <g id="ytick_3">
     <g id="line2d_17">
      <path d="M 56.524844 196.954125 
L 502.924844 196.954125 
" clip-path="url(#p2c1803767c)" style="fill: none; stroke: #b0b0b0; stroke-opacity: 0.25; stroke-width: 0.8; stroke-linecap: square"/>
     </g>
     <g id="line2d_18">
      <g>
       <use xlink:href="#m16d3ecde51" x="56.524844" y="196.954125" style="stroke: #000000; stroke-width: 0.8"/>
      </g>
     </g>
     <g id="text_10">
      <!-- −0.5 -->
      <g transform="translate(22.81375 201.133266) scale(0.11 -0.11)">
       <use xlink:href="#DejaVuSans-2212"/>
       <use xlink:href="#DejaVuSans-30" transform="translate(83.789062 0)"/>
       <use xlink:href="#DejaVuSans-2e" transform="translate(147.412109 0)"/>
       <use xlink:href="#DejaVuSans-35" transform="translate(179.199219 0)"/>
      </g>
     </g>
    </g>
    <g id="ytick_4">
     <g id="line2d_19">
      <path d="M 56.524844 155.374125 
L 502.924844 155.374125 
" clip-path="url(#p2c1803767c)" style="fill: none; stroke: #b0b0b0; stroke-opacity: 0.25; stroke-width: 0.8; stroke-linecap: square"/>
     </g>
     <g id="line2d_20">
      <g>
       <use xlink:href="#m16d3ecde51" x="56.524844" y="155.374125" style="stroke: #000000; stroke-width: 0.8"/>
      </g>
     </g>
     <g id="text_11">
      <!-- 0.0 -->
      <g transform="translate(32.031406 159.553266) scale(0.11 -0.11)">
       <use xlink:href="#DejaVuSans-30"/>
       <use xlink:href="#DejaVuSans-2e" transform="translate(63.623047 0)"/>
       <use xlink:href="#DejaVuSans-30" transform="translate(95.410156 0)"/>
      </g>
     </g>
    </g>
    <g id="ytick_5">
     <g id="line2d_21">
      <path d="M 56.524844 113.794125 
L 502.924844 113.794125 
" clip-path="url(#p2c1803767c)" style="fill: none; stroke: #b0b0b0; stroke-opacity: 0.25; stroke-width: 0.8; stroke-linecap: square"/>
     </g>
     <g id="line2d_22">
      <g>
       <use xlink:href="#m16d3ecde51" x="56.524844" y="113.794125" style="stroke: #000000; stroke-width: 0.8"/>
      </g>
     </g>
     <g id="text_12">
      <!-- 0.5 -->
      <g transform="translate(32.031406 117.973266) scale(0.11 -0.11)">
       <use xlink:href="#DejaVuSans-30"/>
       <use xlink:href="#DejaVuSans-2e" transform="translate(63.623047 0)"/>
       <use xlink:href="#DejaVuSans-35" transform="translate(95.410156 0)"/>
      </g>
     </g>
    </g>
    <g id="ytick_6">
     <g id="line2d_23">
      <path d="M 56.524844 72.214125 
L 502.924844 72.214125 
" clip-path="url(#p2c1803767c)" style="fill: none; stroke: #b0b0b0; stroke-opacity: 0.25; stroke-width: 0.8; stroke-linecap: square"/>
     </g>
     <g id="line2d_24">
      <g>
       <use xlink:href="#m16d3ecde51" x="56.524844" y="72.214125" style="stroke: #000000; stroke-width: 0.8"/>
      </g>
     </g>
     <g id="text_13">
      <!-- 1.0 -->
      <g transform="translate(32.031406 76.393266) scale(0.11 -0.11)">
       <use xlink:href="#DejaVuSans-31"/>
       <use xlink:href="#DejaVuSans-2e" transform="translate(63.623047 0)"/>
       <use xlink:href="#DejaVuSans-30" transform="translate(95.410156 0)"/>
      </g>
     </g>
    </g>
    <g id="ytick_7">
     <g id="line2d_25">
      <path d="M 56.524844 30.634125 
L 502.924844 30.634125 
" clip-path="url(#p2c1803767c)" style="fill: none; stroke: #b0b0b0; stroke-opacity: 0.25; stroke-width: 0.8; stroke-linecap: square"/>
     </g>
     <g id="line2d_26">
      <g>
       <use xlink:href="#m16d3ecde51" x="56.524844" y="30.634125" style="stroke: #000000; stroke-width: 0.8"/>
      </g>
     </g>
     <g id="text_14">
      <!-- 1.5 -->
      <g transform="translate(32.031406 34.813266) scale(0.11 -0.11)">
       <use xlink:href="#DejaVuSans-31"/>
       <use xlink:href="#DejaVuSans-2e" transform="translate(63.623047 0)"/>
       <use xlink:href="#DejaVuSans-35" transform="translate(95.410156 0)"/>
      </g>
     </g>
    </g>
    <g id="text_15">
     <!-- valor de la función -->
     <g transform="translate(16.318125 211.129125) rotate(-90) scale(0.12 -0.12)">
      <defs>
       <path id="DejaVuSans-76" d="M 191 3500 
L 800 3500 
L 1894 563 
L 2988 3500 
L 3597 3500 
L 2284 0 
L 1503 0 
L 191 3500 
z
" transform="scale(0.015625)"/>
       <path id="DejaVuSans-61" d="M 2194 1759 
Q 1497 1759 1228 1600 
Q 959 1441 959 1056 
Q 959 750 1161 570 
Q 1363 391 1709 391 
Q 2188 391 2477 730 
Q 2766 1069 2766 1631 
L 2766 1759 
L 2194 1759 
z
M 3341 1997 
L 3341 0 
L 2766 0 
L 2766 531 
Q 2569 213 2275 61 
Q 1981 -91 1556 -91 
Q 1019 -91 701 211 
Q 384 513 384 1019 
Q 384 1609 779 1909 
Q 1175 2209 1959 2209 
L 2766 2209 
L 2766 2266 
Q 2766 2663 2505 2880 
Q 2244 3097 1772 3097 
Q 1472 3097 1187 3025 
Q 903 2953 641 2809 
L 641 3341 
Q 956 3463 1253 3523 
Q 1550 3584 1831 3584 
Q 2591 3584 2966 3190 
Q 3341 2797 3341 1997 
z
" transform="scale(0.015625)"/>
       <path id="DejaVuSans-6c" d="M 603 4863 
L 1178 4863 
L 1178 0 
L 603 0 
L 603 4863 
z
" transform="scale(0.015625)"/>
       <path id="DejaVuSans-6f" d="M 1959 3097 
Q 1497 3097 1228 2736 
Q 959 2375 959 1747 
Q 959 1119 1226 758 
Q 1494 397 1959 397 
Q 2419 397 2687 759 
Q 2956 1122 2956 1747 
Q 2956 2369 2687 2733 
Q 2419 3097 1959 3097 
z
M 1959 3584 
Q 2709 3584 3137 3096 
Q 3566 2609 3566 1747 
Q 3566 888 3137 398 
Q 2709 -91 1959 -91 
Q 1206 -91 779 398 
Q 353 888 353 1747 
Q 353 2609 779 3096 
Q 1206 3584 1959 3584 
z
" transform="scale(0.015625)"/>
       <path id="DejaVuSans-72" d="M 2631 2963 
Q 2534 3019 2420 3045 
Q 2306 3072 2169 3072 
Q 1681 3072 1420 2755 
Q 1159 2438 1159 1844 
L 1159 0 
L 581 0 
L 581 3500 
L 1159 3500 
L 1159 2956 
Q 1341 3275 1631 3429 
Q 1922 3584 2338 3584 
Q 2397 3584 2469 3576 
Q 2541 3569 2628 3553 
L 2631 2963 
z
" transform="scale(0.015625)"/>
       <path id="DejaVuSans-20" transform="scale(0.015625)"/>
       <path id="DejaVuSans-64" d="M 2906 2969 
L 2906 4863 
L 3481 4863 
L 3481 0 
L 2906 0 
L 2906 525 
Q 2725 213 2448 61 
Q 2172 -91 1784 -91 
Q 1150 -91 751 415 
Q 353 922 353 1747 
Q 353 2572 751 3078 
Q 1150 3584 1784 3584 
Q 2172 3584 2448 3432 
Q 2725 3281 2906 2969 
z
M 947 1747 
Q 947 1113 1208 752 
Q 1469 391 1925 391 
Q 2381 391 2643 752 
Q 2906 1113 2906 1747 
Q 2906 2381 2643 2742 
Q 2381 3103 1925 3103 
Q 1469 3103 1208 2742 
Q 947 2381 947 1747 
z
" transform="scale(0.015625)"/>
       <path id="DejaVuSans-65" d="M 3597 1894 
L 3597 1613 
L 953 1613 
Q 991 1019 1311 708 
Q 1631 397 2203 397 
Q 2534 397 2845 478 
Q 3156 559 3463 722 
L 3463 178 
Q 3153 47 2828 -22 
Q 2503 -91 2169 -91 
Q 1331 -91 842 396 
Q 353 884 353 1716 
Q 353 2575 817 3079 
Q 1281 3584 2069 3584 
Q 2775 3584 3186 3129 
Q 3597 2675 3597 1894 
z
M 3022 2063 
Q 3016 2534 2758 2815 
Q 2500 3097 2075 3097 
Q 1594 3097 1305 2825 
Q 1016 2553 972 2059 
L 3022 2063 
z
" transform="scale(0.015625)"/>
       <path id="DejaVuSans-66" d="M 2375 4863 
L 2375 4384 
L 1825 4384 
Q 1516 4384 1395 4259 
Q 1275 4134 1275 3809 
L 1275 3500 
L 2222 3500 
L 2222 3053 
L 1275 3053 
L 1275 0 
L 697 0 
L 697 3053 
L 147 3053 
L 147 3500 
L 697 3500 
L 697 3744 
Q 697 4328 969 4595 
Q 1241 4863 1831 4863 
L 2375 4863 
z
" transform="scale(0.015625)"/>
       <path id="DejaVuSans-75" d="M 544 1381 
L 544 3500 
L 1119 3500 
L 1119 1403 
Q 1119 906 1312 657 
Q 1506 409 1894 409 
Q 2359 409 2629 706 
Q 2900 1003 2900 1516 
L 2900 3500 
L 3475 3500 
L 3475 0 
L 2900 0 
L 2900 538 
Q 2691 219 2414 64 
Q 2138 -91 1772 -91 
Q 1169 -91 856 284 
Q 544 659 544 1381 
z
M 1991 3584 
L 1991 3584 
z
" transform="scale(0.015625)"/>
       <path id="DejaVuSans-6e" d="M 3513 2113 
L 3513 0 
L 2938 0 
L 2938 2094 
Q 2938 2591 2744 2837 
Q 2550 3084 2163 3084 
Q 1697 3084 1428 2787 
Q 1159 2491 1159 1978 
L 1159 0 
L 581 0 
L 581 3500 
L 1159 3500 
L 1159 2956 
Q 1366 3272 1645 3428 
Q 1925 3584 2291 3584 
Q 2894 3584 3203 3211 
Q 3513 2838 3513 2113 
z
" transform="scale(0.015625)"/>
       <path id="DejaVuSans-63" d="M 3122 3366 
L 3122 2828 
Q 2878 2963 2633 3030 
Q 2388 3097 2138 3097 
Q 1578 3097 1268 2742 
Q 959 2388 959 1747 
Q 959 1106 1268 751 
Q 1578 397 2138 397 
Q 2388 397 2633 464 
Q 2878 531 3122 666 
L 3122 134 
Q 2881 22 2623 -34 
Q 2366 -91 2075 -91 
Q 1284 -91 818 406 
Q 353 903 353 1747 
Q 353 2603 823 3093 
Q 1294 3584 2113 3584 
Q 2378 3584 2631 3529 
Q 2884 3475 3122 3366 
z
" transform="scale(0.015625)"/>
       <path id="DejaVuSans-69" d="M 603 3500 
L 1178 3500 
L 1178 0 
L 603 0 
L 603 3500 
z
M 603 4863 
L 1178 4863 
L 1178 4134 
L 603 4134 
L 603 4863 
z
" transform="scale(0.015625)"/>
       <path id="DejaVuSans-f3" d="M 1959 3097 
Q 1497 3097 1228 2736 
Q 959 2375 959 1747 
Q 959 1119 1226 758 
Q 1494 397 1959 397 
Q 2419 397 2687 759 
Q 2956 1122 2956 1747 
Q 2956 2369 2687 2733 
Q 2419 3097 1959 3097 
z
M 1959 3584 
Q 2709 3584 3137 3096 
Q 3566 2609 3566 1747 
Q 3566 888 3137 398 
Q 2709 -91 1959 -91 
Q 1206 -91 779 398 
Q 353 888 353 1747 
Q 353 2609 779 3096 
Q 1206 3584 1959 3584 
z
M 2394 5119 
L 3016 5119 
L 1998 3944 
L 1519 3944 
L 2394 5119 
z
" transform="scale(0.015625)"/>
      </defs>
      <use xlink:href="#DejaVuSans-76"/>
      <use xlink:href="#DejaVuSans-61" transform="translate(59.179688 0)"/>
      <use xlink:href="#DejaVuSans-6c" transform="translate(120.458984 0)"/>
      <use xlink:href="#DejaVuSans-6f" transform="translate(148.242188 0)"/>
      <use xlink:href="#DejaVuSans-72" transform="translate(209.423828 0)"/>
      <use xlink:href="#DejaVuSans-20" transform="translate(250.537109 0)"/>
      <use xlink:href="#DejaVuSans-64" transform="translate(282.324219 0)"/>
      <use xlink:href="#DejaVuSans-65" transform="translate(345.800781 0)"/>
      <use xlink:href="#DejaVuSans-20" transform="translate(407.324219 0)"/>
      <use xlink:href="#DejaVuSans-6c" transform="translate(439.111328 0)"/>
      <use xlink:href="#DejaVuSans-61" transform="translate(466.894531 0)"/>
      <use xlink:href="#DejaVuSans-20" transform="translate(528.173828 0)"/>
      <use xlink:href="#DejaVuSans-66" transform="translate(559.960938 0)"/>
      <use xlink:href="#DejaVuSans-75" transform="translate(595.166016 0)"/>
      <use xlink:href="#DejaVuSans-6e" transform="translate(658.544922 0)"/>
      <use xlink:href="#DejaVuSans-63" transform="translate(721.923828 0)"/>
      <use xlink:href="#DejaVuSans-69" transform="translate(776.904297 0)"/>
      <use xlink:href="#DejaVuSans-f3" transform="translate(804.6875 0)"/>
      <use xlink:href="#DejaVuSans-6e" transform="translate(865.869141 0)"/>
     </g>
    </g>
   </g>
   <g id="line2d_27">
    <path d="M 56.5427 72.214139 
L 58.105428 72.322683 
L 59.668156 72.642967 
L 61.342508 73.219405 
L 63.016859 74.034174 
L 64.802834 75.161101 
L 66.58881 76.547563 
L 68.486408 78.295771 
L 70.49563 80.442875 
L 72.728099 83.166322 
L 75.072191 86.381858 
L 77.63953 90.283848 
L 80.54174 95.115586 
L 83.890443 101.152024 
L 87.908887 108.883408 
L 94.1598 121.470023 
L 101.3037 135.735471 
L 105.433767 143.480779 
L 108.782471 149.312443 
L 111.796303 154.133566 
L 114.58689 158.183933 
L 117.154229 161.525216 
L 119.609944 164.353498 
L 121.842413 166.599415 
L 123.963259 168.438662 
L 126.084104 169.987274 
L 128.093326 171.185506 
L 130.102548 172.123772 
L 132.000146 172.774663 
L 133.897745 173.202109 
L 135.795343 173.41275 
L 137.804565 173.408587 
L 139.813787 173.182024 
L 141.934633 172.716142 
L 144.167102 171.992883 
L 146.511194 171.000267 
L 149.078533 169.671288 
L 151.980743 167.91174 
L 155.329446 165.61578 
L 159.794383 162.264227 
L 171.068351 153.672233 
L 174.751925 151.209827 
L 177.989004 149.307775 
L 180.891214 147.849998 
L 183.6818 146.693519 
L 186.360763 145.824673 
L 188.928102 145.222187 
L 191.495441 144.848144 
L 194.06278 144.701237 
L 196.630119 144.775936 
L 199.309082 145.079816 
L 202.099668 145.625599 
L 205.001877 146.418409 
L 208.238957 147.538542 
L 211.922531 149.059365 
L 216.499092 151.206433 
L 231.903127 158.648138 
L 235.698324 160.11892 
L 239.158651 161.225647 
L 242.39573 162.029546 
L 245.521187 162.576298 
L 248.53502 162.88166 
L 251.548853 162.967511 
L 254.674309 162.829415 
L 257.911389 162.454657 
L 261.260092 161.839401 
L 264.943666 160.929116 
L 269.073733 159.673298 
L 274.431658 157.792562 
L 288.384588 152.770848 
L 292.737903 151.507948 
L 296.644723 150.603126 
L 300.328297 149.981119 
L 303.788623 149.618695 
L 307.24895 149.478769 
L 310.709277 149.560356 
L 314.281227 149.867341 
L 318.076424 150.421126 
L 322.206491 151.254181 
L 327.006299 152.457838 
L 333.815329 154.422251 
L 343.861439 157.309755 
L 348.884494 158.509089 
L 353.237808 159.322217 
L 357.256252 159.848336 
L 361.163073 160.133159 
L 364.95827 160.1884 
L 368.86509 160.020397 
L 372.883534 159.623865 
L 377.236848 158.967712 
L 382.259903 157.975236 
L 388.95731 156.401784 
L 401.459135 153.432176 
L 406.705437 152.447258 
L 411.281998 151.811594 
L 415.523689 151.441571 
L 419.653756 151.29929 
L 423.783823 151.374799 
L 428.137138 151.680262 
L 432.713699 152.226006 
L 437.960001 153.082467 
L 444.880654 154.458453 
L 458.498714 157.212274 
L 463.968263 158.056438 
L 468.768071 158.57762 
L 473.344632 158.851852 
L 477.809569 158.897082 
L 482.38613 158.717528 
L 487.185938 158.301606 
L 492.543864 157.604613 
L 499.129647 156.509651 
L 502.924844 155.81438 
L 502.924844 155.81438 
" clip-path="url(#p2c1803767c)" style="fill: none; stroke: #1f77b4; stroke-width: 1.4; stroke-linecap: square"/>
   </g>
   <g id="line2d_28">
    <path d="M 56.5427 155.346405 
L 64.02147 143.940064 
L 68.039914 138.23038 
L 71.276994 133.998145 
L 74.179204 130.554442 
L 76.858166 127.716429 
L 79.313882 125.43328 
L 81.657974 123.559656 
L 83.77882 122.135563 
L 85.899665 120.978659 
L 87.908887 120.135164 
L 89.806485 119.567347 
L 91.704084 119.222989 
L 93.601682 119.101503 
L 95.499281 119.200601 
L 97.396879 119.516323 
L 99.406101 120.080499 
L 101.415323 120.87272 
L 103.536169 121.944823 
L 105.768638 123.319483 
L 108.224353 125.10059 
L 110.903316 127.332249 
L 113.805525 130.043449 
L 117.154229 133.479191 
L 121.395919 138.165871 
L 136.01859 154.618093 
L 139.478917 158.026225 
L 142.604373 160.797306 
L 145.394959 162.985011 
L 148.073922 164.80455 
L 150.529638 166.214803 
L 152.985354 167.368104 
L 155.329446 168.223655 
L 157.673538 168.837633 
L 159.906007 169.199033 
L 162.250099 169.348343 
L 164.594191 169.269313 
L 166.938284 168.972355 
L 169.393999 168.441822 
L 172.072962 167.627837 
L 174.863548 166.547124 
L 177.989004 165.096058 
L 181.672578 163.127695 
L 186.472386 160.286001 
L 198.416094 153.096806 
L 202.322915 151.06785 
L 205.783242 149.519152 
L 208.908698 148.358572 
L 211.922531 147.476939 
L 214.82474 146.862169 
L 217.615326 146.494396 
L 220.405912 146.346685 
L 223.196498 146.41515 
L 226.098708 146.706407 
L 229.112541 147.230736 
L 232.349621 148.021116 
L 235.921571 149.127593 
L 240.051638 150.647976 
L 245.63281 152.962792 
L 256.683531 157.596549 
L 261.148469 159.188535 
L 264.943666 160.31124 
L 268.515616 161.135354 
L 271.864319 161.681143 
L 275.101399 161.988728 
L 278.338479 162.076547 
L 281.687182 161.939941 
L 285.147509 161.567827 
L 288.719459 160.958965 
L 292.626279 160.067202 
L 297.20284 158.786673 
L 303.453753 156.784291 
L 314.281227 153.300567 
L 319.081035 152.012419 
L 323.211102 151.1266 
L 327.117923 150.516255 
L 330.801496 150.163788 
L 334.48507 150.036844 
L 338.168644 150.134757 
L 341.963841 150.460365 
L 345.982284 151.03126 
L 350.447222 151.896892 
L 355.805147 153.174662 
L 365.851257 155.865121 
L 372.660287 157.556511 
L 377.571719 158.553934 
L 381.925033 159.218904 
L 386.0551 159.627705 
L 390.073544 159.802299 
L 394.091988 159.753329 
L 398.222055 159.478182 
L 402.57537 158.96329 
L 407.486801 158.149654 
L 413.514467 156.909917 
L 431.597464 153.030657 
L 436.620519 152.278469 
L 441.19708 151.817456 
L 445.550395 151.60099 
L 449.903709 151.609083 
L 454.368647 151.844918 
L 459.056831 152.319087 
L 464.303133 153.078986 
L 471.000539 154.291255 
L 487.185938 157.317131 
L 492.655487 158.051514 
L 497.566919 158.487663 
L 502.255103 158.679971 
L 502.924844 158.688872 
L 502.924844 158.688872 
" clip-path="url(#p2c1803767c)" style="fill: none; stroke: #ff7f0e; stroke-width: 1.4; stroke-linecap: square"/>
   </g>
   <g id="line2d_29">
    <path d="M 56.5427 155.374119 
L 59.110039 155.258089 
L 61.677378 154.915231 
L 64.244717 154.351613 
L 66.92368 153.538961 
L 69.825889 152.417905 
L 72.951346 150.959304 
L 76.411672 149.086014 
L 80.430116 146.647913 
L 86.234535 142.837241 
L 94.271423 137.589421 
L 98.289867 135.236579 
L 101.63857 133.519998 
L 104.652403 132.213731 
L 107.442989 131.237359 
L 110.121952 130.533068 
L 112.689291 130.087695 
L 115.145007 129.881934 
L 117.600722 129.89766 
L 120.056438 130.137591 
L 122.512154 130.601121 
L 125.079493 131.320512 
L 127.646832 132.271751 
L 130.325795 133.498569 
L 133.228004 135.077255 
L 136.353461 137.036846 
L 139.813787 139.472512 
L 143.943855 142.66142 
L 149.859897 147.5415 
L 158.454902 154.609815 
L 162.696593 157.798839 
L 166.268543 160.213753 
L 169.505623 162.136114 
L 172.519456 163.665467 
L 175.310042 164.837097 
L 177.989004 165.728032 
L 180.667967 166.382361 
L 183.235306 166.784452 
L 185.802645 166.967228 
L 188.481608 166.928945 
L 191.160571 166.665658 
L 193.951157 166.165925 
L 196.853366 165.421784 
L 199.978823 164.392888 
L 203.550773 162.973392 
L 207.68084 161.083914 
L 213.596882 158.1058 
L 222.638381 153.561479 
L 226.991695 151.632155 
L 230.786892 150.19044 
L 234.247219 149.114998 
L 237.484299 148.34125 
L 240.609755 147.822241 
L 243.623588 147.540972 
L 246.637421 147.475771 
L 249.762878 147.631267 
L 252.999957 148.01983 
L 256.348661 148.645455 
L 260.032234 149.563826 
L 264.162302 150.826845 
L 269.408603 152.677464 
L 284.477768 158.14359 
L 288.831082 159.400259 
L 292.737903 160.298127 
L 296.421476 160.91403 
L 299.881803 161.272046 
L 303.34213 161.409326 
L 306.802456 161.326967 
L 310.374407 161.020919 
L 314.169604 160.469443 
L 318.299671 159.639315 
L 323.099479 158.437619 
L 329.685262 156.535523 
L 340.624359 153.369394 
L 345.647414 152.169599 
L 350.000728 151.356272 
L 354.019172 150.829202 
L 357.925993 150.542301 
L 361.72119 150.483848 
L 365.62801 150.647498 
L 369.646454 151.038915 
L 373.999768 151.689619 
L 378.9112 152.653177 
L 385.385359 154.167446 
L 399.003419 157.411032 
L 404.138098 158.366215 
L 408.714659 158.994898 
L 412.95635 159.35835 
L 417.086417 159.494764 
L 421.328108 159.409156 
L 425.681422 159.093905 
L 430.369607 158.523773 
L 435.615908 157.655692 
L 442.648185 156.246636 
L 455.931375 153.549929 
L 461.400923 152.695643 
L 466.200731 152.163247 
L 470.777292 151.876694 
L 475.24223 151.81853 
L 479.818791 151.984727 
L 484.618599 152.387622 
L 489.864901 153.056327 
L 496.339061 154.119428 
L 502.924844 155.33164 
L 502.924844 155.33164 
" clip-path="url(#p2c1803767c)" style="fill: none; stroke: #2ca02c; stroke-width: 1.4; stroke-linecap: square"/>
   </g>
   <g id="line2d_30">
    <path d="M 56.5427 155.374125 
L 65.807445 155.264514 
L 70.942124 154.972111 
L 75.407061 154.494299 
L 79.537129 153.829457 
L 83.555573 152.95868 
L 87.574017 151.863249 
L 91.815707 150.474472 
L 96.503892 148.695787 
L 102.085064 146.327968 
L 118.382087 139.248026 
L 122.512154 137.791261 
L 126.195727 136.725979 
L 129.544431 135.987984 
L 132.669887 135.523133 
L 135.68372 135.297438 
L 138.58593 135.298189 
L 141.488139 135.5198 
L 144.390348 135.964786 
L 147.292558 136.631285 
L 150.306391 137.551107 
L 153.431847 138.737285 
L 156.780551 140.249324 
L 160.464124 142.16559 
L 164.594191 144.571065 
L 169.840493 147.897421 
L 184.01667 157.025434 
L 188.146738 159.342758 
L 191.830311 161.157583 
L 195.179015 162.560858 
L 198.304471 163.63332 
L 201.318304 164.434313 
L 204.220513 164.979833 
L 207.122723 165.299472 
L 210.024932 165.393566 
L 212.927142 165.266978 
L 215.940975 164.911908 
L 219.066431 164.319077 
L 222.415134 163.454808 
L 226.098708 162.268733 
L 230.340399 160.66146 
L 235.921571 158.291963 
L 247.976903 153.108216 
L 252.44184 151.472689 
L 256.348661 150.274485 
L 259.920611 149.40717 
L 263.380938 148.797817 
L 266.729641 148.437149 
L 270.078344 148.306568 
L 273.427047 148.40362 
L 276.887374 148.73302 
L 280.459324 149.298679 
L 284.366145 150.148193 
L 288.831082 151.359009 
L 294.412254 153.118733 
L 309.369796 157.956142 
L 313.946357 159.129814 
L 318.076424 159.96012 
L 321.871621 160.500728 
L 325.555195 160.805184 
L 329.238768 160.886183 
L 332.922342 160.746218 
L 336.717539 160.382648 
L 340.847606 159.758524 
L 345.424167 158.833525 
L 351.005339 157.464271 
L 369.981324 152.601111 
L 374.669509 151.754925 
L 378.9112 151.212256 
L 383.041267 150.910862 
L 387.059711 150.842101 
L 391.078155 150.992933 
L 395.319846 151.376663 
L 399.896407 152.019469 
L 405.142709 152.98973 
L 412.286609 154.559575 
L 424.230317 157.19498 
L 429.699866 158.152472 
L 434.499674 158.767697 
L 438.964612 159.116322 
L 443.317926 159.232764 
L 447.67124 159.126679 
L 452.247801 158.787255 
L 457.159233 158.193354 
L 462.852028 157.2711 
L 471.223786 155.657342 
L 481.493143 153.720491 
L 487.297562 152.860181 
L 492.320617 152.33736 
L 497.008801 152.068395 
L 501.696986 152.024889 
L 502.924844 152.050881 
L 502.924844 152.050881 
" clip-path="url(#p2c1803767c)" style="fill: none; stroke: #d62728; stroke-width: 1.4; stroke-linecap: square"/>
   </g>
   <g id="line2d_31">
    <path d="M 56.5427 155.374125 
L 75.630308 155.264658 
L 82.997455 154.989707 
L 89.025121 154.544814 
L 94.383047 153.929353 
L 99.517725 153.114406 
L 104.54078 152.090872 
L 109.675458 150.817694 
L 115.25663 149.202585 
L 122.177284 146.955106 
L 137.358072 141.945634 
L 142.269503 140.610584 
L 146.511194 139.684514 
L 150.306391 139.077654 
L 153.878341 138.726738 
L 157.338668 138.610567 
L 160.687371 138.720984 
L 164.036074 139.058085 
L 167.384778 139.623851 
L 170.733481 140.414626 
L 174.193807 141.458139 
L 177.877381 142.803147 
L 181.895825 144.513633 
L 186.472386 146.713618 
L 192.388428 149.826778 
L 206.006488 157.090888 
L 210.58305 159.223368 
L 214.48987 160.807537 
L 218.06182 162.024964 
L 221.410523 162.940571 
L 224.647603 163.601752 
L 227.884683 164.032922 
L 231.010139 164.227022 
L 234.135596 164.204064 
L 237.372676 163.958098 
L 240.721379 163.478694 
L 244.293329 162.73682 
L 248.200149 161.687955 
L 252.665087 160.244942 
L 258.357883 158.15127 
L 272.422436 152.87377 
L 276.998997 151.454545 
L 281.017441 150.433927 
L 284.812638 149.698928 
L 288.384588 149.230393 
L 291.956539 148.988859 
L 295.528489 148.976632 
L 299.100439 149.188178 
L 302.784012 149.626835 
L 306.802456 150.334817 
L 311.267394 151.356878 
L 316.625319 152.823062 
L 336.271045 158.435712 
L 340.735983 159.344899 
L 344.86605 159.962111 
L 348.772871 160.325368 
L 352.679691 160.463402 
L 356.586511 160.375687 
L 360.604955 160.059713 
L 364.846646 159.500042 
L 369.534831 158.65268 
L 375.227626 157.38557 
L 395.654716 152.61223 
L 400.454524 151.858468 
L 404.807838 151.395739 
L 409.049529 151.16762 
L 413.29122 151.16645 
L 417.532911 151.387205 
L 421.997848 151.841027 
L 426.90928 152.56487 
L 432.825322 153.66954 
L 454.257023 157.898684 
L 459.280078 158.525552 
L 463.968263 158.885096 
L 468.4332 159.007282 
L 473.009761 158.906524 
L 477.697946 158.577724 
L 482.832624 157.986987 
L 488.748667 157.074061 
L 498.013412 155.382875 
L 502.924844 154.486102 
L 502.924844 154.486102 
" clip-path="url(#p2c1803767c)" style="fill: none; stroke: #9467bd; stroke-width: 1.4; stroke-linecap: square"/>
   </g>
   <g id="line2d_32">
    <path d="M 56.5427 155.374125 
L 87.35077 155.264835 
L 96.727139 154.994273 
L 103.982663 154.569709 
L 110.456822 153.970528 
L 116.484488 153.190067 
L 122.40053 152.198849 
L 128.428196 150.963184 
L 135.125603 149.357767 
L 144.278725 146.910316 
L 155.664316 143.900362 
L 161.357112 142.629927 
L 166.15692 141.781102 
L 170.510234 141.237694 
L 174.528678 140.960191 
L 178.323875 140.917234 
L 182.007448 141.092727 
L 185.691022 141.489533 
L 189.374596 142.108937 
L 193.169793 142.974575 
L 197.076613 144.093519 
L 201.318304 145.544852 
L 206.006488 147.390554 
L 211.699284 149.881914 
L 230.452022 158.294476 
L 234.91696 159.935674 
L 238.935404 161.179723 
L 242.618977 162.094073 
L 246.190927 162.753572 
L 249.651254 163.166852 
L 253.111581 163.352294 
L 256.571908 163.31028 
L 260.032234 163.047288 
L 263.715808 162.53854 
L 267.622628 161.765304 
L 271.864319 160.692673 
L 276.887374 159.17983 
L 284.031274 156.765693 
L 293.965761 153.431622 
L 299.100439 151.95465 
L 303.453753 150.928054 
L 307.472197 150.20479 
L 311.267394 149.742327 
L 315.062591 149.506501 
L 318.746165 149.497552 
L 322.541362 149.709865 
L 326.448182 150.149138 
L 330.689873 150.852582 
L 335.489681 151.88361 
L 341.405723 153.395585 
L 358.48411 157.908851 
L 363.395541 158.889533 
L 367.748856 159.538858 
L 371.878923 159.936134 
L 375.897367 160.104708 
L 379.915811 160.055491 
L 384.045878 159.785442 
L 388.399192 159.279707 
L 393.199 158.497444 
L 399.003419 157.316288 
L 410.38901 154.700364 
L 417.421287 153.229193 
L 422.667589 152.353897 
L 427.355774 151.791839 
L 431.820711 151.479146 
L 436.174026 151.39627 
L 440.52734 151.532511 
L 445.103901 151.898664 
L 450.126956 152.531406 
L 455.931375 153.496632 
L 464.749627 155.221829 
L 474.460866 157.060894 
L 480.265285 157.930811 
L 485.28834 158.464854 
L 490.088148 158.751108 
L 494.776332 158.804804 
L 499.464517 158.636237 
L 502.924844 158.377681 
L 502.924844 158.377681 
" clip-path="url(#p2c1803767c)" style="fill: none; stroke: #8c564b; stroke-width: 1.4; stroke-linecap: square"/>
   </g>
   <g id="line2d_33">
    <path d="M 64.174472 331.956062 
L 65.137705 308.109364 
L 66.253939 285.898826 
L 67.481797 266.171774 
L 68.709655 249.949563 
L 70.049136 235.153505 
L 71.500241 221.654975 
L 72.951346 210.142493 
L 74.514074 199.453405 
L 76.188426 189.544781 
L 77.862777 180.914508 
L 79.648752 172.859414 
L 81.434727 165.79713 
L 83.220702 159.582575 
L 85.118301 153.788392 
L 87.015899 148.732185 
L 88.801874 144.580187 
L 90.58785 140.965819 
L 92.373825 137.84843 
L 94.048176 135.346722 
L 95.722528 133.227189 
L 97.396879 131.467931 
L 98.959608 130.133315 
L 100.522336 129.079853 
L 102.085064 128.293026 
L 103.647792 127.758806 
L 105.21052 127.46348 
L 106.773249 127.393523 
L 108.4476 127.553403 
L 110.121952 127.9401 
L 111.907927 128.583983 
L 113.805525 129.507821 
L 115.926371 130.80341 
L 118.15884 132.431186 
L 120.726179 134.58731 
L 123.740012 137.428767 
L 127.423585 141.223923 
L 134.344239 148.755492 
L 139.59054 154.294836 
L 143.274114 157.862354 
L 146.39957 160.585768 
L 149.190156 162.734036 
L 151.869119 164.514681 
L 154.324835 165.886351 
L 156.668927 166.952447 
L 159.013019 167.77508 
L 161.245488 168.330356 
L 163.477957 168.66441 
L 165.710426 168.781568 
L 168.054518 168.678941 
L 170.39861 168.35629 
L 172.854326 167.79772 
L 175.533289 166.953409 
L 178.435498 165.794552 
L 181.672578 164.251011 
L 185.467775 162.183949 
L 190.8257 158.984655 
L 199.755576 153.646207 
L 203.885643 151.461681 
L 207.34597 149.875711 
L 210.471426 148.676279 
L 213.485259 147.754656 
L 216.387468 147.100675 
L 219.178055 146.69579 
L 221.968641 146.512528 
L 224.759227 146.54776 
L 227.661436 146.807515 
L 230.675269 147.302866 
L 233.912349 148.066604 
L 237.484299 149.149072 
L 241.614366 150.648298 
L 246.972292 152.848805 
L 258.692753 157.730227 
L 263.046067 159.25627 
L 266.841264 160.354046 
L 270.301591 161.129966 
L 273.650294 161.655568 
L 276.887374 161.94232 
L 280.124454 162.008611 
L 283.473157 161.84975 
L 286.933484 161.455554 
L 290.617057 160.802902 
L 294.635501 159.856885 
L 299.323686 158.516169 
L 306.244339 156.274368 
L 315.174215 153.415666 
L 320.085646 152.085988 
L 324.215713 151.190342 
L 328.122534 150.569633 
L 331.806107 150.207121 
L 335.489681 150.070401 
L 339.173255 150.159225 
L 342.968452 150.476501 
L 346.986895 151.039932 
L 351.451833 151.898997 
L 356.809758 153.171154 
L 366.520998 155.767121 
L 373.441651 157.494931 
L 378.464706 158.521556 
L 382.81802 159.190748 
L 386.948088 159.603771 
L 390.966532 159.782348 
L 394.984975 159.737004 
L 399.115043 159.465066 
L 403.468357 158.952923 
L 408.379788 158.141657 
L 414.407454 156.904041 
L 432.490452 153.031104 
L 437.513507 152.281836 
L 442.090068 151.824074 
L 446.443382 151.611133 
L 450.796696 151.622999 
L 455.261634 151.862715 
L 459.949819 152.340637 
L 465.19612 153.10388 
L 471.893527 154.318317 
L 487.855679 157.301252 
L 493.325228 158.037983 
L 498.236659 158.476584 
L 502.924844 158.671262 
L 502.924844 158.671262 
" clip-path="url(#p2c1803767c)" style="fill: none; stroke-dasharray: 4.44,1.92; stroke-dashoffset: 0; stroke: #e377c2; stroke-width: 1.2"/>
   </g>
   <g id="line2d_34">
    <path d="M 70.241133 331.956062 
L 71.276994 311.958426 
L 72.393228 294.395041 
L 73.621086 278.614731 
L 74.848944 265.596355 
L 76.188426 253.745707 
L 77.63953 242.981378 
L 79.090635 233.837098 
L 80.653363 225.356013 
L 82.327715 217.462248 
L 84.11369 210.074905 
L 86.122912 202.730382 
L 88.243757 195.823191 
L 90.58785 188.964152 
L 93.043565 182.463827 
L 95.610904 176.276156 
L 98.289867 170.381339 
L 101.080453 164.783155 
L 103.759416 159.892934 
L 106.438378 155.459547 
L 109.005717 151.633835 
L 111.461433 148.361529 
L 113.805525 145.592616 
L 116.037994 143.279205 
L 118.270463 141.282406 
L 120.391308 139.678389 
L 122.512154 138.358134 
L 124.521376 137.366239 
L 126.530598 136.622037 
L 128.53982 136.119958 
L 130.549042 135.852952 
L 132.558264 135.812492 
L 134.567486 135.988598 
L 136.688331 136.396843 
L 138.9208 137.057068 
L 141.264892 137.983958 
L 143.832231 139.24542 
L 146.622817 140.869734 
L 149.859897 143.024331 
L 153.766718 145.908109 
L 160.129254 150.93333 
L 166.603413 155.953653 
L 170.621857 158.784725 
L 173.970561 160.879971 
L 176.984394 162.514474 
L 179.886603 163.83438 
L 182.565566 164.813931 
L 185.244528 165.553353 
L 187.811867 166.03154 
L 190.379207 166.283631 
L 192.946546 166.313177 
L 195.625508 166.114844 
L 198.304471 165.695041 
L 201.20668 165.00975 
L 204.332137 164.032731 
L 207.792463 162.706494 
L 211.810907 160.917486 
L 217.392079 158.163842 
L 227.103319 153.35718 
L 231.34501 151.525894 
L 235.028583 150.171 
L 238.377287 149.169724 
L 241.614366 148.435223 
L 244.739823 147.958063 
L 247.753656 147.720033 
L 250.767489 147.699825 
L 253.892945 147.902419 
L 257.130025 148.33846 
L 260.590351 149.035595 
L 264.385548 150.036268 
L 268.738863 151.422694 
L 274.654905 153.561329 
L 285.594002 157.543173 
L 290.170564 158.946237 
L 294.189007 159.949423 
L 297.872581 160.643383 
L 301.444531 161.088629 
L 304.904858 161.295844 
L 308.365185 161.280969 
L 311.937135 161.039662 
L 315.620708 160.566897 
L 319.639152 159.822088 
L 324.215713 158.737324 
L 330.020132 157.116878 
L 344.307933 153.028731 
L 349.107741 151.950595 
L 353.349432 151.224932 
L 357.256252 150.77591 
L 361.051449 150.55647 
L 364.846646 150.555118 
L 368.753467 150.775928 
L 372.883534 151.236858 
L 377.348472 151.963781 
L 382.594773 153.053707 
L 390.296791 154.913017 
L 399.896407 157.188901 
L 405.254332 158.222813 
L 409.830893 158.886191 
L 414.184207 159.292698 
L 418.314275 159.45883 
L 422.444342 159.407155 
L 426.797656 159.125398 
L 431.374218 158.60147 
L 436.508896 157.784201 
L 443.094679 156.494669 
L 458.498714 153.393642 
L 463.856639 152.59764 
L 468.656447 152.107885 
L 473.233008 151.866327 
L 477.697946 151.853384 
L 482.274507 152.064365 
L 487.074315 152.509358 
L 492.543864 153.249029 
L 499.464517 154.426815 
L 502.924844 155.065756 
L 502.924844 155.065756 
" clip-path="url(#p2c1803767c)" style="fill: none; stroke-dasharray: 4.44,1.92; stroke-dashoffset: 0; stroke: #7f7f7f; stroke-width: 1.2"/>
   </g>
   <g id="line2d_35">
    <path d="M 78.541372 331.956062 
L 79.760376 310.518981 
L 80.988234 292.860491 
L 82.216091 278.255557 
L 83.555573 265.029519 
L 84.895054 254.007958 
L 86.234535 244.712945 
L 87.68564 236.175349 
L 89.136745 228.894365 
L 90.699473 222.15796 
L 92.373825 215.936862 
L 94.1598 210.184028 
L 96.057398 204.841637 
L 98.06662 199.846886 
L 100.299089 194.901951 
L 102.754805 190.01255 
L 105.545391 184.971627 
L 108.670847 179.802288 
L 112.131174 174.516167 
L 115.814747 169.287908 
L 119.609944 164.278018 
L 123.293518 159.773018 
L 126.753845 155.878808 
L 129.990924 152.557085 
L 133.004757 149.767734 
L 135.906967 147.379203 
L 138.58593 145.449507 
L 141.153269 143.85981 
L 143.720608 142.532897 
L 146.176324 141.515047 
L 148.520416 140.775254 
L 150.864508 140.261913 
L 153.2086 139.972748 
L 155.552693 139.903146 
L 158.008408 140.058129 
L 160.464124 140.435788 
L 163.031463 141.054264 
L 165.822049 141.964988 
L 168.724259 143.147616 
L 171.961339 144.709051 
L 175.756536 146.798153 
L 180.667967 149.777641 
L 193.169793 157.485901 
L 197.188236 159.63094 
L 200.648563 161.233897 
L 203.885643 162.489884 
L 206.899476 163.423995 
L 209.801685 164.094835 
L 212.703895 164.53347 
L 215.494481 164.734084 
L 218.39669 164.715593 
L 221.2989 164.473484 
L 224.312733 163.999229 
L 227.549813 163.259091 
L 231.010139 162.237019 
L 235.028583 160.806838 
L 240.051638 158.762897 
L 255.232426 152.412081 
L 259.362494 151.021424 
L 263.046067 150.009269 
L 266.506394 149.284833 
L 269.855097 148.810314 
L 273.092177 148.571912 
L 276.329257 148.551258 
L 279.67796 148.753146 
L 283.138287 149.186389 
L 286.82186 149.874032 
L 290.951928 150.880527 
L 295.863359 152.322243 
L 303.453753 154.821284 
L 311.490641 157.396579 
L 316.402072 158.731922 
L 320.643763 159.654131 
L 324.550584 160.274879 
L 328.234157 160.638699 
L 331.917731 160.778208 
L 335.601304 160.693577 
L 339.396501 160.381692 
L 343.414945 159.824403 
L 347.879883 158.971417 
L 353.126185 157.73171 
L 361.72119 155.428674 
L 369.534831 153.421268 
L 374.669509 152.328486 
L 379.134447 151.600547 
L 383.264514 151.146661 
L 387.282958 150.925449 
L 391.301402 150.927354 
L 395.431469 151.156133 
L 399.784783 151.627102 
L 404.584591 152.380619 
L 410.277387 153.51284 
L 420.993237 155.937247 
L 428.137138 157.419901 
L 433.383439 158.284153 
L 438.071624 158.832531 
L 442.536562 159.127841 
L 446.889876 159.189888 
L 451.24319 159.03016 
L 455.819751 158.638631 
L 460.842806 157.980778 
L 466.870472 156.954493 
L 488.971914 152.951803 
L 493.994968 152.404998 
L 498.683153 152.111512 
L 502.924844 152.039984 
L 502.924844 152.039984 
" clip-path="url(#p2c1803767c)" style="fill: none; stroke-dasharray: 4.44,1.92; stroke-dashoffset: 0; stroke: #bcbd22; stroke-width: 1.2"/>
   </g>
   <g id="line2d_36">
    <path d="M 88.362935 331.956062 
L 89.583239 312.003552 
L 90.92272 293.752857 
L 92.262201 278.55057 
L 93.601682 265.784653 
L 94.941164 254.981671 
L 96.392268 245.066589 
L 97.843373 236.654866 
L 99.294478 229.459539 
L 100.857206 222.812829 
L 102.419934 217.092672 
L 104.094286 211.793583 
L 105.880261 206.90112 
L 107.666236 202.635402 
L 109.563835 198.648776 
L 111.68468 194.716587 
L 113.917149 191.039821 
L 116.484488 187.254684 
L 119.275074 183.537183 
L 122.512154 179.593961 
L 126.418974 175.198116 
L 130.995535 170.391264 
L 136.130214 165.32174 
L 141.153269 160.666319 
L 145.72983 156.720362 
L 149.748274 153.536481 
L 153.431847 150.892419 
L 156.780551 148.750501 
L 160.01763 146.944061 
L 163.031463 145.515427 
L 165.933673 144.384781 
L 168.724259 143.53388 
L 171.514845 142.920449 
L 174.193807 142.557181 
L 176.87277 142.413947 
L 179.551733 142.486645 
L 182.342319 142.78419 
L 185.244528 143.32133 
L 188.258361 144.106793 
L 191.495441 145.182499 
L 195.067391 146.608678 
L 199.197458 148.504997 
L 204.667007 151.281373 
L 216.610715 157.419769 
L 220.96403 159.361721 
L 224.759227 160.814314 
L 228.219553 161.903215 
L 231.456633 162.694437 
L 234.58209 163.235543 
L 237.707546 163.550303 
L 240.833002 163.637323 
L 243.958459 163.501037 
L 247.195538 163.135237 
L 250.544242 162.534363 
L 254.227815 161.641906 
L 258.357883 160.402319 
L 263.380938 158.648201 
L 281.463935 152.095572 
L 285.705626 150.935427 
L 289.500823 150.124391 
L 293.072773 149.581937 
L 296.5331 149.273985 
L 299.993426 149.185006 
L 303.565377 149.319889 
L 307.24895 149.688486 
L 311.155771 150.311066 
L 315.397461 151.217765 
L 320.420516 152.528973 
L 328.01091 154.774979 
L 336.829162 157.328915 
L 341.852217 158.551426 
L 346.205531 159.389843 
L 350.223975 159.944139 
L 354.130796 160.260444 
L 357.925993 160.349143 
L 361.832813 160.216954 
L 365.851257 159.85653 
L 370.204571 159.235645 
L 375.004379 158.321736 
L 381.143669 156.91027 
L 397.217444 153.094398 
L 402.240499 152.202112 
L 406.705437 151.628782 
L 410.947128 151.303666 
L 415.077195 151.204962 
L 419.318886 151.327588 
L 423.6722 151.677139 
L 428.360385 152.278296 
L 433.829933 153.214447 
L 441.420327 154.76706 
L 452.917542 157.110654 
L 458.498714 158.007662 
L 463.410145 158.575347 
L 467.986706 158.883484 
L 472.451644 158.963989 
L 477.028205 158.820584 
L 481.71639 158.4511 
L 486.962692 157.806917 
L 493.213604 156.802132 
L 502.924844 155.015666 
L 502.924844 155.015666 
" clip-path="url(#p2c1803767c)" style="fill: none; stroke-dasharray: 4.44,1.92; stroke-dashoffset: 0; stroke: #17becf; stroke-width: 1.2"/>
   </g>
   <g id="line2d_37">
    <path d="M 99.187438 331.956062 
L 100.522336 311.703433 
L 101.861817 294.541299 
L 103.312922 278.855254 
L 104.764027 265.630749 
L 106.215131 254.412485 
L 107.666236 244.839399 
L 109.228964 236.040207 
L 110.791692 228.527503 
L 112.354421 222.07178 
L 114.028772 216.119164 
L 115.703124 210.986599 
L 117.489099 206.251549 
L 119.275074 202.141012 
L 121.172673 198.330307 
L 123.181895 194.801318 
L 125.30274 191.528212 
L 127.535209 188.479706 
L 129.990924 185.492322 
L 132.781511 182.45044 
L 136.01859 179.264067 
L 139.813787 175.850166 
L 144.613595 171.848718 
L 150.752885 167.035967 
L 157.673538 161.890534 
L 163.701204 157.670009 
L 168.724259 154.410406 
L 173.077573 151.838813 
L 176.984394 149.778997 
L 180.667967 148.088053 
L 184.01667 146.787797 
L 187.25375 145.763776 
L 190.379207 145.005004 
L 193.393039 144.495162 
L 196.406872 144.207017 
L 199.420705 144.140629 
L 202.434538 144.292161 
L 205.559995 144.671141 
L 208.797074 145.287947 
L 212.257401 146.177964 
L 216.052598 147.393972 
L 220.294289 148.995083 
L 225.652214 151.272852 
L 241.614366 158.227643 
L 245.967681 159.783698 
L 249.874501 160.943461 
L 253.446451 161.775232 
L 256.906778 162.352958 
L 260.255481 162.687611 
L 263.604184 162.797782 
L 266.952888 162.68626 
L 270.413214 162.347782 
L 274.096788 161.756759 
L 278.003608 160.900392 
L 282.468546 159.684835 
L 288.049718 157.91721 
L 304.235117 152.636008 
L 308.811678 151.465124 
L 312.941746 150.636831 
L 316.848566 150.083573 
L 320.53214 149.783047 
L 324.215713 149.703304 
L 327.899287 149.841898 
L 331.806107 150.215563 
L 335.936175 150.840204 
L 340.512736 151.764618 
L 345.982284 153.105472 
L 366.186127 158.295955 
L 370.762689 159.10769 
L 375.004379 159.639012 
L 379.134447 159.93011 
L 383.152891 159.990346 
L 387.282958 159.825442 
L 391.524649 159.430932 
L 396.10121 158.779273 
L 401.347512 157.801639 
L 408.491412 156.223923 
L 420.658367 153.525988 
L 426.127916 152.563875 
L 430.927724 151.943222 
L 435.392661 151.588028 
L 439.745976 151.463833 
L 444.09929 151.561222 
L 448.675851 151.891217 
L 453.587282 152.475817 
L 459.168455 153.370368 
L 467.093719 154.890786 
L 478.367687 157.036266 
L 484.172106 157.902246 
L 489.19516 158.431549 
L 493.883345 158.707919 
L 498.57153 158.759845 
L 502.924844 158.607898 
L 502.924844 158.607898 
" clip-path="url(#p2c1803767c)" style="fill: none; stroke-dasharray: 4.44,1.92; stroke-dashoffset: 0; stroke: #1f77b4; stroke-width: 1.2"/>
   </g>
   <g id="line2d_38">
    <path d="M 110.734199 331.956062 
L 112.131174 312.059021 
L 113.582279 294.49859 
L 115.033383 279.550551 
L 116.484488 266.76553 
L 118.047216 255.001068 
L 119.609944 244.958959 
L 121.172673 236.344466 
L 122.735401 228.91885 
L 124.409752 222.061873 
L 126.084104 216.152058 
L 127.758456 211.031056 
L 129.544431 206.292676 
L 131.330406 202.176318 
L 133.228004 198.367243 
L 135.125603 195.039385 
L 137.134825 191.947296 
L 139.25567 189.077217 
L 141.599762 186.284353 
L 144.167102 183.586861 
L 146.957688 180.985091 
L 150.083144 178.375854 
L 153.766718 175.594217 
L 158.343279 172.427462 
L 164.482568 168.465698 
L 173.189196 163.125049 
L 181.560955 158.229913 
L 187.811867 154.821411 
L 192.946546 152.271242 
L 197.411483 150.299751 
L 201.429927 148.763974 
L 205.225124 147.551848 
L 208.797074 146.644154 
L 212.257401 145.995322 
L 215.606104 145.592565 
L 218.954808 145.415634 
L 222.303511 145.4642 
L 225.652214 145.733132 
L 229.112541 146.23191 
L 232.796114 146.991339 
L 236.702935 148.025708 
L 241.167873 149.44797 
L 246.525798 151.401586 
L 265.836653 158.68032 
L 270.189967 159.950891 
L 274.208411 160.893232 
L 278.003608 161.551736 
L 281.575559 161.950252 
L 285.147509 162.126751 
L 288.719459 162.081039 
L 292.403032 161.808384 
L 296.198229 161.30364 
L 300.328297 160.52431 
L 304.904858 159.428523 
L 310.597653 157.822211 
L 328.680651 152.537361 
L 333.368836 151.507449 
L 337.610526 150.800735 
L 341.62897 150.355578 
L 345.535791 150.145829 
L 349.442611 150.159575 
L 353.461055 150.40075 
L 357.591122 150.87169 
L 362.167684 151.624452 
L 367.413985 152.723219 
L 374.669509 154.493604 
L 385.943477 157.241892 
L 391.413025 158.328259 
L 396.10121 159.037013 
L 400.454524 159.474979 
L 404.696215 159.679416 
L 408.937906 159.658803 
L 413.29122 159.409996 
L 417.867781 158.920151 
L 422.890836 158.154116 
L 429.030125 156.981102 
L 449.010721 152.972717 
L 454.1454 152.281453 
L 458.833584 151.870685 
L 463.410145 151.694244 
L 467.986706 151.745807 
L 472.674891 152.026721 
L 477.697946 152.557811 
L 483.390741 153.391923 
L 491.204382 154.785692 
L 502.924844 156.896742 
L 502.924844 156.896742 
" clip-path="url(#p2c1803767c)" style="fill: none; stroke-dasharray: 4.44,1.92; stroke-dashoffset: 0; stroke: #ff7f0e; stroke-width: 1.2"/>
   </g>
   <g id="line2d_39">
    <path d="M 56.524844 155.374125 
L 502.924844 155.374125 
" clip-path="url(#p2c1803767c)" style="fill: none; stroke: #1f77b4; stroke-width: 0.8; stroke-linecap: square"/>
   </g>
   <g id="patch_3">
    <path d="M 56.524844 288.430125 
L 56.524844 22.318125 
" style="fill: none; stroke: #000000; stroke-width: 0.8; stroke-linejoin: miter; stroke-linecap: square"/>
   </g>
   <g id="patch_4">
    <path d="M 502.924844 288.430125 
L 502.924844 22.318125 
" style="fill: none; stroke: #000000; stroke-width: 0.8; stroke-linejoin: miter; stroke-linecap: square"/>
   </g>
   <g id="patch_5">
    <path d="M 56.524844 288.430125 
L 502.924844 288.430125 
" style="fill: none; stroke: #000000; stroke-width: 0.8; stroke-linejoin: miter; stroke-linecap: square"/>
   </g>
   <g id="patch_6">
    <path d="M 56.524844 22.318125 
L 502.924844 22.318125 
" style="fill: none; stroke: #000000; stroke-width: 0.8; stroke-linejoin: miter; stroke-linecap: square"/>
   </g>
   <g id="text_16">
    <!-- Funciones esféricas de Bessel ordinarias -->
    <g transform="translate(158.414219 16.318125) scale(0.12 -0.12)">
     <defs>
      <path id="DejaVuSans-46" d="M 628 4666 
L 3309 4666 
L 3309 4134 
L 1259 4134 
L 1259 2759 
L 3109 2759 
L 3109 2228 
L 1259 2228 
L 1259 0 
L 628 0 
L 628 4666 
z
" transform="scale(0.015625)"/>
      <path id="DejaVuSans-73" d="M 2834 3397 
L 2834 2853 
Q 2591 2978 2328 3040 
Q 2066 3103 1784 3103 
Q 1356 3103 1142 2972 
Q 928 2841 928 2578 
Q 928 2378 1081 2264 
Q 1234 2150 1697 2047 
L 1894 2003 
Q 2506 1872 2764 1633 
Q 3022 1394 3022 966 
Q 3022 478 2636 193 
Q 2250 -91 1575 -91 
Q 1294 -91 989 -36 
Q 684 19 347 128 
L 347 722 
Q 666 556 975 473 
Q 1284 391 1588 391 
Q 1994 391 2212 530 
Q 2431 669 2431 922 
Q 2431 1156 2273 1281 
Q 2116 1406 1581 1522 
L 1381 1569 
Q 847 1681 609 1914 
Q 372 2147 372 2553 
Q 372 3047 722 3315 
Q 1072 3584 1716 3584 
Q 2034 3584 2315 3537 
Q 2597 3491 2834 3397 
z
" transform="scale(0.015625)"/>
      <path id="DejaVuSans-e9" d="M 3597 1894 
L 3597 1613 
L 953 1613 
Q 991 1019 1311 708 
Q 1631 397 2203 397 
Q 2534 397 2845 478 
Q 3156 559 3463 722 
L 3463 178 
Q 3153 47 2828 -22 
Q 2503 -91 2169 -91 
Q 1331 -91 842 396 
Q 353 884 353 1716 
Q 353 2575 817 3079 
Q 1281 3584 2069 3584 
Q 2775 3584 3186 3129 
Q 3597 2675 3597 1894 
z
M 3022 2063 
Q 3016 2534 2758 2815 
Q 2500 3097 2075 3097 
Q 1594 3097 1305 2825 
Q 1016 2553 972 2059 
L 3022 2063 
z
M 2466 5119 
L 3088 5119 
L 2070 3944 
L 1591 3944 
L 2466 5119 
z
" transform="scale(0.015625)"/>
      <path id="DejaVuSans-42" d="M 1259 2228 
L 1259 519 
L 2272 519 
Q 2781 519 3026 730 
Q 3272 941 3272 1375 
Q 3272 1813 3026 2020 
Q 2781 2228 2272 2228 
L 1259 2228 
z
M 1259 4147 
L 1259 2741 
L 2194 2741 
Q 2656 2741 2882 2914 
Q 3109 3088 3109 3444 
Q 3109 3797 2882 3972 
Q 2656 4147 2194 4147 
L 1259 4147 
z
M 628 4666 
L 2241 4666 
Q 2963 4666 3353 4366 
Q 3744 4066 3744 3513 
Q 3744 3084 3544 2831 
Q 3344 2578 2956 2516 
Q 3422 2416 3680 2098 
Q 3938 1781 3938 1306 
Q 3938 681 3513 340 
Q 3088 0 2303 0 
L 628 0 
L 628 4666 
z
" transform="scale(0.015625)"/>
     </defs>
     <use xlink:href="#DejaVuSans-46"/>
     <use xlink:href="#DejaVuSans-75" transform="translate(52.019531 0)"/>
     <use xlink:href="#DejaVuSans-6e" transform="translate(115.398438 0)"/>
     <use xlink:href="#DejaVuSans-63" transform="translate(178.777344 0)"/>
     <use xlink:href="#DejaVuSans-69" transform="translate(233.757812 0)"/>
     <use xlink:href="#DejaVuSans-6f" transform="translate(261.541016 0)"/>
     <use xlink:href="#DejaVuSans-6e" transform="translate(322.722656 0)"/>
     <use xlink:href="#DejaVuSans-65" transform="translate(386.101562 0)"/>
     <use xlink:href="#DejaVuSans-73" transform="translate(447.625 0)"/>
     <use xlink:href="#DejaVuSans-20" transform="translate(499.724609 0)"/>
     <use xlink:href="#DejaVuSans-65" transform="translate(531.511719 0)"/>
     <use xlink:href="#DejaVuSans-73" transform="translate(593.035156 0)"/>
     <use xlink:href="#DejaVuSans-66" transform="translate(645.134766 0)"/>
     <use xlink:href="#DejaVuSans-e9" transform="translate(680.339844 0)"/>
     <use xlink:href="#DejaVuSans-72" transform="translate(741.863281 0)"/>
     <use xlink:href="#DejaVuSans-69" transform="translate(782.976562 0)"/>
     <use xlink:href="#DejaVuSans-63" transform="translate(810.759766 0)"/>
     <use xlink:href="#DejaVuSans-61" transform="translate(865.740234 0)"/>
     <use xlink:href="#DejaVuSans-73" transform="translate(927.019531 0)"/>
     <use xlink:href="#DejaVuSans-20" transform="translate(979.119141 0)"/>
     <use xlink:href="#DejaVuSans-64" transform="translate(1010.90625 0)"/>
     <use xlink:href="#DejaVuSans-65" transform="translate(1074.382812 0)"/>
     <use xlink:href="#DejaVuSans-20" transform="translate(1135.90625 0)"/>
     <use xlink:href="#DejaVuSans-42" transform="translate(1167.693359 0)"/>
     <use xlink:href="#DejaVuSans-65" transform="translate(1236.296875 0)"/>
     <use xlink:href="#DejaVuSans-73" transform="translate(1297.820312 0)"/>
     <use xlink:href="#DejaVuSans-73" transform="translate(1349.919922 0)"/>
     <use xlink:href="#DejaVuSans-65" transform="translate(1402.019531 0)"/>
     <use xlink:href="#DejaVuSans-6c" transform="translate(1463.542969 0)"/>
     <use xlink:href="#DejaVuSans-20" transform="translate(1491.326172 0)"/>
     <use xlink:href="#DejaVuSans-6f" transform="translate(1523.113281 0)"/>
     <use xlink:href="#DejaVuSans-72" transform="translate(1584.294922 0)"/>
     <use xlink:href="#DejaVuSans-64" transform="translate(1623.658203 0)"/>
     <use xlink:href="#DejaVuSans-69" transform="translate(1687.134766 0)"/>
     <use xlink:href="#DejaVuSans-6e" transform="translate(1714.917969 0)"/>
     <use xlink:href="#DejaVuSans-61" transform="translate(1778.296875 0)"/>
     <use xlink:href="#DejaVuSans-72" transform="translate(1839.576172 0)"/>
     <use xlink:href="#DejaVuSans-69" transform="translate(1880.689453 0)"/>
     <use xlink:href="#DejaVuSans-61" transform="translate(1908.472656 0)"/>
     <use xlink:href="#DejaVuSans-73" transform="translate(1969.751953 0)"/>
    </g>
   </g>
   <g id="legend_1">
    <g id="patch_7">
     <path d="M 283.404844 63.998125 
L 497.324844 63.998125 
Q 498.924844 63.998125 498.924844 62.398125 
L 498.924844 27.918125 
Q 498.924844 26.318125 497.324844 26.318125 
L 283.404844 26.318125 
Q 281.804844 26.318125 281.804844 27.918125 
L 281.804844 62.398125 
Q 281.804844 63.998125 283.404844 63.998125 
z
" style="fill: #ffffff; opacity: 0.8; stroke: #cccccc; stroke-linejoin: miter"/>
    </g>
    <g id="line2d_40">
     <path d="M 285.004844 32.798125 
L 293.004844 32.798125 
L 301.004844 32.798125 
" style="fill: none; stroke: #1f77b4; stroke-width: 1.4; stroke-linecap: square"/>
    </g>
    <g id="text_17">
     <!-- $j_0(x)$ -->
     <g transform="translate(307.404844 35.598125) scale(0.08 -0.08)">
      <defs>
       <path id="DejaVuSans-Oblique-6a" d="M 928 3500 
L 1503 3500 
L 813 -63 
L 809 -78 
Q 694 -675 544 -897 
Q 403 -1106 132 -1218 
Q -138 -1331 -506 -1331 
L -722 -1331 
L -628 -844 
L -481 -844 
Q -144 -844 -1 -703 
Q 141 -563 238 -63 
L 928 3500 
z
M 1197 4863 
L 1772 4863 
L 1631 4134 
L 1056 4134 
L 1197 4863 
z
" transform="scale(0.015625)"/>
       <path id="DejaVuSans-28" d="M 1984 4856 
Q 1566 4138 1362 3434 
Q 1159 2731 1159 2009 
Q 1159 1288 1364 580 
Q 1569 -128 1984 -844 
L 1484 -844 
Q 1016 -109 783 600 
Q 550 1309 550 2009 
Q 550 2706 781 3412 
Q 1013 4119 1484 4856 
L 1984 4856 
z
" transform="scale(0.015625)"/>
       <path id="DejaVuSans-29" d="M 513 4856 
L 1013 4856 
Q 1481 4119 1714 3412 
Q 1947 2706 1947 2009 
Q 1947 1309 1714 600 
Q 1481 -109 1013 -844 
L 513 -844 
Q 928 -128 1133 580 
Q 1338 1288 1338 2009 
Q 1338 2731 1133 3434 
Q 928 4138 513 4856 
z
" transform="scale(0.015625)"/>
      </defs>
      <use xlink:href="#DejaVuSans-Oblique-6a" transform="translate(0 0.015625)"/>
      <use xlink:href="#DejaVuSans-30" transform="translate(27.783203 -16.390625) scale(0.7)"/>
      <use xlink:href="#DejaVuSans-28" transform="translate(75.053711 0.015625)"/>
      <use xlink:href="#DejaVuSans-Oblique-78" transform="translate(114.067383 0.015625)"/>
      <use xlink:href="#DejaVuSans-29" transform="translate(173.24707 0.015625)"/>
     </g>
    </g>
    <g id="line2d_41">
     <path d="M 285.004844 44.558125 
L 293.004844 44.558125 
L 301.004844 44.558125 
" style="fill: none; stroke: #ff7f0e; stroke-width: 1.4; stroke-linecap: square"/>
    </g>
    <g id="text_18">
     <!-- $j_1(x)$ -->
     <g transform="translate(307.404844 47.358125) scale(0.08 -0.08)">
      <use xlink:href="#DejaVuSans-Oblique-6a" transform="translate(0 0.015625)"/>
      <use xlink:href="#DejaVuSans-31" transform="translate(27.783203 -16.390625) scale(0.7)"/>
      <use xlink:href="#DejaVuSans-28" transform="translate(75.053711 0.015625)"/>
      <use xlink:href="#DejaVuSans-Oblique-78" transform="translate(114.067383 0.015625)"/>
      <use xlink:href="#DejaVuSans-29" transform="translate(173.24707 0.015625)"/>
     </g>
    </g>
    <g id="line2d_42">
     <path d="M 285.004844 56.318125 
L 293.004844 56.318125 
L 301.004844 56.318125 
" style="fill: none; stroke: #2ca02c; stroke-width: 1.4; stroke-linecap: square"/>
    </g>
    <g id="text_19">
     <!-- $j_2(x)$ -->
     <g transform="translate(307.404844 59.118125) scale(0.08 -0.08)">
      <use xlink:href="#DejaVuSans-Oblique-6a" transform="translate(0 0.015625)"/>
      <use xlink:href="#DejaVuSans-32" transform="translate(27.783203 -16.390625) scale(0.7)"/>
      <use xlink:href="#DejaVuSans-28" transform="translate(75.053711 0.015625)"/>
      <use xlink:href="#DejaVuSans-Oblique-78" transform="translate(114.067383 0.015625)"/>
      <use xlink:href="#DejaVuSans-29" transform="translate(173.24707 0.015625)"/>
     </g>
    </g>
    <g id="line2d_43">
     <path d="M 340.444844 32.798125 
L 348.444844 32.798125 
L 356.444844 32.798125 
" style="fill: none; stroke: #d62728; stroke-width: 1.4; stroke-linecap: square"/>
    </g>
    <g id="text_20">
     <!-- $j_3(x)$ -->
     <g transform="translate(362.844844 35.598125) scale(0.08 -0.08)">
      <defs>
       <path id="DejaVuSans-33" d="M 2597 2516 
Q 3050 2419 3304 2112 
Q 3559 1806 3559 1356 
Q 3559 666 3084 287 
Q 2609 -91 1734 -91 
Q 1441 -91 1130 -33 
Q 819 25 488 141 
L 488 750 
Q 750 597 1062 519 
Q 1375 441 1716 441 
Q 2309 441 2620 675 
Q 2931 909 2931 1356 
Q 2931 1769 2642 2001 
Q 2353 2234 1838 2234 
L 1294 2234 
L 1294 2753 
L 1863 2753 
Q 2328 2753 2575 2939 
Q 2822 3125 2822 3475 
Q 2822 3834 2567 4026 
Q 2313 4219 1838 4219 
Q 1578 4219 1281 4162 
Q 984 4106 628 3988 
L 628 4550 
Q 988 4650 1302 4700 
Q 1616 4750 1894 4750 
Q 2613 4750 3031 4423 
Q 3450 4097 3450 3541 
Q 3450 3153 3228 2886 
Q 3006 2619 2597 2516 
z
" transform="scale(0.015625)"/>
      </defs>
      <use xlink:href="#DejaVuSans-Oblique-6a" transform="translate(0 0.015625)"/>
      <use xlink:href="#DejaVuSans-33" transform="translate(27.783203 -16.390625) scale(0.7)"/>
      <use xlink:href="#DejaVuSans-28" transform="translate(75.053711 0.015625)"/>
      <use xlink:href="#DejaVuSans-Oblique-78" transform="translate(114.067383 0.015625)"/>
      <use xlink:href="#DejaVuSans-29" transform="translate(173.24707 0.015625)"/>
     </g>
    </g>
    <g id="line2d_44">
     <path d="M 340.444844 44.558125 
L 348.444844 44.558125 
L 356.444844 44.558125 
" style="fill: none; stroke: #9467bd; stroke-width: 1.4; stroke-linecap: square"/>
    </g>
    <g id="text_21">
     <!-- $j_4(x)$ -->
     <g transform="translate(362.844844 47.358125) scale(0.08 -0.08)">
      <defs>
       <path id="DejaVuSans-34" d="M 2419 4116 
L 825 1625 
L 2419 1625 
L 2419 4116 
z
M 2253 4666 
L 3047 4666 
L 3047 1625 
L 3713 1625 
L 3713 1100 
L 3047 1100 
L 3047 0 
L 2419 0 
L 2419 1100 
L 313 1100 
L 313 1709 
L 2253 4666 
z
" transform="scale(0.015625)"/>
      </defs>
      <use xlink:href="#DejaVuSans-Oblique-6a" transform="translate(0 0.015625)"/>
      <use xlink:href="#DejaVuSans-34" transform="translate(27.783203 -16.390625) scale(0.7)"/>
      <use xlink:href="#DejaVuSans-28" transform="translate(75.053711 0.015625)"/>
      <use xlink:href="#DejaVuSans-Oblique-78" transform="translate(114.067383 0.015625)"/>
      <use xlink:href="#DejaVuSans-29" transform="translate(173.24707 0.015625)"/>
     </g>
    </g>
    <g id="line2d_45">
     <path d="M 340.444844 56.318125 
L 348.444844 56.318125 
L 356.444844 56.318125 
" style="fill: none; stroke: #8c564b; stroke-width: 1.4; stroke-linecap: square"/>
    </g>
    <g id="text_22">
     <!-- $j_5(x)$ -->
     <g transform="translate(362.844844 59.118125) scale(0.08 -0.08)">
      <use xlink:href="#DejaVuSans-Oblique-6a" transform="translate(0 0.015625)"/>
      <use xlink:href="#DejaVuSans-35" transform="translate(27.783203 -16.390625) scale(0.7)"/>
      <use xlink:href="#DejaVuSans-28" transform="translate(75.053711 0.015625)"/>
      <use xlink:href="#DejaVuSans-Oblique-78" transform="translate(114.067383 0.015625)"/>
      <use xlink:href="#DejaVuSans-29" transform="translate(173.24707 0.015625)"/>
     </g>
    </g>
    <g id="line2d_46">
     <path d="M 395.884844 32.798125 
L 403.884844 32.798125 
L 411.884844 32.798125 
" style="fill: none; stroke-dasharray: 4.44,1.92; stroke-dashoffset: 0; stroke: #e377c2; stroke-width: 1.2"/>
    </g>
    <g id="text_23">
     <!-- $y_0(x)$ -->
     <g transform="translate(418.284844 35.598125) scale(0.08 -0.08)">
      <defs>
       <path id="DejaVuSans-Oblique-79" d="M 1588 -325 
Q 1188 -997 936 -1164 
Q 684 -1331 294 -1331 
L -159 -1331 
L -63 -850 
L 269 -850 
Q 509 -850 678 -719 
Q 847 -588 1056 -206 
L 1234 128 
L 459 3500 
L 1069 3500 
L 1650 819 
L 3256 3500 
L 3859 3500 
L 1588 -325 
z
" transform="scale(0.015625)"/>
      </defs>
      <use xlink:href="#DejaVuSans-Oblique-79" transform="translate(0 0.125)"/>
      <use xlink:href="#DejaVuSans-30" transform="translate(59.179688 -16.28125) scale(0.7)"/>
      <use xlink:href="#DejaVuSans-28" transform="translate(106.450195 0.125)"/>
      <use xlink:href="#DejaVuSans-Oblique-78" transform="translate(145.463867 0.125)"/>
      <use xlink:href="#DejaVuSans-29" transform="translate(204.643555 0.125)"/>
     </g>
    </g>
    <g id="line2d_47">
     <path d="M 395.884844 44.558125 
L 403.884844 44.558125 
L 411.884844 44.558125 
" style="fill: none; stroke-dasharray: 4.44,1.92; stroke-dashoffset: 0; stroke: #7f7f7f; stroke-width: 1.2"/>
    </g>
    <g id="text_24">
     <!-- $y_1(x)$ -->
     <g transform="translate(418.284844 47.358125) scale(0.08 -0.08)">
      <use xlink:href="#DejaVuSans-Oblique-79" transform="translate(0 0.125)"/>
      <use xlink:href="#DejaVuSans-31" transform="translate(59.179688 -16.28125) scale(0.7)"/>
      <use xlink:href="#DejaVuSans-28" transform="translate(106.450195 0.125)"/>
      <use xlink:href="#DejaVuSans-Oblique-78" transform="translate(145.463867 0.125)"/>
      <use xlink:href="#DejaVuSans-29" transform="translate(204.643555 0.125)"/>
     </g>
    </g>
    <g id="line2d_48">
     <path d="M 395.884844 56.318125 
L 403.884844 56.318125 
L 411.884844 56.318125 
" style="fill: none; stroke-dasharray: 4.44,1.92; stroke-dashoffset: 0; stroke: #bcbd22; stroke-width: 1.2"/>
    </g>
    <g id="text_25">
     <!-- $y_2(x)$ -->
     <g transform="translate(418.284844 59.118125) scale(0.08 -0.08)">
      <use xlink:href="#DejaVuSans-Oblique-79" transform="translate(0 0.125)"/>
      <use xlink:href="#DejaVuSans-32" transform="translate(59.179688 -16.28125) scale(0.7)"/>
      <use xlink:href="#DejaVuSans-28" transform="translate(106.450195 0.125)"/>
      <use xlink:href="#DejaVuSans-Oblique-78" transform="translate(145.463867 0.125)"/>
      <use xlink:href="#DejaVuSans-29" transform="translate(204.643555 0.125)"/>
     </g>
    </g>
    <g id="line2d_49">
     <path d="M 453.804844 32.798125 
L 461.804844 32.798125 
L 469.804844 32.798125 
" style="fill: none; stroke-dasharray: 4.44,1.92; stroke-dashoffset: 0; stroke: #17becf; stroke-width: 1.2"/>
    </g>
    <g id="text_26">
     <!-- $y_3(x)$ -->
     <g transform="translate(476.204844 35.598125) scale(0.08 -0.08)">
      <use xlink:href="#DejaVuSans-Oblique-79" transform="translate(0 0.125)"/>
      <use xlink:href="#DejaVuSans-33" transform="translate(59.179688 -16.28125) scale(0.7)"/>
      <use xlink:href="#DejaVuSans-28" transform="translate(106.450195 0.125)"/>
      <use xlink:href="#DejaVuSans-Oblique-78" transform="translate(145.463867 0.125)"/>
      <use xlink:href="#DejaVuSans-29" transform="translate(204.643555 0.125)"/>
     </g>
    </g>
    <g id="line2d_50">
     <path d="M 453.804844 44.558125 
L 461.804844 44.558125 
L 469.804844 44.558125 
" style="fill: none; stroke-dasharray: 4.44,1.92; stroke-dashoffset: 0; stroke: #1f77b4; stroke-width: 1.2"/>
    </g>
    <g id="text_27">
     <!-- $y_4(x)$ -->
     <g transform="translate(476.204844 47.358125) scale(0.08 -0.08)">
      <use xlink:href="#DejaVuSans-Oblique-79" transform="translate(0 0.125)"/>
      <use xlink:href="#DejaVuSans-34" transform="translate(59.179688 -16.28125) scale(0.7)"/>
      <use xlink:href="#DejaVuSans-28" transform="translate(106.450195 0.125)"/>
      <use xlink:href="#DejaVuSans-Oblique-78" transform="translate(145.463867 0.125)"/>
      <use xlink:href="#DejaVuSans-29" transform="translate(204.643555 0.125)"/>
     </g>
    </g>
    <g id="line2d_51">
     <path d="M 453.804844 56.318125 
L 461.804844 56.318125 
L 469.804844 56.318125 
" style="fill: none; stroke-dasharray: 4.44,1.92; stroke-dashoffset: 0; stroke: #ff7f0e; stroke-width: 1.2"/>
    </g>
    <g id="text_28">
     <!-- $y_5(x)$ -->
     <g transform="translate(476.204844 59.118125) scale(0.08 -0.08)">
      <use xlink:href="#DejaVuSans-Oblique-79" transform="translate(0 0.125)"/>
      <use xlink:href="#DejaVuSans-35" transform="translate(59.179688 -16.28125) scale(0.7)"/>
      <use xlink:href="#DejaVuSans-28" transform="translate(106.450195 0.125)"/>
      <use xlink:href="#DejaVuSans-Oblique-78" transform="translate(145.463867 0.125)"/>
      <use xlink:href="#DejaVuSans-29" transform="translate(204.643555 0.125)"/>
     </g>
    </g>
   </g>
  </g>
 </g>
 <defs>
  <clipPath id="p2c1803767c">
   <rect x="56.524844" y="22.318125" width="446.4" height="266.112"/>
  </clipPath>
 </defs>
</svg>
