<?xml version="1.0" encoding="utf-8" standalone="no"?>
<!DOCTYPE svg PUBLIC "-//W3C//DTD SVG 1.1//EN"
  "http://www.w3.org/Graphics/SVG/1.1/DTD/svg11.dtd">
<svg xmlns:xlink="http://www.w3.org/1999/xlink" width="493.911875pt" height="330.956062pt" viewBox="0 0 493.911875 330.956062" xmlns="http://www.w3.org/2000/svg" version="1.1">
 <metadata>
  <rdf:RDF xmlns:dc="http://purl.org/dc/elements/1.1/" xmlns:cc="http://creativecommons.org/ns#" xmlns:rdf="http://www.w3.org/1999/02/22-rdf-syntax-ns#">
   <cc:Work>
    <dc:type rdf:resource="http://purl.org/dc/dcmitype/StillImage"/>
    <dc:date>2026-06-19T20:58:35.559752</dc:date>
    <dc:format>image/svg+xml</dc:format>
    <dc:creator>
     <cc:Agent>
      <dc:title>Matplotlib v3.10.8, https://matplotlib.org/</dc:title>
     </cc:Agent>
    </dc:creator>
   </cc:Work>
  </rdf:RDF>
 </metadata>
 <defs>
  <style type="text/css">*{stroke-linejoin: round; stroke-linecap: butt}</style>
 </defs>
 <g id="figure_1">
  <g id="patch_1">
   <path d="M 0 330.956062 
L 493.911875 330.956062 
L 493.911875 0 
L 0 0 
z
" style="fill: #ffffff"/>
  </g>
  <g id="axes_1">
   <g id="patch_2">
    <path d="M 36.8125 288.430125 
L 483.2125 288.430125 
L 483.2125 22.318125 
L 36.8125 22.318125 
z
" style="fill: #ffffff"/>
   </g>
   <g id="matplotlib.axis_1">
    <g id="xtick_1">
     <g id="line2d_1">
      <path d="M 36.8125 288.430125 
L 36.8125 22.318125 
" clip-path="url(#pe59935cea6)" style="fill: none; stroke: #b0b0b0; stroke-opacity: 0.25; stroke-width: 0.8; stroke-linecap: square"/>
     </g>
     <g id="line2d_2">
      <defs>
       <path id="ma5509528a0" d="M 0 0 
L 0 3.5 
" style="stroke: #000000; stroke-width: 0.8"/>
      </defs>
      <g>
       <use xlink:href="#ma5509528a0" x="36.8125" y="288.430125" style="stroke: #000000; stroke-width: 0.8"/>
      </g>
     </g>
     <g id="text_1">
      <!-- 0 -->
      <g transform="translate(33.313125 303.788406) scale(0.11 -0.11)">
       <defs>
        <path id="DejaVuSans-30" d="M 2034 4250 
Q 1547 4250 1301 3770 
Q 1056 3291 1056 2328 
Q 1056 1369 1301 889 
Q 1547 409 2034 409 
Q 2525 409 2770 889 
Q 3016 1369 3016 2328 
Q 3016 3291 2770 3770 
Q 2525 4250 2034 4250 
z
M 2034 4750 
Q 2819 4750 3233 4129 
Q 3647 3509 3647 2328 
Q 3647 1150 3233 529 
Q 2819 -91 2034 -91 
Q 1250 -91 836 529 
Q 422 1150 422 2328 
Q 422 3509 836 4129 
Q 1250 4750 2034 4750 
z
" transform="scale(0.015625)"/>
       </defs>
       <use xlink:href="#DejaVuSans-30"/>
      </g>
     </g>
    </g>
    <g id="xtick_2">
     <g id="line2d_3">
      <path d="M 92.6125 288.430125 
L 92.6125 22.318125 
" clip-path="url(#pe59935cea6)" style="fill: none; stroke: #b0b0b0; stroke-opacity: 0.25; stroke-width: 0.8; stroke-linecap: square"/>
     </g>
     <g id="line2d_4">
      <g>
       <use xlink:href="#ma5509528a0" x="92.6125" y="288.430125" style="stroke: #000000; stroke-width: 0.8"/>
      </g>
     </g>
     <g id="text_2">
      <!-- 1 -->
      <g transform="translate(89.113125 303.788406) scale(0.11 -0.11)">
       <defs>
        <path id="DejaVuSans-31" d="M 794 531 
L 1825 531 
L 1825 4091 
L 703 3866 
L 703 4441 
L 1819 4666 
L 2450 4666 
L 2450 531 
L 3481 531 
L 3481 0 
L 794 0 
L 794 531 
z
" transform="scale(0.015625)"/>
       </defs>
       <use xlink:href="#DejaVuSans-31"/>
      </g>
     </g>
    </g>
    <g id="xtick_3">
     <g id="line2d_5">
      <path d="M 148.4125 288.430125 
L 148.4125 22.318125 
" clip-path="url(#pe59935cea6)" style="fill: none; stroke: #b0b0b0; stroke-opacity: 0.25; stroke-width: 0.8; stroke-linecap: square"/>
     </g>
     <g id="line2d_6">
      <g>
       <use xlink:href="#ma5509528a0" x="148.4125" y="288.430125" style="stroke: #000000; stroke-width: 0.8"/>
      </g>
     </g>
     <g id="text_3">
      <!-- 2 -->
      <g transform="translate(144.913125 303.788406) scale(0.11 -0.11)">
       <defs>
        <path id="DejaVuSans-32" d="M 1228 531 
L 3431 531 
L 3431 0 
L 469 0 
L 469 531 
Q 828 903 1448 1529 
Q 2069 2156 2228 2338 
Q 2531 2678 2651 2914 
Q 2772 3150 2772 3378 
Q 2772 3750 2511 3984 
Q 2250 4219 1831 4219 
Q 1534 4219 1204 4116 
Q 875 4013 500 3803 
L 500 4441 
Q 881 4594 1212 4672 
Q 1544 4750 1819 4750 
Q 2544 4750 2975 4387 
Q 3406 4025 3406 3419 
Q 3406 3131 3298 2873 
Q 3191 2616 2906 2266 
Q 2828 2175 2409 1742 
Q 1991 1309 1228 531 
z
" transform="scale(0.015625)"/>
       </defs>
       <use xlink:href="#DejaVuSans-32"/>
      </g>
     </g>
    </g>
    <g id="xtick_4">
     <g id="line2d_7">
      <path d="M 204.2125 288.430125 
L 204.2125 22.318125 
" clip-path="url(#pe59935cea6)" style="fill: none; stroke: #b0b0b0; stroke-opacity: 0.25; stroke-width: 0.8; stroke-linecap: square"/>
     </g>
     <g id="line2d_8">
      <g>
       <use xlink:href="#ma5509528a0" x="204.2125" y="288.430125" style="stroke: #000000; stroke-width: 0.8"/>
      </g>
     </g>
     <g id="text_4">
      <!-- 3 -->
      <g transform="translate(200.713125 303.788406) scale(0.11 -0.11)">
       <defs>
        <path id="DejaVuSans-33" d="M 2597 2516 
Q 3050 2419 3304 2112 
Q 3559 1806 3559 1356 
Q 3559 666 3084 287 
Q 2609 -91 1734 -91 
Q 1441 -91 1130 -33 
Q 819 25 488 141 
L 488 750 
Q 750 597 1062 519 
Q 1375 441 1716 441 
Q 2309 441 2620 675 
Q 2931 909 2931 1356 
Q 2931 1769 2642 2001 
Q 2353 2234 1838 2234 
L 1294 2234 
L 1294 2753 
L 1863 2753 
Q 2328 2753 2575 2939 
Q 2822 3125 2822 3475 
Q 2822 3834 2567 4026 
Q 2313 4219 1838 4219 
Q 1578 4219 1281 4162 
Q 984 4106 628 3988 
L 628 4550 
Q 988 4650 1302 4700 
Q 1616 4750 1894 4750 
Q 2613 4750 3031 4423 
Q 3450 4097 3450 3541 
Q 3450 3153 3228 2886 
Q 3006 2619 2597 2516 
z
" transform="scale(0.015625)"/>
       </defs>
       <use xlink:href="#DejaVuSans-33"/>
      </g>
     </g>
    </g>
    <g id="xtick_5">
     <g id="line2d_9">
      <path d="M 260.0125 288.430125 
L 260.0125 22.318125 
" clip-path="url(#pe59935cea6)" style="fill: none; stroke: #b0b0b0; stroke-opacity: 0.25; stroke-width: 0.8; stroke-linecap: square"/>
     </g>
     <g id="line2d_10">
      <g>
       <use xlink:href="#ma5509528a0" x="260.0125" y="288.430125" style="stroke: #000000; stroke-width: 0.8"/>
      </g>
     </g>
     <g id="text_5">
      <!-- 4 -->
      <g transform="translate(256.513125 303.788406) scale(0.11 -0.11)">
       <defs>
        <path id="DejaVuSans-34" d="M 2419 4116 
L 825 1625 
L 2419 1625 
L 2419 4116 
z
M 2253 4666 
L 3047 4666 
L 3047 1625 
L 3713 1625 
L 3713 1100 
L 3047 1100 
L 3047 0 
L 2419 0 
L 2419 1100 
L 313 1100 
L 313 1709 
L 2253 4666 
z
" transform="scale(0.015625)"/>
       </defs>
       <use xlink:href="#DejaVuSans-34"/>
      </g>
     </g>
    </g>
    <g id="xtick_6">
     <g id="line2d_11">
      <path d="M 315.8125 288.430125 
L 315.8125 22.318125 
" clip-path="url(#pe59935cea6)" style="fill: none; stroke: #b0b0b0; stroke-opacity: 0.25; stroke-width: 0.8; stroke-linecap: square"/>
     </g>
     <g id="line2d_12">
      <g>
       <use xlink:href="#ma5509528a0" x="315.8125" y="288.430125" style="stroke: #000000; stroke-width: 0.8"/>
      </g>
     </g>
     <g id="text_6">
      <!-- 5 -->
      <g transform="translate(312.313125 303.788406) scale(0.11 -0.11)">
       <defs>
        <path id="DejaVuSans-35" d="M 691 4666 
L 3169 4666 
L 3169 4134 
L 1269 4134 
L 1269 2991 
Q 1406 3038 1543 3061 
Q 1681 3084 1819 3084 
Q 2600 3084 3056 2656 
Q 3513 2228 3513 1497 
Q 3513 744 3044 326 
Q 2575 -91 1722 -91 
Q 1428 -91 1123 -41 
Q 819 9 494 109 
L 494 744 
Q 775 591 1075 516 
Q 1375 441 1709 441 
Q 2250 441 2565 725 
Q 2881 1009 2881 1497 
Q 2881 1984 2565 2268 
Q 2250 2553 1709 2553 
Q 1456 2553 1204 2497 
Q 953 2441 691 2322 
L 691 4666 
z
" transform="scale(0.015625)"/>
       </defs>
       <use xlink:href="#DejaVuSans-35"/>
      </g>
     </g>
    </g>
    <g id="xtick_7">
     <g id="line2d_13">
      <path d="M 371.6125 288.430125 
L 371.6125 22.318125 
" clip-path="url(#pe59935cea6)" style="fill: none; stroke: #b0b0b0; stroke-opacity: 0.25; stroke-width: 0.8; stroke-linecap: square"/>
     </g>
     <g id="line2d_14">
      <g>
       <use xlink:href="#ma5509528a0" x="371.6125" y="288.430125" style="stroke: #000000; stroke-width: 0.8"/>
      </g>
     </g>
     <g id="text_7">
      <!-- 6 -->
      <g transform="translate(368.113125 303.788406) scale(0.11 -0.11)">
       <defs>
        <path id="DejaVuSans-36" d="M 2113 2584 
Q 1688 2584 1439 2293 
Q 1191 2003 1191 1497 
Q 1191 994 1439 701 
Q 1688 409 2113 409 
Q 2538 409 2786 701 
Q 3034 994 3034 1497 
Q 3034 2003 2786 2293 
Q 2538 2584 2113 2584 
z
M 3366 4563 
L 3366 3988 
Q 3128 4100 2886 4159 
Q 2644 4219 2406 4219 
Q 1781 4219 1451 3797 
Q 1122 3375 1075 2522 
Q 1259 2794 1537 2939 
Q 1816 3084 2150 3084 
Q 2853 3084 3261 2657 
Q 3669 2231 3669 1497 
Q 3669 778 3244 343 
Q 2819 -91 2113 -91 
Q 1303 -91 875 529 
Q 447 1150 447 2328 
Q 447 3434 972 4092 
Q 1497 4750 2381 4750 
Q 2619 4750 2861 4703 
Q 3103 4656 3366 4563 
z
" transform="scale(0.015625)"/>
       </defs>
       <use xlink:href="#DejaVuSans-36"/>
      </g>
     </g>
    </g>
    <g id="xtick_8">
     <g id="line2d_15">
      <path d="M 427.4125 288.430125 
L 427.4125 22.318125 
" clip-path="url(#pe59935cea6)" style="fill: none; stroke: #b0b0b0; stroke-opacity: 0.25; stroke-width: 0.8; stroke-linecap: square"/>
     </g>
     <g id="line2d_16">
      <g>
       <use xlink:href="#ma5509528a0" x="427.4125" y="288.430125" style="stroke: #000000; stroke-width: 0.8"/>
      </g>
     </g>
     <g id="text_8">
      <!-- 7 -->
      <g transform="translate(423.913125 303.788406) scale(0.11 -0.11)">
       <defs>
        <path id="DejaVuSans-37" d="M 525 4666 
L 3525 4666 
L 3525 4397 
L 1831 0 
L 1172 0 
L 2766 4134 
L 525 4134 
L 525 4666 
z
" transform="scale(0.015625)"/>
       </defs>
       <use xlink:href="#DejaVuSans-37"/>
      </g>
     </g>
    </g>
    <g id="xtick_9">
     <g id="line2d_17">
      <path d="M 483.2125 288.430125 
L 483.2125 22.318125 
" clip-path="url(#pe59935cea6)" style="fill: none; stroke: #b0b0b0; stroke-opacity: 0.25; stroke-width: 0.8; stroke-linecap: square"/>
     </g>
     <g id="line2d_18">
      <g>
       <use xlink:href="#ma5509528a0" x="483.2125" y="288.430125" style="stroke: #000000; stroke-width: 0.8"/>
      </g>
     </g>
     <g id="text_9">
      <!-- 8 -->
      <g transform="translate(479.713125 303.788406) scale(0.11 -0.11)">
       <defs>
        <path id="DejaVuSans-38" d="M 2034 2216 
Q 1584 2216 1326 1975 
Q 1069 1734 1069 1313 
Q 1069 891 1326 650 
Q 1584 409 2034 409 
Q 2484 409 2743 651 
Q 3003 894 3003 1313 
Q 3003 1734 2745 1975 
Q 2488 2216 2034 2216 
z
M 1403 2484 
Q 997 2584 770 2862 
Q 544 3141 544 3541 
Q 544 4100 942 4425 
Q 1341 4750 2034 4750 
Q 2731 4750 3128 4425 
Q 3525 4100 3525 3541 
Q 3525 3141 3298 2862 
Q 3072 2584 2669 2484 
Q 3125 2378 3379 2068 
Q 3634 1759 3634 1313 
Q 3634 634 3220 271 
Q 2806 -91 2034 -91 
Q 1263 -91 848 271 
Q 434 634 434 1313 
Q 434 1759 690 2068 
Q 947 2378 1403 2484 
z
M 1172 3481 
Q 1172 3119 1398 2916 
Q 1625 2713 2034 2713 
Q 2441 2713 2670 2916 
Q 2900 3119 2900 3481 
Q 2900 3844 2670 4047 
Q 2441 4250 2034 4250 
Q 1625 4250 1398 4047 
Q 1172 3844 1172 3481 
z
" transform="scale(0.015625)"/>
       </defs>
       <use xlink:href="#DejaVuSans-38"/>
      </g>
     </g>
    </g>
    <g id="text_10">
     <!-- $x=\sqrt{-\gamma}\,r$ -->
     <g transform="translate(231.8725 321.236062) scale(0.12 -0.12)">
      <defs>
       <path id="DejaVuSans-Oblique-78" d="M 3841 3500 
L 2234 1784 
L 3219 0 
L 2559 0 
L 1819 1388 
L 531 0 
L -166 0 
L 1556 1844 
L 641 3500 
L 1300 3500 
L 1972 2234 
L 3144 3500 
L 3841 3500 
z
" transform="scale(0.015625)"/>
       <path id="DejaVuSans-3d" d="M 678 2906 
L 4684 2906 
L 4684 2381 
L 678 2381 
L 678 2906 
z
M 678 1631 
L 4684 1631 
L 4684 1100 
L 678 1100 
L 678 1631 
z
" transform="scale(0.015625)"/>
       <path id="STIXSizeOneSym-Regular-221a" d="M 6970 9933 
L 3373 -1888 
L 3104 -1888 
L 1626 2918 
Q 1555 3149 1465 3251 
Q 1376 3354 1229 3354 
Q 1011 3354 794 3181 
L 717 3309 
L 1766 4115 
L 1926 4115 
L 3379 -602 
L 3405 -602 
L 6605 9933 
L 6970 9933 
z
" transform="scale(0.015625)"/>
       <path id="DejaVuSans-2212" d="M 678 2272 
L 4684 2272 
L 4684 1741 
L 678 1741 
L 678 2272 
z
" transform="scale(0.015625)"/>
       <path id="DejaVuSans-Oblique-3b3" d="M 1491 2950 
L 1838 788 
L 3456 3500 
L 4066 3500 
L 1972 0 
L 1713 -1331 
L 1138 -1331 
L 1397 0 
L 988 2613 
Q 925 3006 628 3006 
L 475 3006 
L 569 3500 
L 788 3500 
Q 1403 3500 1491 2950 
z
" transform="scale(0.015625)"/>
       <path id="DejaVuSans-Oblique-72" d="M 2853 2969 
Q 2766 3016 2653 3041 
Q 2541 3066 2413 3066 
Q 1953 3066 1609 2717 
Q 1266 2369 1153 1784 
L 800 0 
L 225 0 
L 909 3500 
L 1484 3500 
L 1375 2956 
Q 1603 3259 1920 3421 
Q 2238 3584 2597 3584 
Q 2691 3584 2781 3573 
Q 2872 3563 2963 3538 
L 2853 2969 
z
" transform="scale(0.015625)"/>
      </defs>
      <use xlink:href="#DejaVuSans-Oblique-78" transform="translate(0 0.671875)"/>
      <use xlink:href="#DejaVuSans-3d" transform="translate(78.662109 0.671875)"/>
      <use xlink:href="#STIXSizeOneSym-Regular-221a" transform="translate(181.933594 -3.015625) scale(0.57787)"/>
      <use xlink:href="#DejaVuSans-2212" transform="translate(255.475327 1.0625)"/>
      <use xlink:href="#DejaVuSans-Oblique-3b3" transform="translate(339.264389 1.0625)"/>
      <use xlink:href="#DejaVuSans-Oblique-72" transform="translate(427.179753 0.671875)"/>
      <path d="M 242.975327 80.5 
L 242.975327 86.75 
L 410.944077 86.75 
L 410.944077 80.5 
L 242.975327 80.5 
z
"/>
     </g>
    </g>
   </g>
   <g id="matplotlib.axis_2">
    <g id="ytick_1">
     <g id="line2d_19">
      <path d="M 36.8125 279.845867 
L 483.2125 279.845867 
" clip-path="url(#pe59935cea6)" style="fill: none; stroke: #b0b0b0; stroke-opacity: 0.25; stroke-width: 0.8; stroke-linecap: square"/>
     </g>
     <g id="line2d_20">
      <defs>
       <path id="maf82c9b01f" d="M 0 0 
L -3.5 0 
" style="stroke: #000000; stroke-width: 0.8"/>
      </defs>
      <g>
       <use xlink:href="#maf82c9b01f" x="36.8125" y="279.845867" style="stroke: #000000; stroke-width: 0.8"/>
      </g>
     </g>
     <g id="text_11">
      <!-- 0 -->
      <g transform="translate(22.81375 284.025008) scale(0.11 -0.11)">
       <use xlink:href="#DejaVuSans-30"/>
      </g>
     </g>
    </g>
    <g id="ytick_2">
     <g id="line2d_21">
      <path d="M 36.8125 236.924577 
L 483.2125 236.924577 
" clip-path="url(#pe59935cea6)" style="fill: none; stroke: #b0b0b0; stroke-opacity: 0.25; stroke-width: 0.8; stroke-linecap: square"/>
     </g>
     <g id="line2d_22">
      <g>
       <use xlink:href="#maf82c9b01f" x="36.8125" y="236.924577" style="stroke: #000000; stroke-width: 0.8"/>
      </g>
     </g>
     <g id="text_12">
      <!-- 1 -->
      <g transform="translate(22.81375 241.103717) scale(0.11 -0.11)">
       <use xlink:href="#DejaVuSans-31"/>
      </g>
     </g>
    </g>
    <g id="ytick_3">
     <g id="line2d_23">
      <path d="M 36.8125 194.003286 
L 483.2125 194.003286 
" clip-path="url(#pe59935cea6)" style="fill: none; stroke: #b0b0b0; stroke-opacity: 0.25; stroke-width: 0.8; stroke-linecap: square"/>
     </g>
     <g id="line2d_24">
      <g>
       <use xlink:href="#maf82c9b01f" x="36.8125" y="194.003286" style="stroke: #000000; stroke-width: 0.8"/>
      </g>
     </g>
     <g id="text_13">
      <!-- 2 -->
      <g transform="translate(22.81375 198.182427) scale(0.11 -0.11)">
       <use xlink:href="#DejaVuSans-32"/>
      </g>
     </g>
    </g>
    <g id="ytick_4">
     <g id="line2d_25">
      <path d="M 36.8125 151.081996 
L 483.2125 151.081996 
" clip-path="url(#pe59935cea6)" style="fill: none; stroke: #b0b0b0; stroke-opacity: 0.25; stroke-width: 0.8; stroke-linecap: square"/>
     </g>
     <g id="line2d_26">
      <g>
       <use xlink:href="#maf82c9b01f" x="36.8125" y="151.081996" style="stroke: #000000; stroke-width: 0.8"/>
      </g>
     </g>
     <g id="text_14">
      <!-- 3 -->
      <g transform="translate(22.81375 155.261137) scale(0.11 -0.11)">
       <use xlink:href="#DejaVuSans-33"/>
      </g>
     </g>
    </g>
    <g id="ytick_5">
     <g id="line2d_27">
      <path d="M 36.8125 108.160706 
L 483.2125 108.160706 
" clip-path="url(#pe59935cea6)" style="fill: none; stroke: #b0b0b0; stroke-opacity: 0.25; stroke-width: 0.8; stroke-linecap: square"/>
     </g>
     <g id="line2d_28">
      <g>
       <use xlink:href="#maf82c9b01f" x="36.8125" y="108.160706" style="stroke: #000000; stroke-width: 0.8"/>
      </g>
     </g>
     <g id="text_15">
      <!-- 4 -->
      <g transform="translate(22.81375 112.339846) scale(0.11 -0.11)">
       <use xlink:href="#DejaVuSans-34"/>
      </g>
     </g>
    </g>
    <g id="ytick_6">
     <g id="line2d_29">
      <path d="M 36.8125 65.239415 
L 483.2125 65.239415 
" clip-path="url(#pe59935cea6)" style="fill: none; stroke: #b0b0b0; stroke-opacity: 0.25; stroke-width: 0.8; stroke-linecap: square"/>
     </g>
     <g id="line2d_30">
      <g>
       <use xlink:href="#maf82c9b01f" x="36.8125" y="65.239415" style="stroke: #000000; stroke-width: 0.8"/>
      </g>
     </g>
     <g id="text_16">
      <!-- 5 -->
      <g transform="translate(22.81375 69.418556) scale(0.11 -0.11)">
       <use xlink:href="#DejaVuSans-35"/>
      </g>
     </g>
    </g>
    <g id="ytick_7">
     <g id="line2d_31">
      <path d="M 36.8125 22.318125 
L 483.2125 22.318125 
" clip-path="url(#pe59935cea6)" style="fill: none; stroke: #b0b0b0; stroke-opacity: 0.25; stroke-width: 0.8; stroke-linecap: square"/>
     </g>
     <g id="line2d_32">
      <g>
       <use xlink:href="#maf82c9b01f" x="36.8125" y="22.318125" style="stroke: #000000; stroke-width: 0.8"/>
      </g>
     </g>
     <g id="text_17">
      <!-- 6 -->
      <g transform="translate(22.81375 26.497266) scale(0.11 -0.11)">
       <use xlink:href="#DejaVuSans-36"/>
      </g>
     </g>
    </g>
    <g id="text_18">
     <!-- valor de la función -->
     <g transform="translate(16.318125 211.129125) rotate(-90) scale(0.12 -0.12)">
      <defs>
       <path id="DejaVuSans-76" d="M 191 3500 
L 800 3500 
L 1894 563 
L 2988 3500 
L 3597 3500 
L 2284 0 
L 1503 0 
L 191 3500 
z
" transform="scale(0.015625)"/>
       <path id="DejaVuSans-61" d="M 2194 1759 
Q 1497 1759 1228 1600 
Q 959 1441 959 1056 
Q 959 750 1161 570 
Q 1363 391 1709 391 
Q 2188 391 2477 730 
Q 2766 1069 2766 1631 
L 2766 1759 
L 2194 1759 
z
M 3341 1997 
L 3341 0 
L 2766 0 
L 2766 531 
Q 2569 213 2275 61 
Q 1981 -91 1556 -91 
Q 1019 -91 701 211 
Q 384 513 384 1019 
Q 384 1609 779 1909 
Q 1175 2209 1959 2209 
L 2766 2209 
L 2766 2266 
Q 2766 2663 2505 2880 
Q 2244 3097 1772 3097 
Q 1472 3097 1187 3025 
Q 903 2953 641 2809 
L 641 3341 
Q 956 3463 1253 3523 
Q 1550 3584 1831 3584 
Q 2591 3584 2966 3190 
Q 3341 2797 3341 1997 
z
" transform="scale(0.015625)"/>
       <path id="DejaVuSans-6c" d="M 603 4863 
L 1178 4863 
L 1178 0 
L 603 0 
L 603 4863 
z
" transform="scale(0.015625)"/>
       <path id="DejaVuSans-6f" d="M 1959 3097 
Q 1497 3097 1228 2736 
Q 959 2375 959 1747 
Q 959 1119 1226 758 
Q 1494 397 1959 397 
Q 2419 397 2687 759 
Q 2956 1122 2956 1747 
Q 2956 2369 2687 2733 
Q 2419 3097 1959 3097 
z
M 1959 3584 
Q 2709 3584 3137 3096 
Q 3566 2609 3566 1747 
Q 3566 888 3137 398 
Q 2709 -91 1959 -91 
Q 1206 -91 779 398 
Q 353 888 353 1747 
Q 353 2609 779 3096 
Q 1206 3584 1959 3584 
z
" transform="scale(0.015625)"/>
       <path id="DejaVuSans-72" d="M 2631 2963 
Q 2534 3019 2420 3045 
Q 2306 3072 2169 3072 
Q 1681 3072 1420 2755 
Q 1159 2438 1159 1844 
L 1159 0 
L 581 0 
L 581 3500 
L 1159 3500 
L 1159 2956 
Q 1341 3275 1631 3429 
Q 1922 3584 2338 3584 
Q 2397 3584 2469 3576 
Q 2541 3569 2628 3553 
L 2631 2963 
z
" transform="scale(0.015625)"/>
       <path id="DejaVuSans-20" transform="scale(0.015625)"/>
       <path id="DejaVuSans-64" d="M 2906 2969 
L 2906 4863 
L 3481 4863 
L 3481 0 
L 2906 0 
L 2906 525 
Q 2725 213 2448 61 
Q 2172 -91 1784 -91 
Q 1150 -91 751 415 
Q 353 922 353 1747 
Q 353 2572 751 3078 
Q 1150 3584 1784 3584 
Q 2172 3584 2448 3432 
Q 2725 3281 2906 2969 
z
M 947 1747 
Q 947 1113 1208 752 
Q 1469 391 1925 391 
Q 2381 391 2643 752 
Q 2906 1113 2906 1747 
Q 2906 2381 2643 2742 
Q 2381 3103 1925 3103 
Q 1469 3103 1208 2742 
Q 947 2381 947 1747 
z
" transform="scale(0.015625)"/>
       <path id="DejaVuSans-65" d="M 3597 1894 
L 3597 1613 
L 953 1613 
Q 991 1019 1311 708 
Q 1631 397 2203 397 
Q 2534 397 2845 478 
Q 3156 559 3463 722 
L 3463 178 
Q 3153 47 2828 -22 
Q 2503 -91 2169 -91 
Q 1331 -91 842 396 
Q 353 884 353 1716 
Q 353 2575 817 3079 
Q 1281 3584 2069 3584 
Q 2775 3584 3186 3129 
Q 3597 2675 3597 1894 
z
M 3022 2063 
Q 3016 2534 2758 2815 
Q 2500 3097 2075 3097 
Q 1594 3097 1305 2825 
Q 1016 2553 972 2059 
L 3022 2063 
z
" transform="scale(0.015625)"/>
       <path id="DejaVuSans-66" d="M 2375 4863 
L 2375 4384 
L 1825 4384 
Q 1516 4384 1395 4259 
Q 1275 4134 1275 3809 
L 1275 3500 
L 2222 3500 
L 2222 3053 
L 1275 3053 
L 1275 0 
L 697 0 
L 697 3053 
L 147 3053 
L 147 3500 
L 697 3500 
L 697 3744 
Q 697 4328 969 4595 
Q 1241 4863 1831 4863 
L 2375 4863 
z
" transform="scale(0.015625)"/>
       <path id="DejaVuSans-75" d="M 544 1381 
L 544 3500 
L 1119 3500 
L 1119 1403 
Q 1119 906 1312 657 
Q 1506 409 1894 409 
Q 2359 409 2629 706 
Q 2900 1003 2900 1516 
L 2900 3500 
L 3475 3500 
L 3475 0 
L 2900 0 
L 2900 538 
Q 2691 219 2414 64 
Q 2138 -91 1772 -91 
Q 1169 -91 856 284 
Q 544 659 544 1381 
z
M 1991 3584 
L 1991 3584 
z
" transform="scale(0.015625)"/>
       <path id="DejaVuSans-6e" d="M 3513 2113 
L 3513 0 
L 2938 0 
L 2938 2094 
Q 2938 2591 2744 2837 
Q 2550 3084 2163 3084 
Q 1697 3084 1428 2787 
Q 1159 2491 1159 1978 
L 1159 0 
L 581 0 
L 581 3500 
L 1159 3500 
L 1159 2956 
Q 1366 3272 1645 3428 
Q 1925 3584 2291 3584 
Q 2894 3584 3203 3211 
Q 3513 2838 3513 2113 
z
" transform="scale(0.015625)"/>
       <path id="DejaVuSans-63" d="M 3122 3366 
L 3122 2828 
Q 2878 2963 2633 3030 
Q 2388 3097 2138 3097 
Q 1578 3097 1268 2742 
Q 959 2388 959 1747 
Q 959 1106 1268 751 
Q 1578 397 2138 397 
Q 2388 397 2633 464 
Q 2878 531 3122 666 
L 3122 134 
Q 2881 22 2623 -34 
Q 2366 -91 2075 -91 
Q 1284 -91 818 406 
Q 353 903 353 1747 
Q 353 2603 823 3093 
Q 1294 3584 2113 3584 
Q 2378 3584 2631 3529 
Q 2884 3475 3122 3366 
z
" transform="scale(0.015625)"/>
       <path id="DejaVuSans-69" d="M 603 3500 
L 1178 3500 
L 1178 0 
L 603 0 
L 603 3500 
z
M 603 4863 
L 1178 4863 
L 1178 4134 
L 603 4134 
L 603 4863 
z
" transform="scale(0.015625)"/>
       <path id="DejaVuSans-f3" d="M 1959 3097 
Q 1497 3097 1228 2736 
Q 959 2375 959 1747 
Q 959 1119 1226 758 
Q 1494 397 1959 397 
Q 2419 397 2687 759 
Q 2956 1122 2956 1747 
Q 2956 2369 2687 2733 
Q 2419 3097 1959 3097 
z
M 1959 3584 
Q 2709 3584 3137 3096 
Q 3566 2609 3566 1747 
Q 3566 888 3137 398 
Q 2709 -91 1959 -91 
Q 1206 -91 779 398 
Q 353 888 353 1747 
Q 353 2609 779 3096 
Q 1206 3584 1959 3584 
z
M 2394 5119 
L 3016 5119 
L 1998 3944 
L 1519 3944 
L 2394 5119 
z
" transform="scale(0.015625)"/>
      </defs>
      <use xlink:href="#DejaVuSans-76"/>
      <use xlink:href="#DejaVuSans-61" transform="translate(59.179688 0)"/>
      <use xlink:href="#DejaVuSans-6c" transform="translate(120.458984 0)"/>
      <use xlink:href="#DejaVuSans-6f" transform="translate(148.242188 0)"/>
      <use xlink:href="#DejaVuSans-72" transform="translate(209.423828 0)"/>
      <use xlink:href="#DejaVuSans-20" transform="translate(250.537109 0)"/>
      <use xlink:href="#DejaVuSans-64" transform="translate(282.324219 0)"/>
      <use xlink:href="#DejaVuSans-65" transform="translate(345.800781 0)"/>
      <use xlink:href="#DejaVuSans-20" transform="translate(407.324219 0)"/>
      <use xlink:href="#DejaVuSans-6c" transform="translate(439.111328 0)"/>
      <use xlink:href="#DejaVuSans-61" transform="translate(466.894531 0)"/>
      <use xlink:href="#DejaVuSans-20" transform="translate(528.173828 0)"/>
      <use xlink:href="#DejaVuSans-66" transform="translate(559.960938 0)"/>
      <use xlink:href="#DejaVuSans-75" transform="translate(595.166016 0)"/>
      <use xlink:href="#DejaVuSans-6e" transform="translate(658.544922 0)"/>
      <use xlink:href="#DejaVuSans-63" transform="translate(721.923828 0)"/>
      <use xlink:href="#DejaVuSans-69" transform="translate(776.904297 0)"/>
      <use xlink:href="#DejaVuSans-f3" transform="translate(804.6875 0)"/>
      <use xlink:href="#DejaVuSans-6e" transform="translate(865.869141 0)"/>
     </g>
    </g>
   </g>
   <g id="line2d_33">
    <path d="M 36.8683 236.924569 
L 43.788365 236.812687 
L 50.70843 236.479561 
L 57.628495 235.922112 
L 64.436947 235.14973 
L 71.133784 234.166594 
L 77.719007 232.975456 
L 84.192616 231.577854 
L 90.554612 229.974294 
L 96.693379 228.198855 
L 102.720533 226.224857 
L 108.636072 224.051267 
L 114.328384 221.724722 
L 119.909081 219.205441 
L 125.378165 216.49239 
L 130.735635 213.584591 
L 135.981491 210.481228 
L 141.115733 207.181744 
L 146.13836 203.685947 
L 151.049374 199.994096 
L 155.848774 196.106997 
L 160.53656 192.02609 
L 165.224347 187.645602 
L 169.800519 183.061281 
L 174.265077 178.27608 
L 178.729635 173.161863 
L 183.082579 167.838207 
L 187.435523 162.159992 
L 191.676853 156.264524 
L 195.918184 149.988085 
L 200.159514 143.306465 
L 204.28923 136.386715 
L 208.418947 129.032794 
L 212.548663 121.217485 
L 216.678379 112.91175 
L 220.696481 104.330316 
L 224.714584 95.22487 
L 228.732686 85.563016 
L 232.750788 75.310251 
L 236.768891 64.429828 
L 240.675379 53.212731 
L 244.581867 41.327103 
L 248.488356 28.732246 
L 252.394844 15.384886 
L 256.301333 1.239009 
L 256.899323 -1 
L 256.899323 -1 
" clip-path="url(#pe59935cea6)" style="fill: none; stroke: #1f77b4; stroke-width: 1.4; stroke-linecap: square"/>
   </g>
   <g id="line2d_34">
    <path d="M 36.8683 279.83156 
L 60.753686 273.593609 
L 73.366063 270.065139 
L 83.857774 266.903996 
L 93.121733 263.883473 
L 101.492779 260.92399 
L 109.194142 257.970898 
L 116.449049 254.953894 
L 123.2575 251.88515 
L 129.731109 248.726378 
L 135.869877 245.488193 
L 141.785416 242.119393 
L 147.477728 238.623669 
L 152.946812 235.007248 
L 158.304281 231.196675 
L 163.438523 227.273675 
L 168.461151 223.156884 
L 173.372165 218.842416 
L 178.171565 214.327332 
L 182.859351 209.609712 
L 187.435523 204.688732 
L 191.900081 199.564729 
L 196.36464 194.098241 
L 200.717584 188.414904 
L 205.070528 182.357622 
L 209.311858 176.070767 
L 213.553188 169.377658 
L 217.682905 162.443728 
L 221.812621 155.070628 
L 225.830723 147.447346 
L 229.848826 139.35166 
L 233.866928 130.752838 
L 237.88503 121.618135 
L 241.791519 112.190291 
L 245.698007 102.188821 
L 249.604495 91.577409 
L 253.510984 80.317419 
L 257.417472 68.367742 
L 261.32396 55.684633 
L 265.230449 42.221541 
L 269.025323 28.34927 
L 272.820198 13.645921 
L 276.392409 -1 
L 276.392409 -1 
" clip-path="url(#pe59935cea6)" style="fill: none; stroke: #ff7f0e; stroke-width: 1.4; stroke-linecap: square"/>
   </g>
   <g id="line2d_35">
    <path d="M 36.8683 279.845864 
L 47.806467 279.734482 
L 58.633021 279.403501 
L 69.124733 278.863165 
L 79.281602 278.11865 
L 88.880402 277.195661 
L 98.032747 276.095324 
L 106.738635 274.82572 
L 114.998067 273.395987 
L 122.811044 271.817188 
L 130.177565 270.102975 
L 137.209244 268.238621 
L 143.906081 266.232596 
L 150.268077 264.095939 
L 156.406844 261.798501 
L 162.21077 259.391913 
L 167.791467 256.842061 
L 173.260551 254.097806 
L 178.506407 251.216491 
L 183.640649 248.139321 
L 188.551663 244.937436 
L 193.351063 241.543704 
L 198.038849 237.955883 
L 202.615021 234.172601 
L 207.079579 230.193439 
L 211.432523 226.019021 
L 215.785467 221.531944 
L 220.026798 216.837174 
L 224.156514 211.937846 
L 228.28623 206.691907 
L 232.304333 201.231967 
L 236.322435 195.396971 
L 240.340537 189.161338 
L 244.247026 182.688861 
L 248.153514 175.785035 
L 252.060002 168.421243 
L 255.854877 160.798464 
L 259.649751 152.683003 
L 263.444626 144.043104 
L 267.2395 134.844949 
L 271.034374 125.052531 
L 274.829249 114.627507 
L 278.624123 103.52905 
L 282.307384 92.071852 
L 285.990644 79.897017 
L 289.673905 66.959595 
L 293.357165 53.211806 
L 297.040426 38.602863 
L 300.723686 23.078783 
L 304.406947 6.582182 
L 306.027556 -1 
L 306.027556 -1 
" clip-path="url(#pe59935cea6)" style="fill: none; stroke: #2ca02c; stroke-width: 1.4; stroke-linecap: square"/>
   </g>
   <g id="line2d_36">
    <path d="M 36.8683 279.845867 
L 72.584765 279.735684 
L 91.001067 279.451454 
L 105.734109 279.007996 
L 118.346486 278.411805 
L 129.507881 277.665961 
L 139.553137 276.77505 
L 148.705481 275.742675 
L 157.076528 274.578836 
L 164.889505 273.270609 
L 172.144412 271.833769 
L 178.952863 270.262707 
L 185.426472 268.542103 
L 191.56524 266.680533 
L 197.369165 264.690222 
L 202.949863 262.54173 
L 208.307333 260.239624 
L 213.441574 257.790846 
L 218.352588 255.204818 
L 223.151988 252.42589 
L 227.839774 249.449805 
L 232.304333 246.354022 
L 236.657277 243.069491 
L 240.898607 239.595994 
L 245.139937 235.831485 
L 249.269653 231.864679 
L 253.287756 227.697943 
L 257.305858 223.205652 
L 261.212347 218.503197 
L 265.118835 213.446612 
L 268.913709 208.171372 
L 272.708584 202.513182 
L 276.503458 196.445495 
L 280.186719 190.137819 
L 283.869979 183.390002 
L 287.55324 176.172541 
L 291.2365 168.453988 
L 294.91976 160.200814 
L 298.491407 151.653399 
L 302.063053 142.534971 
L 305.6347 132.808606 
L 309.206347 122.435022 
L 312.777993 111.372428 
L 316.34964 99.576363 
L 319.921286 86.999531 
L 323.492933 73.591618 
L 327.064579 59.299102 
L 330.636226 44.065045 
L 334.207872 27.828885 
L 337.779519 10.526197 
L 340.03871 -1 
L 340.03871 -1 
" clip-path="url(#pe59935cea6)" style="fill: none; stroke: #d62728; stroke-width: 1.4; stroke-linecap: square"/>
   </g>
   <g id="line2d_37">
    <path d="M 36.8683 279.845867 
L 105.399267 279.734864 
L 128.726584 279.468036 
L 145.915133 279.057852 
L 159.978491 278.505363 
L 171.921184 277.81863 
L 182.412895 276.996652 
L 191.788467 276.042532 
L 200.271128 274.959623 
L 208.084105 273.740332 
L 215.339012 272.383219 
L 222.035849 270.906833 
L 228.28623 269.306255 
L 234.20177 267.566271 
L 239.782467 265.698467 
L 245.139937 263.673896 
L 250.274179 261.496815 
L 255.185193 259.174124 
L 259.872979 256.715484 
L 264.449151 254.06563 
L 268.913709 251.220277 
L 273.15504 248.257721 
L 277.284756 245.109105 
L 281.414472 241.678049 
L 285.432574 238.046304 
L 289.339063 234.215643 
L 293.133937 230.189331 
L 296.928812 225.839421 
L 300.612072 221.284934 
L 304.295333 216.378804 
L 307.978593 211.095496 
L 311.55024 205.58626 
L 315.121886 199.67004 
L 318.693533 193.318397 
L 322.265179 186.500972 
L 325.725212 179.421843 
L 329.185244 171.843755 
L 332.645277 163.733232 
L 336.105309 155.054618 
L 339.565342 145.769931 
L 343.025374 135.838721 
L 346.485407 125.217906 
L 349.94544 113.861607 
L 353.405472 101.720969 
L 356.865505 88.743969 
L 360.325537 74.875213 
L 363.78557 60.055725 
L 367.245602 44.222714 
L 370.705635 27.309332 
L 374.165667 9.244415 
L 376.031212 -1 
L 376.031212 -1 
" clip-path="url(#pe59935cea6)" style="fill: none; stroke: #9467bd; stroke-width: 1.4; stroke-linecap: square"/>
   </g>
   <g id="line2d_38">
    <path d="M 36.8683 279.845867 
L 141.673802 279.735149 
L 168.237923 279.476498 
L 186.877453 279.082496 
L 201.722109 278.552582 
L 214.111258 277.892767 
L 224.826198 277.103735 
L 234.313384 276.185528 
L 242.796044 275.145876 
L 250.497407 273.984146 
L 257.6407 272.685446 
L 264.225923 271.266892 
L 270.364691 269.723049 
L 276.168616 268.038344 
L 281.6377 266.22368 
L 286.883556 264.249834 
L 291.906184 262.120479 
L 296.705584 259.842128 
L 301.281756 257.424282 
L 305.746314 254.810917 
L 309.987644 252.072773 
L 314.11736 249.145205 
L 318.135463 246.026953 
L 322.041951 242.718087 
L 325.94844 239.112752 
L 329.743314 235.303075 
L 333.426574 231.292402 
L 337.109835 226.949055 
L 340.681481 222.395186 
L 344.253128 217.478885 
L 347.824774 212.173032 
L 351.284807 206.634093 
L 354.74484 200.674019 
L 358.204872 194.262576 
L 361.664905 187.367441 
L 365.013323 180.20167 
L 368.361742 172.517143 
L 371.71016 164.278219 
L 375.058579 155.446893 
L 378.406998 145.98265 
L 381.755416 135.842297 
L 385.103835 124.979794 
L 388.452253 113.346068 
L 391.800672 100.88882 
L 395.149091 87.552316 
L 398.497509 73.277167 
L 401.845928 58.000094 
L 405.194347 41.653678 
L 408.542765 24.166095 
L 411.891184 5.460836 
L 412.997361 -1 
L 412.997361 -1 
" clip-path="url(#pe59935cea6)" style="fill: none; stroke: #8c564b; stroke-width: 1.4; stroke-linecap: square"/>
   </g>
   <g id="line2d_39">
    <path d="M 47.811545 -1 
L 48.922607 29.796802 
L 50.15036 57.754657 
L 51.378114 80.900847 
L 52.717481 101.975201 
L 54.056849 119.681343 
L 55.50783 135.904071 
L 56.958812 149.699682 
L 58.521407 162.402832 
L 60.084002 173.314123 
L 61.758212 183.401449 
L 63.432421 192.138561 
L 65.218244 200.241444 
L 67.004067 207.309041 
L 68.789891 213.517085 
L 70.687328 219.325704 
L 72.584765 224.451846 
L 74.593816 229.252254 
L 76.714481 233.727592 
L 78.835147 237.687977 
L 81.067426 241.384324 
L 83.411319 244.821462 
L 85.755212 247.87054 
L 88.210719 250.708949 
L 90.77784 253.342765 
L 93.456574 255.779618 
L 96.358537 258.112657 
L 99.372114 260.24714 
L 102.608919 262.261472 
L 106.068951 264.144415 
L 109.752212 265.889609 
L 113.6587 267.49475 
L 117.90003 268.997508 
L 122.587816 270.416761 
L 127.722058 271.73134 
L 133.302756 272.928284 
L 139.553137 274.037574 
L 146.584816 275.05328 
L 154.509407 275.967756 
L 163.550137 276.783091 
L 174.153463 277.508675 
L 186.654226 278.133615 
L 201.833723 278.661414 
L 220.919709 279.091749 
L 246.032849 279.422761 
L 281.860928 279.655781 
L 341.351165 279.793199 
L 483.2125 279.84304 
L 483.2125 279.84304 
" clip-path="url(#pe59935cea6)" style="fill: none; stroke-dasharray: 4.44,1.92; stroke-dashoffset: 0; stroke: #e377c2; stroke-width: 1.2"/>
   </g>
   <g id="line2d_40">
    <path d="M 63.019781 -1 
L 64.436947 29.159673 
L 65.887928 55.529516 
L 67.450523 79.789323 
L 69.013119 100.552201 
L 70.575714 118.451641 
L 72.249923 135.013989 
L 73.924133 149.338529 
L 75.598342 161.804512 
L 77.384165 173.39259 
L 79.169988 183.503079 
L 80.955812 192.371476 
L 82.853249 200.645721 
L 84.750686 207.918071 
L 86.648123 214.339419 
L 88.657174 220.348037 
L 90.666226 225.661724 
L 92.786891 230.626204 
L 94.907556 235.023339 
L 97.139835 239.126404 
L 99.372114 242.766071 
L 101.716007 246.158829 
L 104.0599 249.172739 
L 106.515407 251.979697 
L 109.082528 254.583369 
L 111.761263 256.989609 
L 114.551612 259.205929 
L 117.565188 261.314371 
L 120.690379 263.233427 
L 124.038798 265.032262 
L 127.610444 266.702178 
L 131.516933 268.280865 
L 135.758263 269.749831 
L 140.334435 271.097626 
L 145.357063 272.344201 
L 150.93776 273.497266 
L 157.188142 274.556482 
L 164.219821 275.517115 
L 172.256026 276.383822 
L 181.519984 277.152416 
L 192.346537 277.821844 
L 205.40537 278.398463 
L 221.477779 278.876588 
L 242.12636 279.257767 
L 270.364691 279.542243 
L 313.224449 279.730416 
L 394.032951 279.825671 
L 483.2125 279.842686 
L 483.2125 279.842686 
" clip-path="url(#pe59935cea6)" style="fill: none; stroke-dasharray: 4.44,1.92; stroke-dashoffset: 0; stroke: #7f7f7f; stroke-width: 1.2"/>
   </g>
   <g id="line2d_41">
    <path d="M 84.939029 -1 
L 86.536509 27.077501 
L 88.210719 52.788581 
L 89.884928 75.276853 
L 91.670751 96.254103 
L 93.456574 114.593675 
L 95.242398 130.69086 
L 97.028221 144.87233 
L 98.925658 158.143991 
L 100.823095 169.829825 
L 102.720533 180.154938 
L 104.61797 189.307437 
L 106.627021 197.895378 
L 108.636072 205.503125 
L 110.645123 212.263016 
L 112.654174 218.286721 
L 114.77484 223.950779 
L 116.895505 228.994297 
L 119.127784 233.72064 
L 121.360063 237.92705 
L 123.703956 241.857447 
L 126.047849 245.354328 
L 128.503356 248.613508 
L 130.958863 251.512653 
L 133.525984 254.208771 
L 136.204719 256.704953 
L 138.995067 259.006536 
L 142.008644 261.196777 
L 145.133835 263.189426 
L 148.482253 265.055044 
L 152.0539 266.783589 
L 155.848774 268.370012 
L 159.978491 269.850466 
L 164.443049 271.210781 
L 169.354063 272.469624 
L 174.711533 273.61168 
L 180.738686 274.66489 
L 187.547137 275.621836 
L 195.2485 276.474312 
L 204.177616 277.232554 
L 214.669328 277.893079 
L 227.281705 278.456413 
L 242.907658 278.922728 
L 263.109784 279.292201 
L 291.013272 279.565447 
L 334.096258 279.74333 
L 418.588021 279.830052 
L 483.2125 279.841847 
L 483.2125 279.841847 
" clip-path="url(#pe59935cea6)" style="fill: none; stroke-dasharray: 4.44,1.92; stroke-dashoffset: 0; stroke: #bcbd22; stroke-width: 1.2"/>
   </g>
   <g id="line2d_42">
    <path d="M 110.545174 -1 
L 112.319333 26.456016 
L 114.21677 52.340162 
L 116.114207 75.124779 
L 118.011644 95.237461 
L 119.909081 113.039058 
L 121.806519 128.835277 
L 123.703956 142.886066 
L 125.713007 156.106894 
L 127.722058 167.843756 
L 129.731109 178.287827 
L 131.74016 187.602451 
L 133.860826 196.363649 
L 135.981491 204.163298 
L 138.102156 211.122104 
L 140.222821 217.343675 
L 142.4551 223.194119 
L 144.687379 228.415937 
L 146.919658 233.086088 
L 149.263551 237.468485 
L 151.607444 241.381922 
L 154.062951 245.040706 
L 156.518458 248.303662 
L 159.085579 251.344261 
L 161.764314 254.163712 
L 164.554663 256.766071 
L 167.456626 259.157707 
L 170.470202 261.346815 
L 173.595393 263.342959 
L 176.943812 265.215062 
L 180.515458 266.951628 
L 184.310333 268.546301 
L 188.440049 270.034332 
L 192.904607 271.400547 
L 197.815621 272.662896 
L 203.173091 273.805395 
L 209.08863 274.837981 
L 215.785467 275.777533 
L 223.375216 276.614264 
L 232.192719 277.35705 
L 242.572816 278.001414 
L 255.073579 278.547261 
L 270.699533 278.99716 
L 291.124886 279.349862 
L 319.698058 279.604967 
L 365.236551 279.765463 
L 461.894235 279.836818 
L 483.2125 279.840174 
L 483.2125 279.840174 
" clip-path="url(#pe59935cea6)" style="fill: none; stroke-dasharray: 4.44,1.92; stroke-dashoffset: 0; stroke: #17becf; stroke-width: 1.2"/>
   </g>
   <g id="line2d_43">
    <path d="M 138.478353 -1 
L 140.334435 25.352424 
L 142.343486 50.71407 
L 144.352537 73.204236 
L 146.361588 93.188427 
L 148.37064 110.980446 
L 150.379691 126.850433 
L 152.388742 141.031538 
L 154.397793 153.725494 
L 156.518458 165.704269 
L 158.639123 176.399032 
L 160.759788 185.96393 
L 162.880453 194.532582 
L 165.001119 202.221085 
L 167.233398 209.474332 
L 169.465677 215.966794 
L 171.697956 221.78754 
L 173.930235 227.014094 
L 176.274128 231.936348 
L 178.618021 236.34619 
L 180.961914 240.302975 
L 183.417421 244.018553 
L 185.872928 247.345491 
L 188.440049 250.457006 
L 191.118784 253.351849 
L 193.909133 256.031844 
L 196.811095 258.501401 
L 199.824672 260.767046 
L 202.949863 262.836981 
L 206.298281 264.781351 
L 209.758314 266.534487 
L 213.441574 268.15572 
L 217.459677 269.679143 
L 221.812621 271.086218 
L 226.500407 272.36563 
L 231.634649 273.535588 
L 237.32696 274.602958 
L 243.688956 275.567469 
L 250.943863 276.437249 
L 259.314909 277.208867 
L 269.025323 277.874458 
L 280.633174 278.441306 
L 295.031374 278.912599 
L 313.559291 279.285101 
L 339.118886 279.560857 
L 378.406998 279.740326 
L 455.085784 279.828797 
L 483.2125 279.836866 
L 483.2125 279.836866 
" clip-path="url(#pe59935cea6)" style="fill: none; stroke-dasharray: 4.44,1.92; stroke-dashoffset: 0; stroke: #1f77b4; stroke-width: 1.2"/>
   </g>
   <g id="line2d_44">
    <path d="M 167.997994 -1 
L 169.912133 24.524454 
L 171.921184 48.54032 
L 173.930235 70.04312 
L 176.0509 90.334653 
L 178.171565 108.446902 
L 180.29223 124.63814 
L 182.412895 139.133112 
L 184.53356 152.127771 
L 186.654226 163.793283 
L 188.774891 174.279436 
L 191.00717 184.187506 
L 193.239449 193.068224 
L 195.471728 201.03874 
L 197.704007 208.201605 
L 199.936286 214.646742 
L 202.280179 220.727971 
L 204.624072 226.185104 
L 206.967965 231.088379 
L 209.311858 235.49941 
L 211.767365 239.651429 
L 214.222872 243.377194 
L 216.789993 246.868437 
L 219.357114 249.993939 
L 222.035849 252.910589 
L 224.826198 255.618398 
L 227.72816 258.120085 
L 230.741737 260.42065 
L 233.866928 262.526946 
L 237.215347 264.509207 
L 240.675379 266.299426 
L 244.35864 267.957185 
L 248.376742 269.516599 
L 252.618072 270.923915 
L 257.305858 272.240484 
L 262.4401 273.444283 
L 268.020798 274.522406 
L 274.271179 275.501293 
L 281.302858 276.3753 
L 289.450677 277.157362 
L 298.937863 277.836424 
L 310.210872 278.412751 
L 324.051002 278.889377 
L 341.797621 279.267595 
L 366.129463 279.548757 
L 403.185295 279.733267 
L 474.17177 279.826263 
L 483.2125 279.830048 
L 483.2125 279.830048 
" clip-path="url(#pe59935cea6)" style="fill: none; stroke-dasharray: 4.44,1.92; stroke-dashoffset: 0; stroke: #ff7f0e; stroke-width: 1.2"/>
   </g>
   <g id="line2d_45">
    <path d="M 36.8125 279.845867 
L 483.2125 279.845867 
" clip-path="url(#pe59935cea6)" style="fill: none; stroke: #1f77b4; stroke-width: 0.8; stroke-linecap: square"/>
   </g>
   <g id="patch_3">
    <path d="M 36.8125 288.430125 
L 36.8125 22.318125 
" style="fill: none; stroke: #000000; stroke-width: 0.8; stroke-linejoin: miter; stroke-linecap: square"/>
   </g>
   <g id="patch_4">
    <path d="M 483.2125 288.430125 
L 483.2125 22.318125 
" style="fill: none; stroke: #000000; stroke-width: 0.8; stroke-linejoin: miter; stroke-linecap: square"/>
   </g>
   <g id="patch_5">
    <path d="M 36.8125 288.430125 
L 483.2125 288.430125 
" style="fill: none; stroke: #000000; stroke-width: 0.8; stroke-linejoin: miter; stroke-linecap: square"/>
   </g>
   <g id="patch_6">
    <path d="M 36.8125 22.318125 
L 483.2125 22.318125 
" style="fill: none; stroke: #000000; stroke-width: 0.8; stroke-linejoin: miter; stroke-linecap: square"/>
   </g>
   <g id="text_19">
    <!-- Funciones esféricas de Bessel modificadas -->
    <g transform="translate(132.267812 16.318125) scale(0.12 -0.12)">
     <defs>
      <path id="DejaVuSans-46" d="M 628 4666 
L 3309 4666 
L 3309 4134 
L 1259 4134 
L 1259 2759 
L 3109 2759 
L 3109 2228 
L 1259 2228 
L 1259 0 
L 628 0 
L 628 4666 
z
" transform="scale(0.015625)"/>
      <path id="DejaVuSans-73" d="M 2834 3397 
L 2834 2853 
Q 2591 2978 2328 3040 
Q 2066 3103 1784 3103 
Q 1356 3103 1142 2972 
Q 928 2841 928 2578 
Q 928 2378 1081 2264 
Q 1234 2150 1697 2047 
L 1894 2003 
Q 2506 1872 2764 1633 
Q 3022 1394 3022 966 
Q 3022 478 2636 193 
Q 2250 -91 1575 -91 
Q 1294 -91 989 -36 
Q 684 19 347 128 
L 347 722 
Q 666 556 975 473 
Q 1284 391 1588 391 
Q 1994 391 2212 530 
Q 2431 669 2431 922 
Q 2431 1156 2273 1281 
Q 2116 1406 1581 1522 
L 1381 1569 
Q 847 1681 609 1914 
Q 372 2147 372 2553 
Q 372 3047 722 3315 
Q 1072 3584 1716 3584 
Q 2034 3584 2315 3537 
Q 2597 3491 2834 3397 
z
" transform="scale(0.015625)"/>
      <path id="DejaVuSans-e9" d="M 3597 1894 
L 3597 1613 
L 953 1613 
Q 991 1019 1311 708 
Q 1631 397 2203 397 
Q 2534 397 2845 478 
Q 3156 559 3463 722 
L 3463 178 
Q 3153 47 2828 -22 
Q 2503 -91 2169 -91 
Q 1331 -91 842 396 
Q 353 884 353 1716 
Q 353 2575 817 3079 
Q 1281 3584 2069 3584 
Q 2775 3584 3186 3129 
Q 3597 2675 3597 1894 
z
M 3022 2063 
Q 3016 2534 2758 2815 
Q 2500 3097 2075 3097 
Q 1594 3097 1305 2825 
Q 1016 2553 972 2059 
L 3022 2063 
z
M 2466 5119 
L 3088 5119 
L 2070 3944 
L 1591 3944 
L 2466 5119 
z
" transform="scale(0.015625)"/>
      <path id="DejaVuSans-42" d="M 1259 2228 
L 1259 519 
L 2272 519 
Q 2781 519 3026 730 
Q 3272 941 3272 1375 
Q 3272 1813 3026 2020 
Q 2781 2228 2272 2228 
L 1259 2228 
z
M 1259 4147 
L 1259 2741 
L 2194 2741 
Q 2656 2741 2882 2914 
Q 3109 3088 3109 3444 
Q 3109 3797 2882 3972 
Q 2656 4147 2194 4147 
L 1259 4147 
z
M 628 4666 
L 2241 4666 
Q 2963 4666 3353 4366 
Q 3744 4066 3744 3513 
Q 3744 3084 3544 2831 
Q 3344 2578 2956 2516 
Q 3422 2416 3680 2098 
Q 3938 1781 3938 1306 
Q 3938 681 3513 340 
Q 3088 0 2303 0 
L 628 0 
L 628 4666 
z
" transform="scale(0.015625)"/>
      <path id="DejaVuSans-6d" d="M 3328 2828 
Q 3544 3216 3844 3400 
Q 4144 3584 4550 3584 
Q 5097 3584 5394 3201 
Q 5691 2819 5691 2113 
L 5691 0 
L 5113 0 
L 5113 2094 
Q 5113 2597 4934 2840 
Q 4756 3084 4391 3084 
Q 3944 3084 3684 2787 
Q 3425 2491 3425 1978 
L 3425 0 
L 2847 0 
L 2847 2094 
Q 2847 2600 2669 2842 
Q 2491 3084 2119 3084 
Q 1678 3084 1418 2786 
Q 1159 2488 1159 1978 
L 1159 0 
L 581 0 
L 581 3500 
L 1159 3500 
L 1159 2956 
Q 1356 3278 1631 3431 
Q 1906 3584 2284 3584 
Q 2666 3584 2933 3390 
Q 3200 3197 3328 2828 
z
" transform="scale(0.015625)"/>
     </defs>
     <use xlink:href="#DejaVuSans-46"/>
     <use xlink:href="#DejaVuSans-75" transform="translate(52.019531 0)"/>
     <use xlink:href="#DejaVuSans-6e" transform="translate(115.398438 0)"/>
     <use xlink:href="#DejaVuSans-63" transform="translate(178.777344 0)"/>
     <use xlink:href="#DejaVuSans-69" transform="translate(233.757812 0)"/>
     <use xlink:href="#DejaVuSans-6f" transform="translate(261.541016 0)"/>
     <use xlink:href="#DejaVuSans-6e" transform="translate(322.722656 0)"/>
     <use xlink:href="#DejaVuSans-65" transform="translate(386.101562 0)"/>
     <use xlink:href="#DejaVuSans-73" transform="translate(447.625 0)"/>
     <use xlink:href="#DejaVuSans-20" transform="translate(499.724609 0)"/>
     <use xlink:href="#DejaVuSans-65" transform="translate(531.511719 0)"/>
     <use xlink:href="#DejaVuSans-73" transform="translate(593.035156 0)"/>
     <use xlink:href="#DejaVuSans-66" transform="translate(645.134766 0)"/>
     <use xlink:href="#DejaVuSans-e9" transform="translate(680.339844 0)"/>
     <use xlink:href="#DejaVuSans-72" transform="translate(741.863281 0)"/>
     <use xlink:href="#DejaVuSans-69" transform="translate(782.976562 0)"/>
     <use xlink:href="#DejaVuSans-63" transform="translate(810.759766 0)"/>
     <use xlink:href="#DejaVuSans-61" transform="translate(865.740234 0)"/>
     <use xlink:href="#DejaVuSans-73" transform="translate(927.019531 0)"/>
     <use xlink:href="#DejaVuSans-20" transform="translate(979.119141 0)"/>
     <use xlink:href="#DejaVuSans-64" transform="translate(1010.90625 0)"/>
     <use xlink:href="#DejaVuSans-65" transform="translate(1074.382812 0)"/>
     <use xlink:href="#DejaVuSans-20" transform="translate(1135.90625 0)"/>
     <use xlink:href="#DejaVuSans-42" transform="translate(1167.693359 0)"/>
     <use xlink:href="#DejaVuSans-65" transform="translate(1236.296875 0)"/>
     <use xlink:href="#DejaVuSans-73" transform="translate(1297.820312 0)"/>
     <use xlink:href="#DejaVuSans-73" transform="translate(1349.919922 0)"/>
     <use xlink:href="#DejaVuSans-65" transform="translate(1402.019531 0)"/>
     <use xlink:href="#DejaVuSans-6c" transform="translate(1463.542969 0)"/>
     <use xlink:href="#DejaVuSans-20" transform="translate(1491.326172 0)"/>
     <use xlink:href="#DejaVuSans-6d" transform="translate(1523.113281 0)"/>
     <use xlink:href="#DejaVuSans-6f" transform="translate(1620.525391 0)"/>
     <use xlink:href="#DejaVuSans-64" transform="translate(1681.707031 0)"/>
     <use xlink:href="#DejaVuSans-69" transform="translate(1745.183594 0)"/>
     <use xlink:href="#DejaVuSans-66" transform="translate(1772.966797 0)"/>
     <use xlink:href="#DejaVuSans-69" transform="translate(1808.171875 0)"/>
     <use xlink:href="#DejaVuSans-63" transform="translate(1835.955078 0)"/>
     <use xlink:href="#DejaVuSans-61" transform="translate(1890.935547 0)"/>
     <use xlink:href="#DejaVuSans-64" transform="translate(1952.214844 0)"/>
     <use xlink:href="#DejaVuSans-61" transform="translate(2015.691406 0)"/>
     <use xlink:href="#DejaVuSans-73" transform="translate(2076.970703 0)"/>
    </g>
   </g>
   <g id="legend_1">
    <g id="patch_7">
     <path d="M 42.4125 63.945625 
L 256.1725 63.945625 
Q 257.7725 63.945625 257.7725 62.345625 
L 257.7725 27.918125 
Q 257.7725 26.318125 256.1725 26.318125 
L 42.4125 26.318125 
Q 40.8125 26.318125 40.8125 27.918125 
L 40.8125 62.345625 
Q 40.8125 63.945625 42.4125 63.945625 
z
" style="fill: #ffffff; opacity: 0.8; stroke: #cccccc; stroke-linejoin: miter"/>
    </g>
    <g id="line2d_46">
     <path d="M 44.0125 32.796875 
L 52.0125 32.796875 
L 60.0125 32.796875 
" style="fill: none; stroke: #1f77b4; stroke-width: 1.4; stroke-linecap: square"/>
    </g>
    <g id="text_20">
     <!-- $i_0(x)$ -->
     <g transform="translate(66.4125 35.596875) scale(0.08 -0.08)">
      <defs>
       <path id="DejaVuSans-Oblique-69" d="M 1172 4863 
L 1747 4863 
L 1606 4134 
L 1031 4134 
L 1172 4863 
z
M 909 3500 
L 1484 3500 
L 800 0 
L 225 0 
L 909 3500 
z
" transform="scale(0.015625)"/>
       <path id="DejaVuSans-28" d="M 1984 4856 
Q 1566 4138 1362 3434 
Q 1159 2731 1159 2009 
Q 1159 1288 1364 580 
Q 1569 -128 1984 -844 
L 1484 -844 
Q 1016 -109 783 600 
Q 550 1309 550 2009 
Q 550 2706 781 3412 
Q 1013 4119 1484 4856 
L 1984 4856 
z
" transform="scale(0.015625)"/>
       <path id="DejaVuSans-29" d="M 513 4856 
L 1013 4856 
Q 1481 4119 1714 3412 
Q 1947 2706 1947 2009 
Q 1947 1309 1714 600 
Q 1481 -109 1013 -844 
L 513 -844 
Q 928 -128 1133 580 
Q 1338 1288 1338 2009 
Q 1338 2731 1133 3434 
Q 928 4138 513 4856 
z
" transform="scale(0.015625)"/>
      </defs>
      <use xlink:href="#DejaVuSans-Oblique-69" transform="translate(0 0.015625)"/>
      <use xlink:href="#DejaVuSans-30" transform="translate(27.783203 -16.390625) scale(0.7)"/>
      <use xlink:href="#DejaVuSans-28" transform="translate(75.053711 0.015625)"/>
      <use xlink:href="#DejaVuSans-Oblique-78" transform="translate(114.067383 0.015625)"/>
      <use xlink:href="#DejaVuSans-29" transform="translate(173.24707 0.015625)"/>
     </g>
    </g>
    <g id="line2d_47">
     <path d="M 44.0125 44.539375 
L 52.0125 44.539375 
L 60.0125 44.539375 
" style="fill: none; stroke: #ff7f0e; stroke-width: 1.4; stroke-linecap: square"/>
    </g>
    <g id="text_21">
     <!-- $i_1(x)$ -->
     <g transform="translate(66.4125 47.339375) scale(0.08 -0.08)">
      <use xlink:href="#DejaVuSans-Oblique-69" transform="translate(0 0.015625)"/>
      <use xlink:href="#DejaVuSans-31" transform="translate(27.783203 -16.390625) scale(0.7)"/>
      <use xlink:href="#DejaVuSans-28" transform="translate(75.053711 0.015625)"/>
      <use xlink:href="#DejaVuSans-Oblique-78" transform="translate(114.067383 0.015625)"/>
      <use xlink:href="#DejaVuSans-29" transform="translate(173.24707 0.015625)"/>
     </g>
    </g>
    <g id="line2d_48">
     <path d="M 44.0125 56.281875 
L 52.0125 56.281875 
L 60.0125 56.281875 
" style="fill: none; stroke: #2ca02c; stroke-width: 1.4; stroke-linecap: square"/>
    </g>
    <g id="text_22">
     <!-- $i_2(x)$ -->
     <g transform="translate(66.4125 59.081875) scale(0.08 -0.08)">
      <use xlink:href="#DejaVuSans-Oblique-69" transform="translate(0 0.015625)"/>
      <use xlink:href="#DejaVuSans-32" transform="translate(27.783203 -16.390625) scale(0.7)"/>
      <use xlink:href="#DejaVuSans-28" transform="translate(75.053711 0.015625)"/>
      <use xlink:href="#DejaVuSans-Oblique-78" transform="translate(114.067383 0.015625)"/>
      <use xlink:href="#DejaVuSans-29" transform="translate(173.24707 0.015625)"/>
     </g>
    </g>
    <g id="line2d_49">
     <path d="M 99.4525 32.796875 
L 107.4525 32.796875 
L 115.4525 32.796875 
" style="fill: none; stroke: #d62728; stroke-width: 1.4; stroke-linecap: square"/>
    </g>
    <g id="text_23">
     <!-- $i_3(x)$ -->
     <g transform="translate(121.8525 35.596875) scale(0.08 -0.08)">
      <use xlink:href="#DejaVuSans-Oblique-69" transform="translate(0 0.015625)"/>
      <use xlink:href="#DejaVuSans-33" transform="translate(27.783203 -16.390625) scale(0.7)"/>
      <use xlink:href="#DejaVuSans-28" transform="translate(75.053711 0.015625)"/>
      <use xlink:href="#DejaVuSans-Oblique-78" transform="translate(114.067383 0.015625)"/>
      <use xlink:href="#DejaVuSans-29" transform="translate(173.24707 0.015625)"/>
     </g>
    </g>
    <g id="line2d_50">
     <path d="M 99.4525 44.539375 
L 107.4525 44.539375 
L 115.4525 44.539375 
" style="fill: none; stroke: #9467bd; stroke-width: 1.4; stroke-linecap: square"/>
    </g>
    <g id="text_24">
     <!-- $i_4(x)$ -->
     <g transform="translate(121.8525 47.339375) scale(0.08 -0.08)">
      <use xlink:href="#DejaVuSans-Oblique-69" transform="translate(0 0.015625)"/>
      <use xlink:href="#DejaVuSans-34" transform="translate(27.783203 -16.390625) scale(0.7)"/>
      <use xlink:href="#DejaVuSans-28" transform="translate(75.053711 0.015625)"/>
      <use xlink:href="#DejaVuSans-Oblique-78" transform="translate(114.067383 0.015625)"/>
      <use xlink:href="#DejaVuSans-29" transform="translate(173.24707 0.015625)"/>
     </g>
    </g>
    <g id="line2d_51">
     <path d="M 99.4525 56.281875 
L 107.4525 56.281875 
L 115.4525 56.281875 
" style="fill: none; stroke: #8c564b; stroke-width: 1.4; stroke-linecap: square"/>
    </g>
    <g id="text_25">
     <!-- $i_5(x)$ -->
     <g transform="translate(121.8525 59.081875) scale(0.08 -0.08)">
      <use xlink:href="#DejaVuSans-Oblique-69" transform="translate(0 0.015625)"/>
      <use xlink:href="#DejaVuSans-35" transform="translate(27.783203 -16.390625) scale(0.7)"/>
      <use xlink:href="#DejaVuSans-28" transform="translate(75.053711 0.015625)"/>
      <use xlink:href="#DejaVuSans-Oblique-78" transform="translate(114.067383 0.015625)"/>
      <use xlink:href="#DejaVuSans-29" transform="translate(173.24707 0.015625)"/>
     </g>
    </g>
    <g id="line2d_52">
     <path d="M 154.8925 32.796875 
L 162.8925 32.796875 
L 170.8925 32.796875 
" style="fill: none; stroke-dasharray: 4.44,1.92; stroke-dashoffset: 0; stroke: #e377c2; stroke-width: 1.2"/>
    </g>
    <g id="text_26">
     <!-- $k_0(x)$ -->
     <g transform="translate(177.2925 35.596875) scale(0.08 -0.08)">
      <defs>
       <path id="DejaVuSans-Oblique-6b" d="M 1172 4863 
L 1747 4863 
L 1197 2028 
L 3169 3500 
L 3916 3500 
L 1716 1825 
L 3322 0 
L 2625 0 
L 1131 1709 
L 800 0 
L 225 0 
L 1172 4863 
z
" transform="scale(0.015625)"/>
      </defs>
      <use xlink:href="#DejaVuSans-Oblique-6b" transform="translate(0 0.015625)"/>
      <use xlink:href="#DejaVuSans-30" transform="translate(57.910156 -16.390625) scale(0.7)"/>
      <use xlink:href="#DejaVuSans-28" transform="translate(105.180664 0.015625)"/>
      <use xlink:href="#DejaVuSans-Oblique-78" transform="translate(144.194336 0.015625)"/>
      <use xlink:href="#DejaVuSans-29" transform="translate(203.374023 0.015625)"/>
     </g>
    </g>
    <g id="line2d_53">
     <path d="M 154.8925 44.539375 
L 162.8925 44.539375 
L 170.8925 44.539375 
" style="fill: none; stroke-dasharray: 4.44,1.92; stroke-dashoffset: 0; stroke: #7f7f7f; stroke-width: 1.2"/>
    </g>
    <g id="text_27">
     <!-- $k_1(x)$ -->
     <g transform="translate(177.2925 47.339375) scale(0.08 -0.08)">
      <use xlink:href="#DejaVuSans-Oblique-6b" transform="translate(0 0.015625)"/>
      <use xlink:href="#DejaVuSans-31" transform="translate(57.910156 -16.390625) scale(0.7)"/>
      <use xlink:href="#DejaVuSans-28" transform="translate(105.180664 0.015625)"/>
      <use xlink:href="#DejaVuSans-Oblique-78" transform="translate(144.194336 0.015625)"/>
      <use xlink:href="#DejaVuSans-29" transform="translate(203.374023 0.015625)"/>
     </g>
    </g>
    <g id="line2d_54">
     <path d="M 154.8925 56.281875 
L 162.8925 56.281875 
L 170.8925 56.281875 
" style="fill: none; stroke-dasharray: 4.44,1.92; stroke-dashoffset: 0; stroke: #bcbd22; stroke-width: 1.2"/>
    </g>
    <g id="text_28">
     <!-- $k_2(x)$ -->
     <g transform="translate(177.2925 59.081875) scale(0.08 -0.08)">
      <use xlink:href="#DejaVuSans-Oblique-6b" transform="translate(0 0.015625)"/>
      <use xlink:href="#DejaVuSans-32" transform="translate(57.910156 -16.390625) scale(0.7)"/>
      <use xlink:href="#DejaVuSans-28" transform="translate(105.180664 0.015625)"/>
      <use xlink:href="#DejaVuSans-Oblique-78" transform="translate(144.194336 0.015625)"/>
      <use xlink:href="#DejaVuSans-29" transform="translate(203.374023 0.015625)"/>
     </g>
    </g>
    <g id="line2d_55">
     <path d="M 212.7325 32.796875 
L 220.7325 32.796875 
L 228.7325 32.796875 
" style="fill: none; stroke-dasharray: 4.44,1.92; stroke-dashoffset: 0; stroke: #17becf; stroke-width: 1.2"/>
    </g>
    <g id="text_29">
     <!-- $k_3(x)$ -->
     <g transform="translate(235.1325 35.596875) scale(0.08 -0.08)">
      <use xlink:href="#DejaVuSans-Oblique-6b" transform="translate(0 0.015625)"/>
      <use xlink:href="#DejaVuSans-33" transform="translate(57.910156 -16.390625) scale(0.7)"/>
      <use xlink:href="#DejaVuSans-28" transform="translate(105.180664 0.015625)"/>
      <use xlink:href="#DejaVuSans-Oblique-78" transform="translate(144.194336 0.015625)"/>
      <use xlink:href="#DejaVuSans-29" transform="translate(203.374023 0.015625)"/>
     </g>
    </g>
    <g id="line2d_56">
     <path d="M 212.7325 44.539375 
L 220.7325 44.539375 
L 228.7325 44.539375 
" style="fill: none; stroke-dasharray: 4.44,1.92; stroke-dashoffset: 0; stroke: #1f77b4; stroke-width: 1.2"/>
    </g>
    <g id="text_30">
     <!-- $k_4(x)$ -->
     <g transform="translate(235.1325 47.339375) scale(0.08 -0.08)">
      <use xlink:href="#DejaVuSans-Oblique-6b" transform="translate(0 0.015625)"/>
      <use xlink:href="#DejaVuSans-34" transform="translate(57.910156 -16.390625) scale(0.7)"/>
      <use xlink:href="#DejaVuSans-28" transform="translate(105.180664 0.015625)"/>
      <use xlink:href="#DejaVuSans-Oblique-78" transform="translate(144.194336 0.015625)"/>
      <use xlink:href="#DejaVuSans-29" transform="translate(203.374023 0.015625)"/>
     </g>
    </g>
    <g id="line2d_57">
     <path d="M 212.7325 56.281875 
L 220.7325 56.281875 
L 228.7325 56.281875 
" style="fill: none; stroke-dasharray: 4.44,1.92; stroke-dashoffset: 0; stroke: #ff7f0e; stroke-width: 1.2"/>
    </g>
    <g id="text_31">
     <!-- $k_5(x)$ -->
     <g transform="translate(235.1325 59.081875) scale(0.08 -0.08)">
      <use xlink:href="#DejaVuSans-Oblique-6b" transform="translate(0 0.015625)"/>
      <use xlink:href="#DejaVuSans-35" transform="translate(57.910156 -16.390625) scale(0.7)"/>
      <use xlink:href="#DejaVuSans-28" transform="translate(105.180664 0.015625)"/>
      <use xlink:href="#DejaVuSans-Oblique-78" transform="translate(144.194336 0.015625)"/>
      <use xlink:href="#DejaVuSans-29" transform="translate(203.374023 0.015625)"/>
     </g>
    </g>
   </g>
  </g>
 </g>
 <defs>
  <clipPath id="pe59935cea6">
   <rect x="36.8125" y="22.318125" width="446.4" height="266.112"/>
  </clipPath>
 </defs>
</svg>
